<?xml version="1.0" encoding="UTF-8" standalone="no"?>
<!-- Created with Inkscape (http://www.inkscape.org/) -->

<svg
   xmlns:dc="http://purl.org/dc/elements/1.1/"
   xmlns:cc="http://creativecommons.org/ns#"
   xmlns:rdf="http://www.w3.org/1999/02/22-rdf-syntax-ns#"
   xmlns:svg="http://www.w3.org/2000/svg"
   xmlns="http://www.w3.org/2000/svg"
   xmlns:sodipodi="http://sodipodi.sourceforge.net/DTD/sodipodi-0.dtd"
   xmlns:inkscape="http://www.inkscape.org/namespaces/inkscape"
   width="400px"
   height="160px"
   viewBox="0 0 400 160"
   version="1.1"
   id="SVGRoot"
   inkscape:version="0.92.1 r15371"
   sodipodi:docname="logo.svg">
  <sodipodi:namedview
     id="base"
     pagecolor="#ffffff"
     bordercolor="#666666"
     borderopacity="1.0"
     inkscape:pageopacity="0.0"
     inkscape:pageshadow="2"
     inkscape:zoom="1.4"
     inkscape:cx="149.41126"
     inkscape:cy="82.132034"
     inkscape:document-units="px"
     inkscape:current-layer="layer1"
     showgrid="false"
     inkscape:window-width="1920"
     inkscape:window-height="1051"
     inkscape:window-x="0"
     inkscape:window-y="0"
     inkscape:window-maximized="1" />
  <defs
     id="defs6995" />
  <metadata
     id="metadata6998">
    <rdf:RDF>
      <cc:Work
         rdf:about="">
        <dc:format>image/svg+xml</dc:format>
        <dc:type
           rdf:resource="http://purl.org/dc/dcmitype/StillImage" />
        <dc:title></dc:title>
      </cc:Work>
    </rdf:RDF>
  </metadata>
  <g
     id="layer1"
     inkscape:groupmode="layer"
     inkscape:label="Camada 1">
    <g
       id="g4757"
       transform="matrix(4.3622935,0,0,4.3622935,414.0082,430.9491)"
       inkscape:export-xdpi="417.16"
       inkscape:export-ydpi="417.16">
      <g
         id="g4721"
         transform="matrix(0.58123768,0,0,0.58123768,-112.73848,-97.194405)">
        <path
           style="fill:#025c98;stroke-width:0.76636207"
           inkscape:connector-curvature="0"
           d="m 56.082955,44.722293 c 4.291628,-0.689726 3.448629,-4.828081 0.07664,-6.360805 -4.598172,-2.069178 -8.123438,5.134626 -5.824352,8.659891 2.912176,4.444901 9.196345,3.065451 13.028156,0.766361 5.211262,-3.065447 8.659891,-8.353345 8.506619,-14.484242 -0.229909,-9.272981 -9.196345,-17.319783 -18.39269,-15.173969 -10.805705,2.452359 -9.809435,17.7796 0.842998,19.618869 1.226179,0.229909 1.762633,-1.60936 0.536454,-1.839269 -7.203804,-1.226179 -10.269252,-10.882341 -3.44863,-14.94406 3.601902,-2.145814 7.740257,-1.456088 11.265523,0.383181 4.4449,2.299086 6.820622,7.127167 7.28044,11.955248 0.459817,4.674809 -2.145814,8.659892 -5.594444,11.495431 -2.452358,2.069178 -5.287898,3.218721 -8.506619,3.218721 -4.138355,-0.0766 -6.130896,-6.360805 -1.915905,-7.970166 1.839269,-0.766362 4.828081,2.375723 1.685997,2.912176 -1.22618,0.07664 -0.689726,1.915905 0.459817,1.762633 z"
           id="path4665" />
        <path
           style="fill:#025c98;stroke-width:0.76636207"
           inkscape:connector-curvature="0"
           d="m 50.258603,44.569021 c -1.839269,0.919634 -2.299086,-3.065449 -4.368264,-1.839269 -2.22245,1.302815 -3.142084,2.452358 -4.981353,-0.383181 -0.766362,-1.149544 -1.302816,-2.375723 -1.762633,-3.678538 -1.685997,-4.674809 -1.915905,-9.426254 1.532724,-13.334701 3.525266,-3.985082 9.196345,-6.284169 14.484243,-5.747715 1.22618,0.153272 1.22618,-1.762633 0,-1.915905 -5.977624,-0.689726 -11.648703,2.145813 -15.787058,6.284169 -3.985083,3.985082 -3.755175,9.272981 -2.299087,14.330971 0.842999,2.988812 2.83554,8.123438 6.437442,8.429982 0.383181,0 1.072907,-0.229908 1.379452,-0.536453 0.536453,-0.689726 1.149543,-1.149543 1.992541,-1.379452 0.306545,0.383181 0.383181,0.919635 0.766362,1.22618 1.072907,1.072911 2.452359,0.766362 3.678538,0.153272 0.996271,-0.536453 0,-2.22245 -1.072907,-1.60936 z"
           id="path4667" />
        <path
           id="path4669"
           d="m 58.765222,30.927776 c 0,0 0.07664,-0.306545 0.229909,-0.689726 0.07664,-0.229909 0.229908,-0.459818 0.459817,-0.61309 0.229909,-0.229909 0.459817,-0.459817 0.766362,-0.536453 0.153273,-0.07664 0.383181,-0.07664 0.536454,-0.07664 0.229908,0 0.383181,0.07664 0.536453,0.153273 0.153272,0.07664 0.229909,0.229908 0.383181,0.306545 0.07664,0.07664 0.153273,0.229908 0.229909,0.383181 0.07664,0.229908 0.07664,0.383181 0.153272,0.536453 0,0.153273 0,0.229909 0,0.229909 0,0 -0.07664,-0.07664 -0.153272,-0.153273 -0.07664,-0.07664 -0.229909,-0.229908 -0.383181,-0.383181 -0.07664,-0.07664 -0.153273,-0.153272 -0.229909,-0.229908 -0.07664,-0.07664 -0.153272,-0.153273 -0.229909,-0.153273 -0.07664,-0.07664 -0.153272,0 -0.229908,0 -0.07664,0 -0.153273,0 -0.306545,0.07664 -0.229909,0.07664 -0.383181,0.229909 -0.61309,0.383182 -0.229908,0.153272 -0.383181,0.306544 -0.536453,0.383181 -0.383181,0.153272 -0.61309,0.383181 -0.61309,0.38318 z"
           inkscape:connector-curvature="0"
           style="fill:#025c98;stroke-width:0.76636207" />
        <path
           style="fill:none;stroke:#025c98;stroke-width:0.76636207;stroke-miterlimit:10"
           inkscape:connector-curvature="0"
           stroke-miterlimit="10"
           d="m 62.597033,43.879295 c 0,0 1.685996,1.302815 1.456088,2.299086"
           id="path4671" />
        <path
           id="path4673"
           d="m 65.662481,40.277393 c 0,0 0.229909,-0.07664 0.536453,0 0.306545,0 0.766362,0.153272 1.149544,0.383181 0.153272,0.153272 0.383181,0.229909 0.536453,0.459817 0.153272,0.153273 0.229909,0.383181 0.306545,0.536454 0.07664,0.153272 0.07664,0.383181 0,0.459817 0,0.07664 -0.07664,0.153272 -0.07664,0.153272 0,0 0,-0.07664 -0.07664,-0.153272 -0.07664,-0.07664 -0.153272,-0.153272 -0.229908,-0.229909 -0.229909,-0.153272 -0.536454,-0.383181 -0.842999,-0.536453 -0.306544,-0.229909 -0.689725,-0.459817 -0.919634,-0.61309 -0.229909,-0.306545 -0.383181,-0.459817 -0.383181,-0.459817 z"
           inkscape:connector-curvature="0"
           style="fill:#025c98;stroke-width:0.76636207" />
        <path
           id="path4675"
           d="m 67.731659,36.062402 c 0,0 0.229908,-0.153273 0.536453,-0.153273 0.306545,-0.07664 0.766362,-0.07664 1.226179,0.07664 0.229909,0.07664 0.459818,0.153273 0.61309,0.229909 0.153272,0.07664 0.383181,0.229909 0.459817,0.459817 0.07664,0.153273 0.153273,0.306545 0.153273,0.459817 0,0.07664 0,0.153273 0,0.153273 0,0 -0.07664,0 -0.153273,-0.07664 -0.07664,-0.07664 -0.153272,-0.07664 -0.306545,-0.153273 -0.229908,-0.07664 -0.613089,-0.153272 -0.99627,-0.306545 -0.383181,-0.07664 -0.766362,-0.229908 -1.072907,-0.306544 -0.306545,-0.229909 -0.459817,-0.383181 -0.459817,-0.383181 z"
           inkscape:connector-curvature="0"
           style="fill:#025c98;stroke-width:0.76636207" />
        <path
           id="path4677"
           d="m 62.060579,44.032567 c 0,0 0.229909,-0.07664 0.536454,0 0.306544,0 0.766362,0.153273 1.149543,0.383181 0.153272,0.153273 0.383181,0.229909 0.536453,0.459817 0.153273,0.153273 0.306545,0.383181 0.306545,0.536454 0.07664,0.153272 0.07664,0.383181 0,0.459817 0,0.07664 -0.07664,0.153273 -0.07664,0.153273 0,0 0,-0.07664 -0.07664,-0.153273 -0.07664,-0.07664 -0.153273,-0.153272 -0.229909,-0.229908 -0.229909,-0.153273 -0.536453,-0.383182 -0.842998,-0.536454 -0.306545,-0.229909 -0.689726,-0.459817 -0.919635,-0.61309 -0.153272,-0.229908 -0.383181,-0.459817 -0.383181,-0.459817 z"
           inkscape:connector-curvature="0"
           style="fill:#025c98;stroke-width:0.76636207" />
        <path
           id="path4679"
           d="m 34.854725,28.781962 c -3.142084,0.842998 2.145814,4.061719 0.229909,5.211262"
           stroke-miterlimit="10"
           inkscape:connector-curvature="0"
           style="fill:none;stroke:#3f341d;stroke-width:0.76636207;stroke-miterlimit:10" />
        <path
           id="path4681"
           d="m 34.54818,33.380134 c -0.613089,-1.60936 1.22618,-3.142084 0,-4.674808"
           stroke-miterlimit="10"
           inkscape:connector-curvature="0"
           style="fill:none;stroke:#3f341d;stroke-width:0.76636207;stroke-miterlimit:10" />
        <path
           id="path4683"
           d="m 34.701453,28.858598 c -2.069178,-0.766362 -0.61309,3.295357 -0.996271,3.985083"
           stroke-miterlimit="10"
           inkscape:connector-curvature="0"
           style="fill:none;stroke:#3f341d;stroke-width:0.76636207;stroke-miterlimit:10" />
        <path
           id="path4685"
           d="m 74.1691,28.245508 c -3.142085,0.842999 2.145814,4.061719 0.229909,5.211262"
           stroke-miterlimit="10"
           inkscape:connector-curvature="0"
           style="fill:none;stroke:#3f341d;stroke-width:0.76636207;stroke-miterlimit:10" />
        <path
           id="path4687"
           d="m 73.862555,32.843681 c -0.613089,-1.609361 1.22618,-3.142085 0,-4.674809"
           stroke-miterlimit="10"
           inkscape:connector-curvature="0"
           style="fill:none;stroke:#3f341d;stroke-width:0.76636207;stroke-miterlimit:10" />
        <path
           id="path4689"
           d="m 74.015828,28.322145 c -2.069178,-0.766363 -0.61309,3.295356 -0.996271,3.985082"
           stroke-miterlimit="10"
           inkscape:connector-curvature="0"
           style="fill:none;stroke:#3f341d;stroke-width:0.76636207;stroke-miterlimit:10" />
        <path
           id="path4691"
           d="m 37.920174,24.56697 c 0,0 22.914226,0.153273 31.574117,-0.383181 0,0 4.828081,0.61309 0,2.605631 0,0 -26.286219,1.149543 -31.574117,0.536454 -5.287899,-0.689726 -0.919635,-2.758904 0,-2.758904 z"
           inkscape:connector-curvature="0"
           style="fill:#4f4017;stroke-width:0.76636207" />
        <polygon
           id="polygon4693"
           points="32.8,25.6 32.1,26.2 32.2,27.2 31.4,26.7 30.6,27.2 30.7,26.2 30,25.6 31,25.4 31.4,24.6 31.8,25.4 "
           style="fill:#d6de23"
           transform="matrix(0.76636208,0,0,0.76636208,29.950008,6.0210083)" />
        <polygon
           id="polygon4695"
           points="38.7,25.6 38,26.2 38.2,27.2 37.4,26.7 36.5,27.2 36.7,26.2 36,25.6 36.9,25.4 37.4,24.6 37.8,25.4 "
           style="fill:#d6de23"
           transform="matrix(0.76636208,0,0,0.76636208,29.950008,6.0210083)" />
        <polygon
           id="polygon4697"
           points="26.8,25.6 26.1,26.2 26.3,27.2 25.4,26.7 24.6,27.2 24.8,26.2 24.1,25.6 25,25.4 25.4,24.6 25.9,25.4 "
           style="fill:#d6de23"
           transform="matrix(0.76636208,0,0,0.76636208,29.950008,6.0210083)" />
        <polygon
           id="polygon4699"
           points="21.2,25.6 20.5,26.2 20.7,27.2 19.8,26.7 19,27.2 19.1,26.2 18.5,25.6 19.4,25.4 19.8,24.6 20.2,25.4 "
           style="fill:#d6de23"
           transform="matrix(0.76636208,0,0,0.76636208,29.950008,6.0210083)" />
        <polygon
           id="polygon4701"
           points="44.3,25.2 43.7,25.9 43.8,26.8 43,26.4 42.1,26.8 42.3,25.9 41.6,25.2 42.6,25.1 43,24.2 43.4,25.1 "
           style="fill:#d6de23"
           transform="matrix(0.76636208,0,0,0.76636208,29.950008,6.0210083)" />
        <path
           id="path4703"
           d="M 34.318272,29.241779 C 54.396958,17.593075 74.245736,28.781962 74.245736,28.781962 74.245736,17.056622 64.896119,7.5537323 53.247415,7.5537323 42.824891,7.4770923 34.318272,17.286531 34.318272,29.395051"
           inkscape:connector-curvature="0"
           style="fill:#704c39;stroke-width:0.76636207" />
        <path
           id="path4705"
           d="m 44.05107,19.585617 v 0 l -0.306545,0.229908 -0.229908,0.153273 h -0.07664 l -0.153273,0.07664 h -0.07664 -0.07664 -0.07664 l -0.07664,-0.07664 h -0.07664 l -0.229908,-0.07664 h -0.07664 l -0.229908,-0.07664 h -0.07664 l -0.07664,-0.153272 h -0.07664 v 0 h -0.07664 l -0.153273,0.07664 h -0.07664 v 0.07664 0.07664 l 0.153273,0.229908 0.07664,0.07664 0.153272,0.229909 0.07664,0.07664 0.07664,0.07664 v 0.07664 0.07664 0.07664 0 0 H 42.2884 l -0.153272,0.07664 -0.153272,0.153273 h -0.07664 l -0.153272,0.07664 h -0.07664 v 0 0 -0.07664 -0.07664 l -0.229909,-0.153273 v -0.07664 l -0.07664,-0.153272 v -0.07664 l -0.153272,-0.153272 -0.07664,-0.07664 -0.153272,-0.153273 v -0.07664 L 40.83235,19.815525 v -0.07664 l -0.153273,-0.153272 v -0.07664 l -0.07664,-0.229909 v -0.07664 l -0.229909,-0.153273 v -0.07664 L 40.21926,18.742619 v -0.07664 l -0.07664,-0.153272 v -0.07664 0 -0.07664 -0.07664 0 0 l 0.07664,-0.07664 0.153272,-0.07664 0.459818,-0.229909 0.229908,-0.153272 h 0.07664 l 0.229909,-0.153273 0.153272,-0.07664 h 0.07664 0.07664 0.07664 0.07664 0.07664 0.07664 0.07664 0.07664 0.07664 0.07664 0.07664 0.07664 l 0.07664,0.07664 h 0.07664 l 0.07664,0.07664 h 0.07664 l 0.07664,0.07664 0.07664,0.07664 0.07664,0.07664 0.07664,0.07664 0.07664,0.07664 v 0.07664 0.07664 0.07664 0.07664 0.07664 0.07664 0.07664 0.07664 0.07664 0.07664 0.07664 0.07664 0.07664 l -0.07664,0.07664 v 0.07664 0.07664 L 42.82497,19.049224 v 0 0 l 0.229909,0.07664 h 0.07664 l 0.229908,0.07664 h 0.07664 l 0.229908,0.07664 h 0.07664 l 0.229909,0.07664 z m -1.992541,-0.689726 v 0 l 0.07664,-0.07664 v -0.07664 -0.07664 -0.07664 -0.07664 -0.07664 l -0.07664,-0.07664 v -0.07664 0 l -0.07664,-0.07664 h -0.07664 -0.07664 -0.07664 -0.07664 -0.07664 l -0.153273,0.153272 h -0.07664 l -0.153272,0.153273 h -0.07664 v 0 0 0.07664 l 0.07664,0.07664 0.07664,0.07664 0.07664,0.07664 0.07664,0.07664 0.153273,0.229909 v 0 0 0 h 0.07664 l 0.229908,-0.07664 h 0.07664 z"
           inkscape:connector-curvature="0"
           style="fill:#d6de23;stroke-width:0.76636207" />
        <path
           id="path4707"
           d="m 47.269791,18.052893 v 0 0.07664 0 h -0.07664 -0.07664 -0.07664 -0.07664 l -0.153272,0.07664 -0.229909,0.153272 h -0.07664 v 0 0 L 46.27352,18.052893 H 46.19688 46.12024 46.0436 l -0.229909,0.229908 h -0.07664 l -0.306545,0.153273 -0.229909,0.07664 h -0.07664 -0.07664 l -0.153272,0.07664 h -0.07664 v 0 0.07664 0.306545 0.07664 0.07664 l -0.07664,0.07664 h -0.07664 l -0.153272,0.153272 h -0.07664 l -0.229908,0.153273 h -0.07664 -0.07664 -0.07664 v -0.07664 0 -0.07664 -0.153272 -0.07664 -0.229909 -0.07664 -0.229909 -0.07664 -0.229909 -0.07664 -0.229909 -0.07664 -0.383181 -0.306545 -0.07664 -0.229908 -0.07664 -0.229908 -0.07664 -0.229908 -0.07664 -0.07664 h 0.07664 l 0.153273,-0.07664 0.306545,-0.153272 0.153272,-0.07664 h 0.07664 0.07664 l 0.07664,0.07664 0.153272,0.153272 0.07664,0.07664 0.153273,0.153273 0.07664,0.07664 0.153272,0.153272 0.07664,0.07664 0.153273,0.153272 0.07664,0.07664 0.153272,0.153273 0.07664,0.07664 0.153272,0.153272 0.07664,0.07664 0.153273,0.153272 0.07664,0.07664 0.229909,0.229909 0.153272,0.153272 0.07664,0.07664 0.229909,0.229909 z m -1.762633,-0.536454 v 0 l -0.229908,-0.306545 -0.07664,-0.07664 -0.153272,-0.229908 -0.07664,-0.07664 h -0.07664 -0.07664 v 0 0.07664 0.306544 0.07664 0.306544 0.07664 0.07664 h 0.07664 0.07664 l 0.229908,-0.07664 0.153273,-0.07664 h 0.07664 z"
           inkscape:connector-curvature="0"
           style="fill:#d6de23;stroke-width:0.76636207" />
        <path
           id="path4709"
           d="m 49.875422,15.523898 v 0 0.153272 0.07664 0.07664 0.07664 0.07664 0.07664 0.07664 0.07664 l -0.07664,0.07664 v 0.07664 l -0.07664,0.07664 -0.07664,0.07664 -0.07664,0.07664 -0.07664,0.07664 -0.07664,0.07664 -0.07664,0.07664 0.07664,-0.07664 h -0.07664 l -0.07664,0.07664 h -0.07664 -0.07664 -0.07664 -0.07664 l -0.383181,0.07664 h -0.07664 -0.07664 -0.07664 -0.07664 v 0 0.07664 l 0.07664,0.306545 v 0.07664 0.153272 0.07664 0.07664 0.07664 0 0 h -0.07664 l 0.07664,0.229908 h -0.153272 -0.07664 l -0.153272,0.07664 h -0.07664 -0.07664 -0.07664 v 0 -0.07664 -0.07664 -0.07664 l -0.07664,-0.459817 v -0.229909 -0.07664 l -0.07664,-0.229909 v -0.07664 l -0.153273,-0.536453 v -0.07664 l -0.07664,-0.229908 v -0.07664 l -0.07664,-0.229909 v -0.07664 -0.229909 -0.07664 l -0.07664,-0.153272 v -0.07664 0 -0.07664 0 0 h 0.07664 0.153272 0.07664 0.07664 l 0.306545,-0.07664 0.306545,-0.07664 0.306544,-0.07664 0.306545,-0.07664 0.153273,-0.07664 h 0.07664 v 0 h 0.07664 0.07664 0.07664 0.07664 0.07664 0.07664 0.07664 l 0.07664,0.07664 h 0.07664 v 0 l 0.07664,0.07664 0.07664,0.07664 v 0 l 0.07664,0.07664 v 0 0.07664 0.07664 0.07664 0 0.07664 0 0.07664 z m -1.149543,0.689726 v 0 l 0.153272,-0.07664 v 0 l 0.07664,-0.07664 v 0 -0.07664 0 -0.07664 0 -0.07664 0 -0.07664 -0.07664 0 -0.07664 0 l -0.07664,-0.07664 h -0.07664 -0.07664 -0.153272 -0.07664 -0.07664 -0.07664 -0.153272 -0.07664 v 0 h -0.07664 v 0 0 0.07664 0.07664 l 0.07664,0.153273 v 0.07664 l 0.07664,0.229908 v 0.07664 0 h 0.07664 0.229908 z"
           inkscape:connector-curvature="0"
           style="fill:#d6de23;stroke-width:0.76636207" />
        <path
           id="path4711"
           d="m 53.630596,16.979986 v 0 0.07664 h -0.07664 -0.07664 -0.07664 -0.07664 -0.07664 -0.153272 l -0.229909,0.07664 h -0.07664 v 0 -0.07664 l -0.229909,-0.306545 v -0.07664 h -0.07664 -0.07664 -0.229909 -0.07664 -0.306545 -0.229908 -0.07664 l -0.07664,0.07664 h -0.229908 -0.07664 v 0 0.07664 l -0.07664,0.306545 v 0.07664 l -0.07664,0.07664 h -0.07664 -0.07664 -0.229909 -0.07664 l -0.229909,0.07664 h -0.07664 -0.07664 l -0.07664,-0.07664 v -0.07664 0 -0.07664 l 0.07664,-0.153272 v -0.07664 l 0.07664,-0.229909 v -0.07664 l 0.07664,-0.229909 v -0.07664 l 0.07664,-0.229909 v -0.07664 l 0.07664,-0.229909 v -0.07664 l 0.153272,-0.383181 0.07664,-0.306545 v -0.07664 l 0.07664,-0.229908 v -0.07664 l 0.07664,-0.229908 v -0.07664 l 0.07664,-0.153272 v -0.07664 h 0.07664 0.07664 0.229909 0.306545 0.229908 0.07664 0.07664 v 0.07664 l 0.07664,0.153272 v 0.07664 l 0.153272,0.153272 v 0.07664 l 0.153273,0.229909 v 0.07664 l 0.07664,0.229909 v 0.07664 l 0.153272,0.229909 v 0.07664 l 0.153273,0.229908 v 0.07664 l 0.07664,0.229908 v 0.07664 l 0.153272,0.229909 0.153273,0.153272 v 0.07664 l 0.153272,0.229908 z m -1.532724,-1.072907 v 0 L 51.9446,15.600534 v -0.07664 l -0.153273,-0.306545 v -0.07664 h -0.07664 -0.07664 -0.07664 v 0.07664 l -0.07664,0.306545 v 0.07664 l -0.07664,0.306545 v 0.07664 0.07664 h 0.07664 0.07664 0.306544 0.229909 0.07664 z"
           inkscape:connector-curvature="0"
           style="fill:#d6de23;stroke-width:0.76636207" />
        <path
           id="path4713"
           d="m 57.002589,15.753806 v 0 0.153273 0.07664 0.07664 0.07664 0.07664 0.07664 0.07664 0.07664 l -0.229908,0.07664 v 0.07664 l -0.07664,0.07664 -0.07664,0.07664 h -0.07664 l -0.07664,0.07664 -0.07664,0.07664 -0.07664,0.07664 h -0.07664 l -0.07664,0.07664 h -0.07664 -0.07664 -0.07664 -0.07664 -0.07664 -0.229909 -0.07664 -0.07664 -0.07664 -0.153273 -0.07664 -0.07664 -0.153272 -0.07664 -0.07664 -0.07664 -0.306545 -0.07664 -0.153272 v 0 0 -0.07664 -0.07664 0 -0.153273 -0.07664 -0.07664 -0.07664 -0.07664 -0.07664 -0.229909 -0.07664 -0.229908 -0.07664 -0.07664 -0.07664 -0.07664 -0.07664 -0.07664 -0.07664 -0.07664 0 -0.229909 -0.07664 -0.229908 -0.07664 -0.229908 -0.153273 -0.07664 -0.07664 -0.07664 0 h 0.07664 0.07664 0.07664 0.07664 0.383181 0.07664 0.229908 v 0 h 0.07664 0.153273 0.07664 0.07664 0.07664 0.153273 0.07664 0.07664 0.07664 0.07664 l 0.153272,0.07664 h 0.07664 0.07664 l 0.07664,0.07664 0.153272,0.07664 0.07664,0.07664 0.07664,0.07664 0.07664,0.07664 0.07664,0.07664 v 0.07664 0.07664 l 0.07664,0.07664 v 0.07664 0.07664 0.07664 0.07664 0.07664 0.07664 0.07664 0.07664 0.07664 0.07664 0.229908 z m -0.99627,0.306545 v 0 l 0.07664,-0.153272 v -0.07664 -0.07664 -0.07664 -0.07664 -0.153272 -0.07664 -0.07664 -0.07664 0 -0.07664 l -0.07664,-0.07664 v 0 -0.07664 l -0.07664,-0.07664 -0.07664,-0.07664 -0.07664,-0.07664 h -0.07664 -0.07664 -0.07664 -0.07664 -0.07664 -0.07664 -0.07664 -0.07664 -0.07664 -0.07664 v 0 0.07664 0 0.07664 0.153273 0.07664 0.07664 0.07664 0.07664 0.07664 0.07664 0.229908 0.07664 0.07664 0.07664 0.07664 0.07664 0.07664 0.07664 0.07664 0 h 0.07664 0.383181 0.07664 0.07664 0.07664 0.07664 0.07664 0.07664 l 0.07664,-0.07664 0.07664,-0.07664 z"
           inkscape:connector-curvature="0"
           style="fill:#d6de23;stroke-width:0.76636207" />
        <path
           id="path4715"
           d="m 60.374583,16.443532 v 0.153273 0.07664 0.07664 0.07664 l -0.07664,0.07664 v 0.07664 0.07664 0.07664 l -0.07664,0.07664 v 0.07664 l -0.07664,0.07664 -0.07664,0.07664 -0.07664,0.07664 H 59.83811 v 0 h -0.07664 l -0.07664,0.07664 h -0.07664 -0.07664 -0.07664 -0.07664 -0.07664 -0.07664 -0.07664 -0.07664 -0.07664 -0.153273 l -0.229908,-0.07664 h -0.07664 -0.07664 -0.229908 -0.07664 v 0 h -0.07664 v 0 l -0.07664,-0.07664 -0.07664,-0.07664 -0.07664,-0.07664 -0.07664,-0.07664 -0.07664,-0.153272 v -0.07664 l -0.07664,-0.07664 v -0.07664 l -0.07664,-0.07664 v -0.07664 -0.07664 -0.07664 -0.07664 -0.07664 -0.07664 -0.07664 -0.07664 -0.07664 -0.153272 -0.07664 l 0.07664,-0.229909 v -0.07664 l 0.07664,-0.229909 v -0.07664 l 0.07664,-0.229909 0.07664,-0.383181 v -0.153272 -0.07664 -0.07664 -0.07664 0 h 0.07664 0.153272 l 0.153273,0.07664 h 0.07664 0.153272 0.07664 0.07664 0.07664 v 0.07664 0.07664 0.07664 0.07664 l -0.07664,0.153273 v 0.07664 l -0.07664,0.229909 v 0.07664 l -0.07664,0.229908 v 0.07664 l -0.07664,0.229908 v 0.07664 l -0.07664,0.229909 v 0.07664 0.07664 0.07664 0.07664 0.07664 0.07664 0.07664 l 0.07664,0.07664 0.07664,0.07664 0.07664,0.07664 h 0.07664 0.07664 0.07664 0.07664 0.07664 0.07664 0.07664 l 0.07664,-0.07664 0.07664,-0.07664 0.07664,-0.07664 0.07664,-0.07664 v -0.07664 -0.07664 l 0.07664,-0.153273 v -0.07664 l 0.07664,-0.229908 v -0.07664 l 0.07664,-0.229908 v -0.07664 l 0.07664,-0.229909 v -0.07664 l 0.07664,-0.229909 v -0.07664 -0.153272 -0.07664 -0.07664 h 0.07664 0.07664 0.07664 l 0.229908,0.07664 h 0.07664 0.153273 0.07664 0.07664 0.07664 v 0 0.07664 0.153272 0.07664 0.07664 0.07664 l -0.07664,0.536453 v 0.07664 l -0.07664,0.229909 v 0.07664 l -0.07664,0.229909 z"
           inkscape:connector-curvature="0"
           style="fill:#d6de23;stroke-width:0.76636207" />
        <path
           id="path4717"
           d="m 63.210122,19.049163 v 0 l -0.306545,-0.153272 -0.229908,-0.07664 h -0.07664 l -0.153273,-0.07664 h -0.07664 v 0 -0.07664 l -0.07664,-0.229908 v -0.07664 l -0.153273,-0.229908 v -0.07664 -0.229909 -0.07664 l -0.07664,-0.229909 v -0.07664 0 h -0.07664 l -0.153272,-0.07664 h -0.07664 -0.07664 v 0.07664 l -0.07664,0.229909 v 0.07664 l -0.07664,0.229908 v 0.07664 0.07664 0.07664 0.07664 0.07664 0 h -0.07664 -0.07664 l -0.153272,-0.07664 -0.153273,-0.07664 h -0.07664 l -0.383181,-0.153272 h -0.07664 v 0 -0.07664 -0.07664 -0.07664 l 0.07664,-0.07664 v -0.07664 l 0.07664,-0.229909 v -0.07664 l 0.07664,-0.229909 v -0.07664 l 0.07664,-0.229909 v -0.07664 l 0.07664,-0.229909 v -0.07664 l 0.07664,-0.229908 v -0.07664 l 0.07664,-0.229908 v -0.07664 l 0.07664,-0.229909 v -0.07664 l 0.07664,-0.229909 v -0.07664 l 0.07664,-0.153272 v -0.07664 0 -0.07664 0 h 0.07664 v 0 h 0.07664 l 0.153273,0.07664 0.459817,0.229909 0.306545,0.07664 h 0.07664 l 0.229909,0.153273 0.153272,0.07664 h 0.07664 0.07664 l 0.07664,0.07664 0.07664,0.07664 0.07664,0.07664 0.07664,0.07664 0.07664,0.07664 0.07664,0.07664 0.07664,0.07664 v 0.07664 0.07664 0.07664 0.07664 0.07664 0.07664 0.07664 0.07664 0.07664 0.07664 0.07664 0.07664 0.07664 0.07664 0.07664 l 0.153273,0.153273 v 0 l -0.07664,0.07664 v 0.07664 h -0.07664 l -0.07664,0.07664 h -0.07664 -0.07664 l -0.07664,0.07664 h -0.07664 -0.07664 -0.07664 -0.07664 -0.07664 v 0 0 l 0.07664,0.229908 v 0.07664 l 0.07664,0.229909 v 0.07664 l 0.07664,0.229909 v 0.07664 l 0.07664,0.229909 v 0.07664 z m -0.613089,-1.992541 h 0.07664 0.07664 0.07664 0.07664 l 0.07664,-0.07664 0.07664,-0.07664 v -0.07664 -0.07664 -0.07664 -0.07664 -0.07664 -0.07664 -0.07664 H 62.9036 l -0.07664,-0.07664 h -0.07664 l -0.229909,-0.07664 h -0.07664 l -0.229908,-0.07664 h -0.07664 v 0 0 0.07664 0.07664 0.07664 0.07664 0.07664 l -0.07664,0.229909 v 0.07664 0 0 h 0.07664 l 0.229909,0.07664 h 0.07664 z"
           inkscape:connector-curvature="0"
           style="fill:#d6de23;stroke-width:0.76636207" />
        <path
           id="path4719"
           d="m 66.352207,20.73516 v 0 l -0.07664,0.07664 h -0.07664 -0.07664 -0.07664 l -0.07664,-0.07664 h -0.07664 l -0.153273,-0.07664 -0.229908,-0.153273 -0.07664,-0.07664 v -0.07664 -0.07664 l 0.07664,-0.383181 v -0.07664 0 h -0.07664 l -0.229908,-0.153272 h -0.07664 l -0.306544,-0.153272 -0.229909,-0.153273 h -0.07664 -0.07664 l -0.153273,-0.07664 h -0.07664 -0.07664 -0.07664 l -0.229909,0.229909 -0.07664,0.07664 h -0.07664 -0.07664 -0.07664 l 0.153273,-0.306545 h -0.07664 L 63.363395,19.1258 h -0.07664 v -0.07664 -0.07664 -0.07664 0 l 0.07664,-0.07664 0.153272,-0.07664 0.07664,-0.07664 0.229909,-0.153272 0.07664,-0.07664 0.229909,-0.153273 0.07664,-0.07664 0.229909,-0.153272 0.07664,-0.07664 0.229908,-0.153272 0.07664,-0.07664 0.306544,-0.229909 0.229909,-0.153272 -0.153272,0.153272 0.153272,-0.153272 0.07664,-0.07664 0.153273,-0.153273 0.07664,-0.07664 0.153272,-0.07664 h 0.07664 0.07664 0.07664 l 0.153272,0.07664 0.306545,0.153272 0.153273,0.07664 0.07664,0.07664 v 0.07664 0.07664 0.153273 0.07664 0.229908 0.07664 0.229908 0.07664 l -0.07664,0.229909 v 0.07664 0.229909 0.07664 0.229909 0.07664 0.229909 0.07664 0.306545 0.229908 0.07664 0.306545 z m -0.61309,-1.762633 v 0 l 0.07664,-0.383181 v -0.07664 l 0.07664,-0.229909 v -0.07664 -0.07664 l -0.07664,-0.07664 h -0.07664 -0.07664 l -0.229909,0.229908 -0.07664,0.07664 -0.153272,0.153273 -0.07664,0.07664 v 0.07664 0.07664 h 0.07664 l 0.229908,0.153272 0.153273,0.07664 h 0.07664 z"
           inkscape:connector-curvature="0"
           style="fill:#d6de23;stroke-width:0.76636207" />
      </g>
      <flowRoot
         transform="matrix(0.33220924,0,0,0.33220924,-48.587509,-248.05556)"
         style="font-style:normal;font-weight:normal;font-size:40px;line-height:1.25;font-family:sans-serif;letter-spacing:0px;word-spacing:0px;fill:#025c98;fill-opacity:1;stroke:none"
         id="flowRoot4729"
         xml:space="preserve"><flowRegion
           id="flowRegion4725"
           style="fill:#025c98;fill-opacity:1"><rect
             y="470.37683"
             x="37.857143"
             height="138.57143"
             width="594.28571"
             id="rect4723"
             style="fill:#025c98;fill-opacity:1" /></flowRegion><flowPara
           style="font-style:normal;font-variant:normal;font-weight:normal;font-stretch:normal;font-family:'Handel Gothic Italic';-inkscape-font-specification:'Handel Gothic Italic, ';fill:#025c98;fill-opacity:1"
           id="flowPara4727">PHP</flowPara></flowRoot>      <flowRoot
         xml:space="preserve"
         id="flowRoot4737"
         style="font-style:normal;font-weight:normal;font-size:40px;line-height:1.25;font-family:sans-serif;letter-spacing:0px;word-spacing:0px;fill:#666666;fill-opacity:1;stroke:none"
         transform="matrix(0.33220924,0,0,0.33220924,-79.96443,-247.52605)"><flowRegion
           id="flowRegion4733"
           style="fill:#666666"><rect
             id="rect4731"
             width="594.28571"
             height="138.57143"
             x="37.857143"
             y="470.37683"
             style="fill:#666666" /></flowRegion><flowPara
           id="flowPara4735"
           style="font-style:normal;font-variant:normal;font-weight:normal;font-stretch:normal;font-family:Ananda;-inkscape-font-specification:Ananda;fill:#666666">meetu</flowPara></flowRoot>      <g
         id="g4755"
         transform="matrix(1.1747368,0,0,1.1747368,11.460059,13.370842)">
        <flowRoot
           transform="matrix(0.17356149,0,0,0.17356149,-56.44342,-159.31202)"
           style="font-style:normal;font-weight:normal;font-size:40px;line-height:1.25;font-family:sans-serif;letter-spacing:0px;word-spacing:0px;fill:#025c98;fill-opacity:1;stroke:none"
           id="flowRoot4745"
           xml:space="preserve"><flowRegion
             id="flowRegion4741"
             style="fill:#025c98;fill-opacity:1"><rect
               y="470.37683"
               x="37.857143"
               height="138.57143"
               width="594.28571"
               id="rect4739"
               style="fill:#025c98;fill-opacity:1" /></flowRegion><flowPara
             style="font-style:normal;font-variant:normal;font-weight:normal;font-stretch:normal;font-family:Comfortaa;-inkscape-font-specification:Comfortaa;fill:#025c98;fill-opacity:1"
             id="flowPara4743">Rapadura</flowPara></flowRoot>        <flowRoot
           xml:space="preserve"
           id="flowRoot4753"
           style="font-style:normal;font-weight:normal;font-size:40px;line-height:1.25;font-family:sans-serif;letter-spacing:0px;word-spacing:0px;fill:#666666;fill-opacity:1;stroke:none"
           transform="matrix(0.17356149,0,0,0.17356149,-74.235747,-159.31202)"><flowRegion
             style="fill:#666666;fill-opacity:1"
             id="flowRegion4749"><rect
               style="fill:#666666;fill-opacity:1"
               id="rect4747"
               width="594.28571"
               height="138.57143"
               x="37.857143"
               y="470.37683" /></flowRegion><flowPara
             id="flowPara4751"
             style="font-style:normal;font-variant:normal;font-weight:normal;font-stretch:normal;font-family:Comfortaa;-inkscape-font-specification:Comfortaa;fill:#666666;fill-opacity:1">com</flowPara></flowRoot>      </g>
    </g>
  </g>
</svg>
