<?xml version="1.0" encoding="UTF-8" standalone="no"?>
<!-- Generator: Adobe Illustrator 17.0.0, SVG Export Plug-In . SVG Version: 6.00 Build 0)  -->

<svg
   xmlns:dc="http://purl.org/dc/elements/1.1/"
   xmlns:cc="http://creativecommons.org/ns#"
   xmlns:rdf="http://www.w3.org/1999/02/22-rdf-syntax-ns#"
   xmlns:svg="http://www.w3.org/2000/svg"
   xmlns="http://www.w3.org/2000/svg"
   xmlns:sodipodi="http://sodipodi.sourceforge.net/DTD/sodipodi-0.dtd"
   xmlns:inkscape="http://www.inkscape.org/namespaces/inkscape"
   version="1.1"
   id="Camada_1"
   x="0px"
   y="0px"
   width="200px"
   height="60px"
   viewBox="0 0 200 60"
   enable-background="new 0 0 200 60"
   xml:space="preserve"
   inkscape:version="0.48.5 r10040"
   sodipodi:docname="PHPcomRapadura.svg"><metadata
     id="metadata7937"><rdf:RDF><cc:Work
         rdf:about=""><dc:format>image/svg+xml</dc:format><dc:type
           rdf:resource="http://purl.org/dc/dcmitype/StillImage" /><dc:title></dc:title></cc:Work></rdf:RDF></metadata><defs
     id="defs7935" /><sodipodi:namedview
     pagecolor="#ffffff"
     bordercolor="#666666"
     borderopacity="1"
     objecttolerance="10"
     gridtolerance="10"
     guidetolerance="10"
     inkscape:pageopacity="0"
     inkscape:pageshadow="2"
     inkscape:window-width="1366"
     inkscape:window-height="702"
     id="namedview7933"
     showgrid="false"
     inkscape:zoom="2.8284271"
     inkscape:cx="48.375946"
     inkscape:cy="-14.569088"
     inkscape:window-x="0"
     inkscape:window-y="27"
     inkscape:window-maximized="1"
     inkscape:current-layer="Camada_1" /><g
     id="g7823"><g
       id="g7825"><path
         fill="#025C98"
         d="M34.1,50.5c5.6-0.9,4.5-6.3,0.1-8.3c-6-2.7-10.6,6.7-7.6,11.3c3.8,5.8,12,4,17,1    c6.8-4,11.3-10.9,11.1-18.9c-0.3-12.1-12-22.6-24-19.8C16.6,19,17.9,39,31.8,41.4c1.6,0.3,2.3-2.1,0.7-2.4    c-9.4-1.6-13.4-14.2-4.5-19.5c4.7-2.8,10.1-1.9,14.7,0.5c5.8,3,8.9,9.3,9.5,15.6c0.6,6.1-2.8,11.3-7.3,15    c-3.2,2.7-6.9,4.2-11.1,4.2c-5.4-0.1-8-8.3-2.5-10.4c2.4-1,6.3,3.1,2.2,3.8C31.9,48.3,32.6,50.7,34.1,50.5L34.1,50.5z"
         id="path7827" /></g></g><g
     id="g7829"><g
       id="g7831"><path
         fill="#025C98"
         d="M26.5,50.3c-2.4,1.2-3-4-5.7-2.4c-2.9,1.7-4.1,3.2-6.5-0.5c-1-1.5-1.7-3.1-2.3-4.8    c-2.2-6.1-2.5-12.3,2-17.4c4.6-5.2,12-8.2,18.9-7.5c1.6,0.2,1.6-2.3,0-2.5c-7.8-0.9-15.2,2.8-20.6,8.2c-5.2,5.2-4.9,12.1-3,18.7    c1.1,3.9,3.7,10.6,8.4,11c0.5,0,1.4-0.3,1.8-0.7c0.7-0.9,1.5-1.5,2.6-1.8c0.4,0.5,0.5,1.2,1,1.6c1.4,1.4,3.2,1,4.8,0.2    C29.2,51.7,27.9,49.5,26.5,50.3L26.5,50.3z"
         id="path7833" /></g></g><g
     id="g7835"><path
       fill="#025C98"
       d="M37.6,32.5c0,0,0.1-0.4,0.3-0.9c0.1-0.3,0.3-0.6,0.6-0.8c0.3-0.3,0.6-0.6,1-0.7c0.2-0.1,0.5-0.1,0.7-0.1   c0.3,0,0.5,0.1,0.7,0.2c0.2,0.1,0.3,0.3,0.5,0.4c0.1,0.1,0.2,0.3,0.3,0.5c0.1,0.3,0.1,0.5,0.2,0.7c0,0.2,0,0.3,0,0.3   s-0.1-0.1-0.2-0.2c-0.1-0.1-0.3-0.3-0.5-0.5c-0.1-0.1-0.2-0.2-0.3-0.3c-0.1-0.1-0.2-0.2-0.3-0.2c-0.1-0.1-0.2,0-0.3,0   c-0.1,0-0.2,0-0.4,0.1c-0.3,0.1-0.5,0.3-0.8,0.5c-0.3,0.2-0.5,0.4-0.7,0.5C37.9,32.2,37.6,32.5,37.6,32.5z"
       id="path7837" /></g><path
     fill="none"
     stroke="#025C98"
     stroke-miterlimit="10"
     d="M42.6,49.4c0,0,2.2,1.7,1.9,3"
     id="path7839" /><g
     id="g7841"><path
       fill="#025C98"
       d="M46.6,44.7c0,0,0.3-0.1,0.7,0c0.4,0,1,0.2,1.5,0.5c0.2,0.2,0.5,0.3,0.7,0.6c0.2,0.2,0.3,0.5,0.4,0.7   c0.1,0.2,0.1,0.5,0,0.6c0,0.1-0.1,0.2-0.1,0.2s0-0.1-0.1-0.2c-0.1-0.1-0.2-0.2-0.3-0.3c-0.3-0.2-0.7-0.5-1.1-0.7   c-0.4-0.3-0.9-0.6-1.2-0.8C46.8,44.9,46.6,44.7,46.6,44.7z"
       id="path7843" /></g><g
     id="g7845"><path
       fill="#025C98"
       d="M49.3,39.2c0,0,0.3-0.2,0.7-0.2c0.4-0.1,1-0.1,1.6,0.1c0.3,0.1,0.6,0.2,0.8,0.3c0.2,0.1,0.5,0.3,0.6,0.6   c0.1,0.2,0.2,0.4,0.2,0.6c0,0.1,0,0.2,0,0.2s-0.1,0-0.2-0.1c-0.1-0.1-0.2-0.1-0.4-0.2c-0.3-0.1-0.8-0.2-1.3-0.4   c-0.5-0.1-1-0.3-1.4-0.4C49.5,39.4,49.3,39.2,49.3,39.2z"
       id="path7847" /></g><g
     id="g7849"><path
       fill="#025C98"
       d="M41.9,49.6c0,0,0.3-0.1,0.7,0c0.4,0,1,0.2,1.5,0.5c0.2,0.2,0.5,0.3,0.7,0.6c0.2,0.2,0.4,0.5,0.4,0.7   c0.1,0.2,0.1,0.5,0,0.6c0,0.1-0.1,0.2-0.1,0.2s0-0.1-0.1-0.2c-0.1-0.1-0.2-0.2-0.3-0.3c-0.3-0.2-0.7-0.5-1.1-0.7   c-0.4-0.3-0.9-0.6-1.2-0.8C42.2,49.9,41.9,49.6,41.9,49.6z"
       id="path7851" /></g><g
     id="g7853"><path
       fill="none"
       stroke="#3F341D"
       stroke-miterlimit="10"
       d="M6.4,29.7c-4.1,1.1,2.8,5.3,0.3,6.8"
       id="path7855" /><path
       fill="none"
       stroke="#3F341D"
       stroke-miterlimit="10"
       d="M6,35.7c-0.8-2.1,1.6-4.1,0-6.1"
       id="path7857" /><path
       fill="none"
       stroke="#3F341D"
       stroke-miterlimit="10"
       d="M6.2,29.8c-2.7-1-0.8,4.3-1.3,5.2"
       id="path7859" /><path
       fill="none"
       stroke="#3F341D"
       stroke-miterlimit="10"
       d="M57.7,29c-4.1,1.1,2.8,5.3,0.3,6.8"
       id="path7861" /><path
       fill="none"
       stroke="#3F341D"
       stroke-miterlimit="10"
       d="M57.3,35c-0.8-2.1,1.6-4.1,0-6.1"
       id="path7863" /><path
       fill="none"
       stroke="#3F341D"
       stroke-miterlimit="10"
       d="M57.5,29.1c-2.7-1-0.8,4.3-1.3,5.2"
       id="path7865" /><path
       fill="#4F4017"
       d="M10.4,24.2c0,0,29.9,0.2,41.2-0.5c0,0,6.3,0.8,0,3.4c0,0-34.3,1.5-41.2,0.7C3.5,26.9,9.2,24.2,10.4,24.2z"
       id="path7867" /><polygon
       fill="#D6DE23"
       points="31.4,24.6 31.8,25.4 32.8,25.6 32.1,26.2 32.2,27.2 31.4,26.7 30.6,27.2 30.7,26.2 30,25.6    31,25.4  "
       id="polygon7869" /><polygon
       fill="#D6DE23"
       points="37.4,24.6 37.8,25.4 38.7,25.6 38,26.2 38.2,27.2 37.4,26.7 36.5,27.2 36.7,26.2 36,25.6    36.9,25.4  "
       id="polygon7871" /><polygon
       fill="#D6DE23"
       points="25.4,24.6 25.9,25.4 26.8,25.6 26.1,26.2 26.3,27.2 25.4,26.7 24.6,27.2 24.8,26.2 24.1,25.6    25,25.4  "
       id="polygon7873" /><polygon
       fill="#D6DE23"
       points="19.8,24.6 20.2,25.4 21.2,25.6 20.5,26.2 20.7,27.2 19.8,26.7 19,27.2 19.1,26.2 18.5,25.6    19.4,25.4  "
       id="polygon7875" /><polygon
       fill="#D6DE23"
       points="43,24.2 43.4,25.1 44.3,25.2 43.7,25.9 43.8,26.8 43,26.4 42.1,26.8 42.3,25.9 41.6,25.2    42.6,25.1  "
       id="polygon7877" /><path
       fill="#704C39"
       d="M5.7,30.3c26.2-15.2,52.1-0.6,52.1-0.6c0-15.3-12.2-27.7-27.4-27.7C16.8,1.9,5.7,14.7,5.7,30.5"
       id="path7879" /></g><g
     id="g7881"><path
       fill="#D6DE23"
       d="M18.4,17.7L18.4,17.7L18,18l-0.3,0.2l-0.1,0l-0.2,0.1l-0.1,0l-0.1,0l-0.1,0L17,18.2l-0.1,0l-0.3-0.1l-0.1,0   l-0.3-0.1l-0.1,0L16,17.8l-0.1,0l0,0l-0.1,0l-0.2,0.1l-0.1,0l0,0.1l0,0.1l0.2,0.3l0.1,0.1l0.2,0.3l0.1,0.1l0.1,0.1l0,0.1l0,0.1   l0,0.1l0,0l0,0l-0.1,0l-0.2,0.1l-0.2,0.2l-0.1,0l-0.2,0.1l-0.1,0l0,0l0,0l0-0.1l0-0.1L15,19.3l0-0.1L14.9,19l0-0.1l-0.2-0.2   l-0.1-0.1l-0.2-0.2l0-0.1L14.2,18l0-0.1L14,17.7l0-0.1l-0.1-0.3l0-0.1L13.6,17l0-0.1l-0.2-0.3l0-0.1l-0.1-0.2l0-0.1l0,0l0-0.1   l0-0.1l0,0l0,0l0.1-0.1l0.2-0.1l0.6-0.3l0.3-0.2l0.1,0l0.3-0.2l0.2-0.1l0.1,0l0.1,0l0.1,0l0.1,0l0.1,0l0.1,0l0.1,0l0.1,0l0.1,0   l0.1,0l0.1,0l0.1,0l0.1,0.1l0.1,0l0.1,0.1l0.1,0l0.1,0.1l0.1,0.1l0.1,0.1l0.1,0.1l0.1,0.1l0,0.1l0,0.1l0,0.1l0,0.1l0,0.1l0,0.1   l0,0.1l0,0.1l0,0.1l0,0.1l0,0.1l0,0.1l0,0.1l-0.1,0.1l0,0.1l0,0.1L16.8,17l0,0l0,0l0.3,0.1l0.1,0l0.3,0.1l0.1,0l0.3,0.1l0.1,0   l0.3,0.1L18.4,17.7L18.4,17.7L18.4,17.7z M15.8,16.8L15.8,16.8l0.1-0.1l0-0.1l0-0.1l0-0.1l0-0.1l0-0.1l-0.1-0.1L15.8,16L15.8,16   l-0.1-0.1l-0.1,0l-0.1,0l-0.1,0l-0.1,0l-0.1,0L15,16.1l-0.1,0l-0.2,0.2l-0.1,0l0,0l0,0l0,0.1l0.1,0.1l0.1,0.1l0.1,0.1l0.1,0.1   l0.2,0.3l0,0l0,0l0,0l0.1,0l0.3-0.1l0.1,0L15.8,16.8z"
       id="path7883" /><path
       fill="#D6DE23"
       d="M22.6,15.7L22.6,15.7l0,0.1l0,0l-0.1,0l-0.1,0l-0.1,0l-0.1,0l-0.2,0.1l-0.3,0.2l-0.1,0l0,0l0,0l-0.3-0.4   l-0.1,0l-0.1,0l-0.1,0L20.7,16l-0.1,0l-0.4,0.2l-0.3,0.1l-0.1,0l-0.1,0l-0.2,0.1l-0.1,0l0,0l0,0.1l0,0.4l0,0.1l0,0.1l-0.1,0.1   l-0.1,0L19,17.4l-0.1,0l-0.3,0.2l-0.1,0l-0.1,0l-0.1,0l0-0.1l0,0l0-0.1l0-0.2l0-0.1l0-0.3l0-0.1l0-0.3l0-0.1l0-0.3l0-0.1l0-0.3   l0-0.1l0-0.5l0-0.4l0-0.1l0-0.3l0-0.1l0-0.3l0-0.1l0-0.3l0-0.1l0-0.1l0.1,0l0.2-0.1l0.4-0.2l0.2-0.1l0.1,0l0.1,0l0.1,0.1l0.2,0.2   l0.1,0.1l0.2,0.2l0.1,0.1l0.2,0.2l0.1,0.1l0.2,0.2l0.1,0.1l0.2,0.2l0.1,0.1l0.2,0.2l0.1,0.1l0.2,0.2l0.1,0.1l0.3,0.3l0.2,0.2   l0.1,0.1l0.3,0.3L22.6,15.7z M20.3,15L20.3,15L20,14.6l-0.1-0.1l-0.2-0.3l-0.1-0.1l-0.1,0l-0.1,0l0,0l0,0.1l0,0.4l0,0.1l0,0.4   l0,0.1l0,0.1l0.1,0l0.1,0l0.3-0.1l0.2-0.1l0.1,0L20.3,15L20.3,15z"
       id="path7885" /><path
       fill="#D6DE23"
       d="M26,12.4L26,12.4l0,0.2l0,0.1l0,0.1l0,0.1l0,0.1l0,0.1l0,0.1l0,0.1l-0.1,0.1l0,0.1l-0.1,0.1l-0.1,0.1   l-0.1,0.1l-0.1,0.1l-0.1,0.1l-0.1,0.1L25.4,14l-0.1,0l-0.1,0.1l-0.1,0l-0.1,0l-0.1,0l-0.1,0l-0.5,0.1l-0.1,0l-0.1,0l-0.1,0l-0.1,0   l0,0l0,0.1l0.1,0.4l0,0.1l0,0.2l0,0.1l0,0.1l0,0.1l0,0l0,0l-0.1,0L24,15.6l-0.2,0l-0.1,0l-0.2,0.1l-0.1,0l-0.1,0l-0.1,0l0,0l0-0.1   l0-0.1l0-0.1l-0.1-0.6l0-0.3l0-0.1l-0.1-0.3l0-0.1l-0.2-0.7l0-0.1l-0.1-0.3l0-0.1l-0.1-0.3l0-0.1l0-0.3l0-0.1l-0.1-0.2l0-0.1l0,0   l0-0.1l0,0l0,0l0.1,0l0.2,0l0.1,0l0.1,0l0.4-0.1l0.4-0.1l0.4-0.1l0.4-0.1l0.2-0.1l0.1,0l0,0l0.1,0l0.1,0l0.1,0l0.1,0l0.1,0l0.1,0   l0.1,0l0.1,0.1l0.1,0l0,0l0.1,0.1l0.1,0.1l0,0l0.1,0.1l0,0l0,0.1l0,0.1l0,0.1l0,0l0,0.1l0,0l0,0.1L26,12.4L26,12.4z M24.5,13.3   L24.5,13.3l0.2-0.1l0,0l0.1-0.1l0,0l0-0.1l0,0l0-0.1l0,0v-0.1l0,0l0-0.1l0-0.1l0,0l0-0.1l0,0l-0.1-0.1l-0.1,0l-0.1,0l-0.2,0l-0.1,0   l-0.1,0L24,12.4l-0.2,0l-0.1,0l0,0l-0.1,0l0,0l0,0l0,0.1l0,0.1l0.1,0.2l0,0.1l0.1,0.3l0,0.1l0,0l0.1,0l0.3,0L24.5,13.3z"
       id="path7887" /><path
       fill="#D6DE23"
       d="M30.9,14.3L30.9,14.3l0,0.1l-0.1,0l-0.1,0l-0.1,0l-0.1,0l-0.1,0l-0.2,0l-0.3,0.1l-0.1,0l0,0l0-0.1L29.5,14   l0-0.1l-0.1,0l-0.1,0l-0.3,0l-0.1,0l-0.4,0l-0.3,0l-0.1,0L28,14l-0.3,0l-0.1,0l0,0l0,0.1l-0.1,0.4l0,0.1l-0.1,0.1l-0.1,0l-0.1,0   l-0.3,0l-0.1,0l-0.3,0.1l-0.1,0l-0.1,0l-0.1-0.1l0-0.1l0,0l0-0.1l0.1-0.2l0-0.1l0.1-0.3l0-0.1l0.1-0.3l0-0.1l0.1-0.3l0-0.1l0.1-0.3   l0-0.1l0.2-0.5l0.1-0.4l0-0.1l0.1-0.3l0-0.1l0.1-0.3l0-0.1l0.1-0.2l0-0.1l0.1,0l0.1,0l0.3,0l0.4,0l0.3,0l0.1,0l0.1,0l0,0.1l0.1,0.2   l0,0.1l0.2,0.2l0,0.1l0.2,0.3l0,0.1l0.1,0.3l0,0.1l0.2,0.3l0,0.1l0.2,0.3l0,0.1l0.1,0.3l0,0.1l0.2,0.3l0.2,0.2l0,0.1l0.2,0.3   L30.9,14.3z M28.9,12.9L28.9,12.9l-0.2-0.4l0-0.1L28.5,12l0-0.1l-0.1,0l-0.1,0l-0.1,0L28.2,12l-0.1,0.4l0,0.1L28,12.9l0,0.1l0,0.1   l0.1,0l0.1,0l0.4,0l0.3,0l0.1,0L28.9,12.9L28.9,12.9z"
       id="path7889" /><path
       fill="#D6DE23"
       d="M35.3,12.7L35.3,12.7l0,0.2l0,0.1l0,0.1l0,0.1l0,0.1l0,0.1l0,0.1l0,0.1L35,13.7l0,0.1l-0.1,0.1l-0.1,0.1   L34.7,14l-0.1,0.1l-0.1,0.1l-0.1,0.1l-0.1,0l-0.1,0.1l-0.1,0l-0.1,0l-0.1,0l-0.1,0l-0.1,0l-0.3,0h-0.1l-0.1,0l-0.1,0l-0.2,0l-0.1,0   l-0.1,0l-0.2,0l-0.1,0l-0.1,0l-0.1,0l-0.4,0l-0.1,0l-0.2,0l0,0l0,0l0-0.1l0-0.1l0,0l0-0.2l0-0.1l0-0.1l0-0.1l0-0.1l0-0.1l0-0.3   l0-0.1l0-0.3l0-0.1l0-0.1l0-0.1l0-0.1l0-0.1l0-0.1v-0.1l0-0.1V12l0-0.3l0-0.1l0-0.3l0-0.1l0-0.3l0-0.2l0-0.1l0-0.1l0-0.1l0,0l0.1,0   l0.1,0l0.1,0l0.1,0l0.5,0l0.1,0l0.3,0l0,0l0.1,0l0.2,0h0.1l0.1,0l0.1,0l0.2,0l0.1,0l0.1,0l0.1,0l0.1,0l0.2,0.1l0.1,0l0.1,0l0.1,0.1   l0.2,0.1l0.1,0.1l0.1,0.1l0.1,0.1l0.1,0.1l0,0.1l0,0.1l0.1,0.1l0,0.1l0,0.1l0,0.1l0,0.1l0,0.1l0,0.1l0,0.1l0,0.1l0,0.1l0,0.1V12.7   L35.3,12.7z M34,13.1L34,13.1l0.1-0.2l0-0.1l0-0.1l0-0.1l0-0.1l0-0.2v-0.1l0-0.1l0-0.1l0,0l0-0.1L34,11.8l0,0L34,11.7l-0.1-0.1   l-0.1-0.1l-0.1-0.1l-0.1,0l-0.1,0l-0.1,0l-0.1,0l-0.1,0l-0.1,0l-0.1,0l-0.1,0l-0.1,0l-0.1,0l0,0l0,0.1l0,0l0,0.1l0,0.2l0,0.1l0,0.1   l0,0.1v0.1l0,0.1l0,0.1l0,0.3l0,0.1l0,0.1l0,0.1l0,0.1l0,0.1l0,0.1l0,0.1l0,0.1l0,0l0.1,0l0.5,0l0.1,0l0.1,0l0.1,0l0.1,0l0.1,0   l0.1,0l0.1-0.1l0.1-0.1L34,13.1z"
       id="path7891" /><path
       fill="#D6DE23"
       d="M39.7,13.6l0,0.2l0,0.1l0,0.1l0,0.1l-0.1,0.1l0,0.1l0,0.1l0,0.1l-0.1,0.1l0,0.1l-0.1,0.1l-0.1,0.1l-0.1,0.1   L39,15L39,15l-0.1,0l-0.1,0.1l-0.1,0l-0.1,0l-0.1,0l-0.1,0l-0.1,0l-0.1,0l-0.1,0l-0.1,0l-0.1,0l-0.2,0l-0.3-0.1l-0.1,0l-0.1,0   L36.9,15l-0.1,0l0,0l-0.1,0l0,0l-0.1-0.1l-0.1-0.1l-0.1-0.1l-0.1-0.1l-0.1-0.2l0-0.1l-0.1-0.1l0-0.1L36,14l0-0.1l0-0.1l0-0.1l0-0.1   l0-0.1l0-0.1l0-0.1l0-0.1l0-0.1l0-0.2l0-0.1l0.1-0.3l0-0.1l0.1-0.3l0-0.1l0.1-0.3l0.1-0.5l0-0.2l0-0.1l0-0.1l0-0.1l0,0l0.1,0l0.2,0   l0.2,0.1l0.1,0l0.2,0l0.1,0l0.1,0l0.1,0l0,0.1l0,0.1l0,0.1l0,0.1l-0.1,0.2l0,0.1l-0.1,0.3l0,0.1l-0.1,0.3l0,0.1l-0.1,0.3l0,0.1   l-0.1,0.3l0,0.1l0,0.1l0,0.1l0,0.1l0,0.1l0,0.1l0,0.1l0.1,0.1l0.1,0.1l0.1,0.1l0.1,0l0.1,0l0.1,0l0.1,0l0.1,0l0.1,0l0.1,0l0.1-0.1   l0.1-0.1l0.1-0.1l0.1-0.1l0-0.1l0-0.1l0.1-0.2l0-0.1l0.1-0.3l0-0.1l0.1-0.3l0-0.1l0.1-0.3l0-0.1l0.1-0.3l0-0.1l0-0.2l0-0.1l0-0.1   l0.1,0l0.1,0l0.1,0l0.3,0.1l0.1,0l0.2,0l0.1,0l0.1,0l0.1,0l0,0l0,0.1l0,0.2l0,0.1l0,0.1l0,0.1L40,12.5l0,0.1l-0.1,0.3l0,0.1   l-0.1,0.3L39.7,13.6z"
       id="path7893" /><path
       fill="#D6DE23"
       d="M43.4,17L43.4,17L43,16.8l-0.3-0.1l-0.1,0l-0.2-0.1l-0.1,0l0,0l0-0.1l-0.1-0.3l0-0.1L42,15.8l0-0.1L42,15.4   l0-0.1l-0.1-0.3l0-0.1l0,0l-0.1,0l-0.2-0.1l-0.1,0l-0.1,0l0,0.1l-0.1,0.3l0,0.1l-0.1,0.3l0,0.1l0,0.1l0,0.1l0,0.1l0,0.1l0,0l-0.1,0   l-0.1,0l-0.2-0.1l-0.2-0.1l-0.1,0L40,15.7l-0.1,0l0,0l0-0.1l0-0.1l0-0.1l0.1-0.1l0-0.1l0.1-0.3l0-0.1l0.1-0.3l0-0.1l0.1-0.3l0-0.1   l0.1-0.3l0-0.1l0.1-0.3l0-0.1l0.1-0.3l0-0.1l0.1-0.3l0-0.1l0.1-0.3l0-0.1l0.1-0.2l0-0.1l0,0l0-0.1l0,0l0.1,0l0,0l0.1,0l0.2,0.1   l0.6,0.3l0.4,0.1l0.1,0l0.3,0.2l0.2,0.1l0.1,0l0.1,0l0.1,0.1l0.1,0.1l0.1,0.1l0.1,0.1l0.1,0.1l0.1,0.1l0.1,0.1l0,0.1l0,0.1l0,0.1   l0,0.1l0,0.1l0,0.1l0,0.1l0,0.1l0,0.1l0,0.1l0,0.1l0,0.1l0,0.1l0,0.1l0,0.1L44,14.8L44,14.8l-0.1,0.1L43.9,15L43.8,15l-0.1,0.1   l-0.1,0l-0.1,0l-0.1,0.1l-0.1,0l-0.1,0l-0.1,0l-0.1,0l-0.1,0h0l0,0l0.1,0.3l0,0.1l0.1,0.3l0,0.1l0.1,0.3l0,0.1l0.1,0.3l0,0.1   L43.4,17L43.4,17z M42.6,14.4l0.1,0h0.1l0.1,0l0.1,0l0.1-0.1l0.1-0.1l0-0.1l0-0.1l0-0.1l0-0.1l0-0.1l0-0.1l0-0.1L43,13.5l-0.1-0.1   l-0.1,0l-0.3-0.1l-0.1,0l-0.3-0.1l-0.1,0l0,0l0,0l0,0.1l0,0.1l0,0.1l0,0.1l0,0.1l-0.1,0.3l0,0.1l0,0l0,0l0.1,0l0.3,0.1l0.1,0   L42.6,14.4z"
       id="path7895" /><path
       fill="#D6DE23"
       d="M47.5,19.2L47.5,19.2l-0.1,0.1l-0.1,0l-0.1,0l-0.1,0l-0.1-0.1l-0.1,0l-0.2-0.1l-0.3-0.2l-0.1-0.1l0-0.1   l0-0.1l0.1-0.5l0-0.1l0,0l-0.1,0l-0.3-0.2l-0.1,0l-0.4-0.2l-0.3-0.2l-0.1,0l-0.1,0l-0.2-0.1l-0.1,0l-0.1,0l-0.1,0l-0.3,0.3   l-0.1,0.1l-0.1,0l-0.1,0l-0.1,0L44,17.3l-0.1,0l-0.3-0.2l-0.1,0l0-0.1l0-0.1l0-0.1l0,0l0.1-0.1l0.2-0.1l0.1-0.1l0.3-0.2l0.1-0.1   l0.3-0.2l0.1-0.1l0.3-0.2l0.1-0.1l0.3-0.2l0.1-0.1l0.4-0.3l0.3-0.2L46,15l0.2-0.2l0.1-0.1l0.2-0.2l0.1-0.1l0.2-0.1l0.1,0l0.1,0   l0.1,0l0.2,0.1l0.4,0.2l0.2,0.1l0.1,0.1l0,0.1l0,0.1l0,0.2l0,0.1l0,0.3l0,0.1l0,0.3l0,0.1l-0.1,0.3l0,0.1l0,0.3l0,0.1l0,0.3l0,0.1   l0,0.3l0,0.1l0,0.4l0,0.3l0,0.1l0,0.4L47.5,19.2z M46.7,16.9L46.7,16.9l0.1-0.5l0-0.1l0.1-0.3l0-0.1l0-0.1l-0.1-0.1l-0.1,0l-0.1,0   L46.3,16l-0.1,0.1L46,16.3l-0.1,0.1l0,0.1l0,0.1l0.1,0l0.3,0.2l0.2,0.1l0.1,0L46.7,16.9L46.7,16.9z"
       id="path7897" /></g><g
     id="g7899"><path
       fill="#025C98"
       d="M77.4,18.4l0,0.3l0,0.3l0,0.4l-0.1,0.6l-0.1,0.4L77,20.9l-0.1,0.3l-0.2,0.4L76.4,22l-0.3,0.4l-0.3,0.3   L75.5,23l-0.3,0.3l-0.3,0.2l-0.3,0.2l-0.5,0.2l-0.3,0.2l-0.4,0.2L73,24.4l-0.5,0.1l-0.3,0.1l-0.3,0l-0.4,0l-0.6,0h-2l-0.4,0l-0.4,0   l-0.4,0l-0.3,0l-0.1,0.2l0,0.3l-0.1,1.6v0.4l0,0.7l0,0.3l0,0.5l0,0.3l-0.1,0.1l-0.1,0l-0.3,0l-0.7,0l-0.9,0h-0.4l-0.7,0l-0.4,0   l-0.5,0l-0.3-0.1L62.6,29l0-0.3l0-0.3l0-0.4v-2.5l0.1-1.2v-0.4l-0.1-1.2v-0.4l0-2.8v-0.4l0.1-1.3v-0.4l-0.1-1.2v-0.4l0.1-1.2v-0.3   l0-0.7l0-0.3l0-0.2l0-0.3l0.1-0.1l0.1-0.1l0.3,0l0.7,0l0.5,0h0.3l1.6,0h1.6l1.6,0.1h1.5l0.9,0l0.3,0h0.2l0.3,0.1l0.5,0.1l0.4,0.1   l0.4,0.1l0.3,0.2l0.3,0.2l0.3,0.2l0.4,0.4l0.3,0.2l0.1,0.1l0.4,0.4l0.2,0.3l0.1,0.1l0.2,0.3l0.1,0.1l0.1,0.3l0.1,0.3l0.1,0.3l0,0.2   l0.1,0.3l0,0.2l0.1,0.3l0.1,0.7V18.4z M70.4,20.7l0.4,0l0.4-0.1l0.2-0.1l0.3-0.2l0.1-0.1l0.2-0.2l0.1-0.1l0.2-0.3l0.1-0.2l0.1-0.4   l0-0.2v-0.6l-0.1-0.3l-0.1-0.2l-0.1-0.3l-0.1-0.1L72,17l-0.2-0.1l-0.3-0.2l-0.6-0.2l-0.4,0h-0.5l-0.7,0l-1-0.1h-0.3l-0.2,0l-0.3,0   l-0.1,0.1l-0.1,0.2l0,0.3v0.5l0.1,0.9l0,0.4l0,1.3l0,0.3l0.1,0.2l0.3,0.1l1.2,0.1L70.4,20.7z"
       id="path7901" /><path
       fill="#025C98"
       d="M95.2,27.1l0,0.4l0,0.6l0,0.3l0,0.3L95.1,29L95,29.2l-0.3,0l-0.4,0l-1.3-0.1h-0.4l-1.2,0.1h-0.4l-0.3-0.1   L90.6,29l0-0.3l-0.1-1.5l0-0.4l0-1.5v-0.4l0-1.5v-0.3l-0.1-0.2l-0.3-0.1h-0.6l-0.9,0.1l-0.4,0l-1.9,0l-1.3-0.1l-0.3,0l-0.2,0.1   l-0.1,0.2l0,0.3l0,1.5v0.4l0,1.5l0,0.4l0.1,1v0.5l-0.1,0.3l-0.2,0.2L84,29.3l-0.3,0l-0.3,0l-1-0.1l-0.4,0l-1.1,0.1l-0.4,0h-0.2   l-0.3,0l-0.2-0.1L79.8,29l0-0.3l0-0.2v-0.4l0-0.7v-2l0-1.2v-0.4l0-1.2v-0.4l-0.1-1.2v-0.4l0-1.2v-1.6l0-0.4l0.1-1.2l0-0.4l0-1.2   l0-0.4l-0.1-0.8V13l0.1-0.3l0.2-0.2l0.3-0.1l0.3,0H81l1,0h0.4l0.9-0.1h0.4l0.3,0l0.3,0l0.2,0.2l0.1,0.3l0,0.2v0.3l-0.1,1l0,0.4   l0,1.5v1.9l0,0.3l0.1,0.2l0.1,0.1l0.2,0l0.3,0h0.3l0.9-0.1l0.3,0l1.5,0l1.4,0.1H90l0.2,0l0.3-0.1l0.1-0.2l0-0.3l0.1-1.5v-0.4l0-1.5   v-0.4l0-1.5l0.1-0.4l0.2-0.2l0.3,0h0.4l1.3,0.1h0.4l1-0.1l0.4,0h0.2l0.3,0l0.2,0.2l0.1,0.3v0.3l-0.1,0.9l0,0.4l0.1,1.2v0.4l0,1.2   v0.4l0.1,1.2v0.4l-0.1,1.2v0.4l0,1.2v0.4l0,1.2v0.4l0,1.2V27.1z"
       id="path7903" /><path
       fill="#025C98"
       d="M113.4,18.4l0,0.3l0,0.3l0,0.4l-0.1,0.6l-0.1,0.4l-0.2,0.5l-0.1,0.3l-0.2,0.4l-0.2,0.3l-0.3,0.4l-0.3,0.3   l-0.3,0.3l-0.3,0.3l-0.3,0.2l-0.3,0.2l-0.5,0.2l-0.3,0.2l-0.4,0.2l-0.3,0.1l-0.5,0.1l-0.3,0.1l-0.3,0l-0.4,0l-0.6,0h-2l-0.4,0   l-0.4,0l-0.4,0l-0.3,0l-0.1,0.2l0,0.3l-0.1,1.6v0.4l0,0.7l0,0.3l0,0.5l0,0.3l-0.1,0.1l-0.1,0l-0.3,0l-0.7,0l-0.9,0h-0.4l-0.7,0   l-0.4,0l-0.5,0l-0.3-0.1L98.6,29l0-0.3l0-0.3l0-0.4v-2.5l0.1-1.2v-0.4l-0.1-1.2v-0.4l0-2.8v-0.4l0.1-1.3v-0.4l-0.1-1.2v-0.4   l0.1-1.2v-0.3l0-0.7l0-0.3l0-0.2l0-0.3l0.1-0.1l0.1-0.1l0.3,0l0.7,0l0.5,0h0.3l1.6,0h1.6l1.6,0.1h1.5l0.9,0l0.3,0h0.2l0.3,0.1   l0.5,0.1l0.4,0.1l0.4,0.1l0.3,0.2l0.3,0.2l0.3,0.2l0.4,0.4l0.3,0.2l0.1,0.1l0.4,0.4l0.2,0.3l0.1,0.1l0.2,0.3l0.1,0.1l0.1,0.3   l0.1,0.3l0.1,0.3l0,0.2l0.1,0.3l0,0.2l0.1,0.3l0.1,0.7V18.4z M106.5,20.7l0.4,0l0.4-0.1l0.2-0.1l0.3-0.2l0.1-0.1l0.2-0.2l0.1-0.1   l0.2-0.3l0.1-0.2l0.1-0.4l0-0.2v-0.6l-0.1-0.3l-0.1-0.2l-0.1-0.3l-0.1-0.1L108,17l-0.2-0.1l-0.3-0.2l-0.6-0.2l-0.4,0H106l-0.7,0   l-1-0.1h-0.3l-0.2,0l-0.3,0l-0.1,0.1l-0.1,0.2l0,0.3v0.5l0.1,0.9l0,0.4l0,1.3l0,0.3l0.1,0.2l0.3,0.1l1.2,0.1L106.5,20.7z"
       id="path7905" /></g><g
     id="g7907"><path
       fill="#025C98"
       d="M77.5,47.4l-0.3,0.1h-1.5l-1.2,0h-0.3l-1,0H73l-0.2-0.1l-0.2-0.2l-0.7-1L71.8,46l-0.7-0.9l-0.2-0.3l-0.6-1   l-0.2-0.3l-0.7-0.9l-0.1-0.2l-0.1-0.1l-0.3,0l-0.7,0l-0.3,0l-0.2,0.1l-0.1,0.3l0,1.2l0,0.3l0.1,1.2l0,0.3l0,0.5v0.3l0,0.3l0,0.3   l-0.1,0.1l-0.2,0.1h-0.3l-1-0.1l-1,0.1h-0.3l-1-0.1l-0.3,0l-0.1-0.1l0-0.2l0-0.3l0-0.3l0-0.5l0-0.3l0.1-1.1v-0.3l-0.1-1.1l0-0.3   l0-1.1v-0.3l0.1-1.1v-0.3l-0.1-1.1v-0.3l0.1-1.1v-0.3l0-1.1v-0.3l0-1.1v-0.3l0-0.7l0-0.3l0-0.1l0.1-0.3l0.1-0.2l0.3-0.1l0.2,0   l0.3,0l1,0l2.5,0.1l1.4-0.1h0.3l1.4,0.1h0.8l0.4,0l0.3,0.1l0.4,0.1l0.3,0.1l0.3,0.1l0.3,0.1l0.3,0.1l0.3,0.2l0.4,0.3l0.2,0.2   l0.2,0.2l0.2,0.3l0.3,0.4l0.2,0.3l0.3,0.4l0.1,0.3l0.1,0.3l0.1,0.3l0.1,0.3l0,0.3l0,0.5v0.3l0,0.3l0,0.4l-0.1,0.4l-0.1,0.3   l-0.1,0.3l-0.1,0.3l-0.2,0.3L76,40.2l-0.2,0.3l-0.2,0.2L75.3,41L75,41.2l-0.4,0.2l-0.3,0.1l-0.3,0.1l-0.3,0.1l-0.2,0.1l0.1,0.2   l0.8,1.1l0.2,0.3l0.8,1l0.2,0.3l0.8,1.1l0.2,0.3l0.7,0.8l0.2,0.2l0.1,0.2L77.5,47.4z M71.1,39.2l0.5-0.1l0.3-0.1l0.3-0.1l0.2-0.3   l0.1-0.3l0.1-0.3l0-0.3l0-0.4l0-0.4l-0.1-0.3l-0.1-0.3L72.1,36l-0.2-0.2l-0.3-0.1l-0.5-0.1l-0.3,0l-1.1,0h-0.3l-1.1,0.1l-0.3,0   l-0.1,0.1l-0.1,0.1l0,0.2l0,0.5l0,0.3l0,0.4l0,0.4l0,1.2l0,0.2l0,0.1l0.1,0.1l0.3,0l1.1,0.1h0.3L71.1,39.2z"
       id="path7909" /><path
       fill="#025C98"
       d="M95.6,46.8l0.1,0.3l-0.1,0.2l-0.2,0.1l-0.3,0h-0.3l-0.5,0l-0.3,0h-1l-1.3,0.1l-0.3-0.1l-0.1-0.2l-0.1-0.2   l-0.7-1.8l-0.1-0.2l-0.2,0l-0.3,0l-1.3-0.1h-0.3l-1.6,0l-1.3,0h-0.3l-0.3,0h-1l-0.3,0L83.4,45l-0.1,0.3l-0.5,1.4l-0.1,0.3l-0.2,0.3   l-0.3,0.1l-0.3,0l-1.2-0.1h-0.3l-1.3,0.1l-0.3,0l-0.3-0.1l-0.2-0.2l0-0.3l0-0.2l0.1-0.3l0.3-0.7l0.1-0.3l0.5-1.2l0.1-0.3l0.5-1.2   l0.1-0.3l0.5-1.1l0.1-0.3l0.6-1.2l0.1-0.3l0.8-1.7l0.6-1.3l0.1-0.3l0.5-1l0.1-0.3l0.4-1l0.1-0.3l0.4-0.9l0.1-0.2l0.2-0.1l0.3-0.1   l1,0h1.6l1,0l0.4,0.1l0.2,0.2l0.1,0.3l0.3,0.8l0.1,0.3l0.5,1l0.1,0.3l0.5,1l0.1,0.3l0.4,1.1l0.1,0.3l0.5,1l0.1,0.3l0.5,1l0.1,0.3   l0.4,1.1l0.1,0.3l0.7,1.3l0.5,1l0.1,0.3l0.6,1.3L95.6,46.8z M88.5,40.9l-0.1-0.3L88,39.2l-0.1-0.3l-0.4-1.2l-0.1-0.3l-0.2-0.1   l-0.3-0.1l-0.2,0.1l-0.2,0.2l-0.6,1.4l-0.1,0.3l-0.5,1.4l-0.1,0.3l0.1,0.3l0.2,0.1l0.3,0H87l1,0.1l0.3-0.1l0.2-0.2L88.5,40.9z"
       id="path7911" /><path
       fill="#025C98"
       d="M111.5,37.6l0,0.3l0,0.3l0,0.4l-0.1,0.5l-0.1,0.3l-0.2,0.4l-0.1,0.3l-0.2,0.4l-0.2,0.3l-0.3,0.4l-0.2,0.3   l-0.3,0.3l-0.3,0.2l-0.3,0.2l-0.3,0.2l-0.5,0.2l-0.3,0.1l-0.4,0.1l-0.3,0.1l-0.5,0.1l-0.3,0.1l-0.3,0l-0.3,0l-0.5,0h-1.8l-0.4,0   l-0.4,0l-0.4,0l-0.3,0l-0.1,0.1l0,0.3l-0.1,1.4v0.3l0,0.6l0,0.3l0,0.5l0,0.2l-0.1,0.1l-0.1,0l-0.2,0l-0.7,0l-0.8,0h-0.3l-0.7,0   l-0.3,0l-0.5,0l-0.3-0.1L98,47.2l0-0.3l0-0.3l0-0.3V44l0.1-1.1v-0.3l-0.1-1.1v-0.3l0-2.6v-0.3l0.1-1.1v-0.3l-0.1-1.1v-0.3l0.1-1.1   v-0.3l0-0.6l0-0.3l0-0.2l0-0.2l0.1-0.1l0.1-0.1l0.2,0l0.6,0l0.5,0h0.3l1.4,0h1.4l1.4,0.1h1.4l0.8,0l0.3,0h0.2l0.3,0.1l0.5,0.1   l0.3,0.1l0.3,0.1l0.3,0.1l0.3,0.2l0.3,0.2l0.4,0.3l0.3,0.2l0.1,0.1l0.4,0.4l0.2,0.3l0.1,0.1l0.1,0.3l0.1,0.1l0.1,0.3l0.1,0.3   l0.1,0.3l0,0.1l0.1,0.3l0,0.2l0.1,0.3l0.1,0.6V37.6z M105.1,39.7l0.4,0l0.4-0.1l0.2-0.1l0.3-0.2l0.1-0.1l0.2-0.2l0.1-0.1l0.1-0.3   l0.1-0.1l0.1-0.3l0-0.1v-0.5l-0.1-0.3L107,37l-0.1-0.3l-0.1-0.1l-0.2-0.3l-0.2-0.1l-0.3-0.2l-0.5-0.1l-0.3,0h-0.5l-0.6,0l-0.9-0.1   h-0.3l-0.2,0l-0.2,0l-0.1,0.1l-0.1,0.1l0,0.3v0.5l0.1,0.8l0,0.3l0,1.2l0,0.3l0.1,0.1l0.2,0.1l1.1,0.1L105.1,39.7z"
       id="path7913" /><path
       fill="#025C98"
       d="M128,46.8l0.1,0.3l-0.1,0.2l-0.2,0.1l-0.3,0h-0.3l-0.5,0l-0.3,0h-1l-1.3,0.1l-0.3-0.1l-0.1-0.2l-0.1-0.2   l-0.7-1.8l-0.1-0.2l-0.2,0l-0.3,0l-1.3-0.1h-0.3l-1.6,0l-1.3,0h-0.3l-0.3,0h-1l-0.3,0l-0.2,0.1l-0.1,0.3l-0.5,1.4l-0.1,0.3   l-0.2,0.3l-0.3,0.1l-0.3,0l-1.2-0.1h-0.3l-1.3,0.1l-0.3,0l-0.3-0.1l-0.2-0.2l0-0.3l0-0.2l0.1-0.3l0.3-0.7l0.1-0.3l0.5-1.2l0.1-0.3   l0.5-1.2l0.1-0.3l0.5-1.1l0.1-0.3l0.6-1.2l0.1-0.3l0.8-1.7l0.6-1.3l0.1-0.3l0.5-1l0.1-0.3l0.4-1l0.1-0.3l0.4-0.9l0.1-0.2l0.2-0.1   l0.3-0.1l1,0h1.6l1,0l0.4,0.1l0.2,0.2l0.1,0.3l0.3,0.8l0.1,0.3l0.5,1l0.1,0.3l0.5,1l0.1,0.3l0.4,1.1l0.1,0.3l0.5,1l0.1,0.3l0.5,1   l0.1,0.3l0.4,1.1l0.1,0.3l0.7,1.3l0.5,1l0.1,0.3l0.6,1.3L128,46.8z M121,40.9l-0.1-0.3l-0.5-1.4l-0.1-0.3l-0.4-1.2l-0.1-0.3   l-0.2-0.1l-0.3-0.1l-0.2,0.1l-0.2,0.2l-0.6,1.4l-0.1,0.3l-0.5,1.4l-0.1,0.3l0.1,0.3l0.2,0.1l0.3,0h1.3l1,0.1l0.3-0.1l0.2-0.2   L121,40.9z"
       id="path7915" /><path
       fill="#025C98"
       d="M144.9,40.2l0,0.4l0,0.5l-0.1,0.3l-0.1,0.5l-0.1,0.3l-0.1,0.3l-0.1,0.3l-0.1,0.4l-0.1,0.3l-0.2,0.5   l-0.2,0.3l-0.3,0.3l-0.2,0.2l-0.4,0.3l-0.5,0.5l-0.3,0.2l-0.4,0.3l-0.3,0.2l-0.4,0.2l-0.3,0.1l-0.5,0.2l-0.3,0.1l-0.3,0.1l-0.3,0.1   l-1.3,0.2l-0.3,0l-0.5,0h-0.3l-0.7,0l-0.5,0h-0.3l-0.7,0l-0.5,0l-0.4,0l-0.3,0h-1.5l-0.3,0l-0.9-0.1l-0.2-0.1l-0.1-0.1l0-0.2l0-0.3   l0-0.2l0-0.6v-0.3l0-0.5v-0.3l0-0.3V44l0-1.1v-0.3l0-1.1l0-0.3l0-0.5l0-0.3l0-0.4v-0.3l0-0.5l0-0.4v-0.2l0-0.4l0.1-1.1v-0.3l0-1.1   v-0.3l-0.1-1.1v-0.8l0-0.3l0.1-0.3l0-0.2l0.1-0.1l0.2-0.1l0.4,0l0.3,0l0.3,0l1.9,0h0.3l1,0.1l0.2,0h0.4l0.9,0l0.3,0h0.3l0.5,0   l0.7,0l0.3,0l0.5,0.1l0.3,0.1l0.3,0.1l0.8,0.3l0.3,0.1l0.3,0.2l0.3,0.2l0.7,0.5l0.3,0.2l0.3,0.2l0.5,0.4l0.2,0.2l0.2,0.2l0.1,0.3   l0.2,0.5l0.1,0.3l0.1,0.3l0.1,0.3l0.1,0.3l0.1,0.3l0.1,0.5l0.1,0.3l0.1,0.4l0,0.3l0,0.5l0,0.3L144.9,40.2z M140.1,42l0.1-0.3   l0.1-0.4l0.1-0.3l0.1-0.5l0-0.3l0-0.5v-0.7l0-0.3l-0.1-0.5l-0.1-0.3l0-0.1l-0.2-0.3l-0.3-0.4l-0.1-0.1l-0.2-0.2l-0.2-0.2l-0.3-0.2   l-0.5-0.3l-0.3-0.1l-0.3-0.1l-0.3-0.1l-0.5,0l-0.4,0h-0.5l-0.5,0l-0.3,0l-0.5,0.1l-0.2,0.1l-0.1,0.1l-0.1,0.3l0,0.2l0,0.3l0,0.6   l0,0.3l0,0.5l0,0.3l0,0.3v0.3l0,0.5v1l0,0.4l0,0.3l0,0.5v0.3l0,0.5l0,0.3l0.1,0.5l0.1,0.2l0.1,0.1l0.3,0l2-0.1l0.5,0l0.3-0.1   l0.4-0.1l0.3-0.1l0.3-0.1l0.3-0.2l0.4-0.3l0.2-0.3L140.1,42z"
       id="path7917" /><path
       fill="#025C98"
       d="M161.2,40l0,0.7l0,0.3l0,0.5l0,0.3l-0.1,0.5l-0.1,0.3l-0.1,0.5l-0.1,0.3l-0.2,0.4l-0.1,0.3l-0.2,0.4   l-0.1,0.3l-0.3,0.4l-0.2,0.3l-0.3,0.3l-0.3,0.2l-0.4,0.3l-0.3,0.2l-0.4,0.3l-0.3,0.1l-0.4,0.2l-0.3,0.1l-0.5,0.2l-0.3,0.1l-0.5,0.1   l-0.3,0.1l-0.7,0h-1l-0.5,0l-0.3,0l-1.2-0.1l-0.3-0.1l-0.2,0l-0.3-0.1l-0.2-0.1l-0.3-0.1L150,47l-0.3-0.2l-0.3-0.2l-0.5-0.5   l-0.2-0.2l-0.3-0.4l-0.2-0.3l-0.3-0.5l-0.2-0.3l-0.2-0.3l-0.1-0.3l-0.1-0.3l-0.1-0.3l-0.1-0.3l-0.1-0.5l-0.1-0.4l0-0.4l0-0.7l0-0.3   l0.1-1.3V39l0-1.3v-0.3l0.1-1.3v-2l0-0.7v-0.4l0-0.4l0.1-0.3l0.1-0.2l0.3-0.1l0.7,0l0.8,0.1h0.3l0.7,0l0.3,0l0.5,0l0.3,0.1l0.2,0.2   l0.1,0.3l0,0.3v0.3l0,0.8v0.3l0.1,1.3v0.3l0,1.3v0.3l-0.1,1.3v0.3l0,1.3l0,0.3l0,0.5l0.1,0.3l0.1,0.5l0.1,0.3l0.2,0.5l0.2,0.3   l0.3,0.4l0.3,0.2l0.5,0.2l0.3,0.1l0.5,0h0.3l0.5-0.1L155,44l0.4-0.2l0.3-0.2l0.3-0.3l0.2-0.3l0.2-0.4l0.1-0.3l0.1-0.3l0.1-0.3   l0.1-0.6l0-0.3l-0.1-1.3v-0.3l0.1-1.3v-0.3l0-1.3v-0.3l0-1.3l0-0.3l-0.1-0.9v-0.5l0.1-0.3l0.2-0.2l0.3-0.1h0.4l1.1,0.1h0.3l0.8-0.1   h0.3l0.3,0l0.3,0.1l0.2,0.1l0,0.3l0,0.6v0.3l0,0.5v0.3l0.1,1.3v0.3l0,1.3v0.3l-0.1,1.3L161.2,40z"
       id="path7919" /><path
       fill="#025C98"
       d="M178.1,47.4l-0.3,0.1h-1.5l-1.2,0h-0.3l-1,0h-0.3l-0.2-0.1l-0.2-0.2l-0.7-1l-0.2-0.3l-0.7-0.9l-0.2-0.3   l-0.6-1l-0.2-0.3l-0.7-0.9l-0.1-0.2l-0.1-0.1l-0.3,0l-0.7,0l-0.3,0l-0.2,0.1l-0.1,0.3l0,1.2l0,0.3l0.1,1.2l0,0.3l0,0.5v0.3l0,0.3   l0,0.3l-0.1,0.1l-0.2,0.1h-0.3l-1-0.1l-1,0.1h-0.3l-1-0.1l-0.3,0l-0.1-0.1l0-0.2l0-0.3l0-0.3l0-0.5l0-0.3l0.1-1.1v-0.3l-0.1-1.1   l0-0.3l0-1.1v-0.3l0.1-1.1v-0.3l-0.1-1.1v-0.3l0.1-1.1v-0.3l0-1.1v-0.3l0-1.1v-0.3l0-0.7l0-0.3l0-0.1l0.1-0.3l0.1-0.2l0.3-0.1   l0.2,0l0.3,0l1,0l2.5,0.1l1.4-0.1h0.3l1.4,0.1h0.8l0.4,0l0.3,0.1l0.4,0.1l0.3,0.1l0.3,0.1l0.3,0.1l0.3,0.1l0.3,0.2l0.4,0.3l0.2,0.2   l0.2,0.2l0.2,0.3l0.3,0.4l0.2,0.3l0.3,0.4l0.1,0.3l0.1,0.3l0.1,0.3l0.1,0.3l0,0.3l0,0.5v0.3l0,0.3l0,0.4l-0.1,0.4l-0.1,0.3   l-0.1,0.3l-0.1,0.3l-0.2,0.3l-0.2,0.3l-0.2,0.3l-0.2,0.2l-0.3,0.3l-0.2,0.2l-0.4,0.2l-0.3,0.1l-0.3,0.1l-0.3,0.1l-0.2,0.1l0.1,0.2   l0.8,1.1l0.2,0.3l0.8,1l0.2,0.3l0.8,1.1l0.2,0.3l0.7,0.8l0.2,0.2l0.1,0.2L178.1,47.4z M171.7,39.2l0.5-0.1l0.3-0.1l0.3-0.1l0.2-0.3   l0.1-0.3l0.1-0.3l0-0.3l0-0.4l0-0.4l-0.1-0.3l-0.1-0.3l-0.2-0.3l-0.2-0.2l-0.3-0.1l-0.5-0.1l-0.3,0l-1.1,0h-0.3l-1.1,0.1l-0.3,0   l-0.1,0.1l-0.1,0.1l0,0.2l0,0.5l0,0.3l0,0.4l0,0.4l0,1.2l0,0.2l0,0.1l0.1,0.1l0.3,0l1.1,0.1h0.3L171.7,39.2z"
       id="path7921" /><path
       fill="#025C98"
       d="M196.2,46.8l0.1,0.3l-0.1,0.2l-0.2,0.1l-0.3,0h-0.3l-0.5,0l-0.3,0h-1l-1.3,0.1l-0.3-0.1l-0.1-0.2l-0.1-0.2   l-0.7-1.8l-0.1-0.2l-0.2,0l-0.3,0l-1.3-0.1h-0.3l-1.6,0l-1.3,0h-0.3l-0.3,0h-1l-0.3,0L184,45l-0.1,0.3l-0.5,1.4l-0.1,0.3l-0.2,0.3   l-0.3,0.1l-0.3,0l-1.2-0.1h-0.3l-1.3,0.1l-0.3,0l-0.3-0.1l-0.2-0.2l0-0.3l0-0.2l0.1-0.3l0.3-0.7l0.1-0.3l0.5-1.2l0.1-0.3l0.5-1.2   l0.1-0.3l0.5-1.1l0.1-0.3l0.6-1.2l0.1-0.3l0.8-1.7l0.6-1.3l0.1-0.3l0.5-1l0.1-0.3l0.4-1l0.1-0.3l0.4-0.9l0.1-0.2l0.2-0.1l0.3-0.1   l1,0h1.6l1,0l0.4,0.1l0.2,0.2l0.1,0.3l0.3,0.8l0.1,0.3l0.5,1l0.1,0.3l0.5,1l0.1,0.3l0.4,1.1l0.1,0.3l0.5,1l0.1,0.3l0.5,1l0.1,0.3   l0.4,1.1l0.1,0.3l0.7,1.3l0.5,1l0.1,0.3l0.6,1.3L196.2,46.8z M189.1,40.9l-0.1-0.3l-0.5-1.4l-0.1-0.3l-0.4-1.2l-0.1-0.3l-0.2-0.1   l-0.3-0.1l-0.2,0.1l-0.2,0.2l-0.6,1.4l-0.1,0.3l-0.5,1.4l-0.1,0.3l0.1,0.3l0.2,0.1l0.3,0h1.3l1,0.1l0.3-0.1l0.2-0.2L189.1,40.9z"
       id="path7923" /></g><g
     id="g7925"
     style="fill:#ffffff;fill-opacity:1"><path
       fill="#1E1E1E"
       d="M122.5,28.2L122.5,28.2l-0.3,0.3l-0.1,0.1l-0.2,0.2l-0.1,0.1l-0.2,0.1l-0.1,0.1l-0.3,0.1l-0.2,0.1l-0.2,0.1   l-0.2,0l-0.3,0.1l-0.4,0l-0.2,0l-0.3,0h-0.6l-0.2,0l-0.2,0l-0.2,0l-0.2,0l-0.2-0.1l-0.5-0.1l-0.2-0.1L117,29l-0.2-0.1l-0.1-0.1   l-0.1-0.1l-0.2-0.1l-0.3-0.2l-0.1-0.1l-0.1-0.1l-0.1-0.2l-0.1-0.2l-0.1-0.2l-0.1-0.2l-0.1-0.2l-0.2-0.5l-0.1-0.2l-0.1-0.3l0-0.2   l0-0.3l0-0.2l0-0.2v-0.2l0-0.4l0-0.2l0-0.2l0-0.2l0-0.2l0.1-0.2l0.1-0.2l0.1-0.2l0.1-0.2l0.1-0.2l0.1-0.2l0.1-0.2l0.1-0.2l0.1-0.1   l0.1-0.2l0.1-0.1l0.1-0.1l0.1-0.1l0.1-0.1l0.4-0.2l0.1-0.1l0.2-0.1l0.3-0.2l0.2-0.1l0.2-0.1l0.4-0.1l0.2,0l0.2,0l0.3,0l0.2,0l0.2,0   l0.2,0L120,21l0.2,0l0.3,0l0.4,0.1l0.2,0.1l0.2,0.1l0.2,0.1l0.3,0.2l0.3,0.2l0.1,0.1l0.1,0.1l0.1,0.1l0,0.1l0,0.1l-0.1,0.1   l-0.1,0.1l-0.1,0.1l-0.1,0.1l-0.1,0.1l-0.1,0.1l-0.2,0.2l-0.1,0.1l-0.1,0.1l-0.1,0.1l-0.1,0l-0.1,0l-0.1,0l-0.1-0.1l-0.2-0.2   l-0.1-0.1l-0.2-0.1l-0.2-0.1l-0.2-0.1l-0.2,0l-0.3,0h-0.2l-0.2,0l-0.2,0l-0.2,0.1l-0.2,0.1l-0.1,0.1l-0.2,0.1l-0.2,0.1l-0.1,0.1   l-0.1,0.1l-0.1,0.2l-0.1,0.1l-0.1,0.2l-0.1,0.2l-0.1,0.2l0,0.2l0,0.2l0,0.3v0.2l0,0.3l0,0.2l0.1,0.3l0.1,0.2l0.1,0.2l0.1,0.2   l0.2,0.2l0.1,0.1l0.2,0.2l0.1,0.1l0.2,0.1l0.2,0.1l0.2,0.1l0.2,0l0.3,0h0.3l0.2,0l0.1,0l0.2-0.1l0.3-0.1l0.2-0.1l0.2-0.1l0.1-0.1   l0.2-0.1l0.1-0.1l0.1-0.1l0.1,0l0.1,0l0.1,0.1l0.1,0.1l0,0.1l0.1,0.1l0.2,0.2l0.1,0.1l0.3,0.3l0.1,0.1l0.1,0.1L122.5,28.2   L122.5,28.2z"
       id="path7927"
       style="fill:#ffffff;fill-opacity:1" /><path
       fill="#1E1E1E"
       d="M131.6,25.1l0,0.2l0,0.3l0,0.2l-0.1,0.3l0,0.3l0,0.2l0,0.2l0,0.2l-0.1,0.2l-0.1,0.2l-0.3,0.5l-0.1,0.1   l-0.1,0.1l-0.1,0.1l-0.2,0.2l-0.1,0.1l-0.1,0.1l-0.1,0.1l-0.2,0.1l-0.1,0.1l-0.2,0.1l-0.2,0.1l-0.2,0.1l-0.2,0l-0.4,0.1l-0.2,0.1   l-0.2,0l-0.2,0l-0.2,0l-0.2,0H127l-0.4,0l-0.4,0l-0.2,0l-0.2,0l-0.6-0.2l-0.2-0.1l-0.2-0.1l-0.4-0.2l-0.2-0.1l-0.2-0.1l-0.1-0.1   l-0.1-0.1l-0.1-0.1l-0.1-0.1l-0.3-0.3l-0.1-0.1l-0.1-0.1l-0.1-0.1l-0.1-0.2l-0.2-0.5l-0.1-0.2l0-0.2l0-0.2l0-0.2l0-0.2l0-0.2l0-0.2   v-0.2l0-0.2l0-0.2l0-0.2l0-0.2l0-0.2l0.1-0.2l0.1-0.2l0.1-0.2l0.1-0.3l0.1-0.2l0-0.1l0.1-0.2l0.2-0.2l0.1-0.2l0.1-0.1l0.1-0.1   l0.2-0.2L124,22l0.1-0.1l0.3-0.2l0.1-0.1l0.2-0.1l0.2-0.1l0.2-0.1l0.2-0.1l0.2-0.1l0.2,0l0.4-0.1l0.2,0l0.6-0.1l0.4,0l0.3,0l0.3,0   l0.2,0l0.2,0l0.2,0l0.2,0l0.2,0l0.2,0l0.2,0.1l0.2,0.1l0.2,0.1l0.4,0.2l0.1,0.1l0.1,0.1l0.2,0.2l0.1,0.1l0.1,0.1l0.1,0.1l0.2,0.2   l0.1,0.1l0.1,0.1l0.1,0.1l0.1,0.2l0.1,0.1l0.1,0.2l0.1,0.2l0.1,0.3l0.1,0.3l0,0.2l0,0.2L131.6,25.1z M128.9,26.5l0.1-0.2l0.1-0.2   l0.1-0.2l0.1-0.3l0-0.2l0-0.3v-0.2l0-0.2l0-0.2l-0.1-0.3l0-0.2L129,24l-0.1-0.1l-0.2-0.2l-0.1-0.1l-0.2-0.2l-0.1-0.1l-0.3-0.2   l-0.2-0.1l-0.2-0.1l-0.2,0l-0.4,0l-0.2,0l-0.2,0l-0.2,0l-0.3,0.1l-0.2,0.1l-0.3,0.1l-0.2,0.1l-0.2,0.2l-0.1,0.1l-0.1,0.2l-0.1,0.1   l0,0.1l-0.1,0.2l-0.1,0.2l0,0.1l0,0.2l0,0.2l0,0.2l0,0.2v0.2l0,0.2l0,0.2l0,0.1l0,0.2l0,0.1l0.1,0.2l0,0.1l0.1,0.2l0.1,0.1l0.1,0.2   l0.1,0.1l0.1,0.1l0.2,0.2l0.2,0.1l0.2,0.1l0.2,0.1l0.2,0.1l0.2,0l0.3,0l0.2,0l0.3,0l0.2,0l0.2-0.1l0.2-0.1l0.2-0.2l0.1-0.1l0.2-0.2   l0.1-0.1L128.9,26.5z"
       id="path7929"
       style="fill:#ffffff;fill-opacity:1" /><path
       fill="#1E1E1E"
       d="M141.8,28.2l0,0.2l0,0.3l0,0.2l0,0.1l0,0.1l-0.1,0.1l-0.1,0.1l-0.1,0l-0.2,0h-0.2l-0.5,0l-0.2,0h-0.3   l-0.2,0l-0.4-0.1l-0.1,0l0-0.1l0-0.1l0-0.2l0-0.2l0-0.4v-1.1l0-0.7v-0.2l0-0.7v-0.9l0-0.1l-0.1,0h-0.1l-0.1,0.1l-0.1,0.2l-0.5,0.5   l-0.7,0.8l-0.5,0.6l-0.1,0.1l-0.1,0h-0.1l-0.1,0l-0.1,0l-0.1-0.1l-0.6-0.7l-0.4-0.6l-0.1-0.1l-0.6-0.7l-0.1-0.1l-0.1,0l0,0.1l0,0.7   v0.2l0,0.7v0.2l0,0.7v0.2l0,0.7v0.2l0,0.3l0,0.2l0,0.2l0,0.1l0,0.1l-0.1,0l-0.3,0l-0.2,0l-0.4,0l-0.2,0l-0.5,0H133l-0.1,0l-0.1-0.1   l0-0.1l0-0.1v-0.3l0-0.3v-1.7l0-0.6v-0.2l0-0.6l0-0.2l0-0.6v-0.2l0-0.6l0-0.2l0-0.6l0-0.2l0-0.6V22l0-0.4v-0.2l0-0.1l0-0.1l0.1-0.1   l0.1,0l0.1,0l0.2,0l0.2,0.1h0.2l0.3,0l0.2,0l0.2,0l0.4,0h0.1l0.1,0.1l0.1,0.1l0.4,0.4l0.1,0.1l0.3,0.5l0.1,0.1l0.4,0.4l0.1,0.2   l0.3,0.4l0.1,0.1l0.1,0.1h0.1l0.1-0.1l0.1-0.1l0.3-0.5l0.1-0.2l0.4-0.4l0.1-0.1l0.4-0.4l0.1-0.1l0.3-0.4l0.1-0.1l0.1-0.1l0.1-0.1   l0.1,0l0.6,0l0.5,0h0.2l0.3,0l0.2,0l0.1,0l0.1,0l0.1,0.1l0,0.1l0,0.1l0,0.5l0,0.2l0,0.6v0.2l0,0.6v0.2l0,0.6v0.2l0,0.6v0.2l0,0.6   v0.2l0,0.6v0.2l0,0.6v0.2L141.8,28.2z"
       id="path7931"
       style="fill:#ffffff;fill-opacity:1" /></g><path
     style="fill:#ffffff;fill-opacity:1;fill-rule:nonzero;stroke:none"
     d="m 32.59155,54.545295 c -2.339596,-0.780182 -4.026853,-2.971834 -4.20503,-5.462097 -0.06888,-0.962701 -0.01611,-1.285598 0.335726,-2.054101 0.659653,-1.440871 2.167852,-2.678483 3.275152,-2.687555 1.318452,-0.0108 3.140516,1.344626 3.140516,2.336219 0,0.634415 -0.500736,1.160485 -1.253682,1.317109 -0.290825,0.0605 -0.700652,0.21884 -0.910727,0.351877 -0.549329,0.347882 -0.52272,1.297031 0.05249,1.872241 0.387099,0.387099 0.521228,0.421799 1.230743,0.318394 1.25276,-0.182574 2.572636,-0.916409 3.165531,-1.759999 0.443839,-0.631504 0.515517,-0.882551 0.508637,-1.781457 -0.01041,-1.359937 -0.578152,-2.477149 -1.849141,-3.638761 -2.441902,-2.23176 -5.642487,-2.190806 -7.874545,0.100762 -1.429776,1.467897 -2.575732,4.154506 -2.575732,6.03861 0,0.542557 -0.07003,0.781846 -0.228796,0.781846 -0.125838,0 -0.678553,-0.477443 -1.228255,-1.060985 -1.913807,-2.031618 -2.261775,-2.085403 -4.572122,-0.706698 -1.843119,1.099887 -2.617682,1.272987 -3.426319,0.765716 -2.38824,-1.498187 -5.258475,-8.510107 -5.597757,-13.675194 -0.154441,-2.351146 0.334384,-4.998697 1.309833,-7.094253 l 0.217304,-0.466834 4.276527,0 4.276526,0 0.108671,1.400501 c 0.275703,3.553121 1.904598,6.770298 4.611212,9.107455 1.698323,1.466499 4.995014,2.902896 6.662468,2.902896 0.768993,0 1.399558,-0.637269 1.399558,-1.414438 0,-0.74389 -0.202524,-0.899006 -1.721979,-1.318881 -3.450389,-0.953457 -6.015794,-3.103317 -7.544582,-6.32251 -0.488127,-1.027856 -1.088653,-3.287348 -1.088653,-4.096076 0,-0.172549 0.986864,-0.244278 4.541016,-0.330059 3.612053,-0.08718 16.173018,-0.468633 21.072291,-0.63993 0.903009,-0.03157 0.917564,-0.02421 1.258359,0.636626 1.194338,2.315942 1.969528,5.319544 2.105716,8.158945 0.0543,1.131974 0.05091,2.248618 -0.0075,2.481432 -0.102524,0.408482 -0.146432,0.420804 -1.254518,0.352072 -1.342231,-0.08326 -1.85119,0.12257 -1.317205,0.532688 0.186278,0.143068 0.758838,0.38461 1.272355,0.536759 0.513517,0.152151 0.954933,0.294916 0.980924,0.317257 0.179127,0.153967 -1.189517,3.351632 -1.951409,4.559224 -0.368172,0.583552 -0.441406,0.626647 -0.696577,0.409914 -0.540338,-0.458945 -2.311851,-0.929116 -2.479381,-0.658045 -0.102308,0.165537 0.590515,0.828945 1.48231,1.419381 l 0.646141,0.427792 -0.835394,1.00383 c -0.845814,1.016344 -2.873735,2.941173 -3.098703,2.941173 -0.06736,0 -0.515324,-0.353212 -0.995481,-0.784914 -0.788155,-0.708619 -0.901317,-0.760628 -1.164223,-0.535076 -0.160166,0.137411 -0.443994,0.305096 -0.630727,0.372634 -0.368245,0.133185 -0.43228,0.05715 1.208034,1.434468 l 0.479039,0.402234 -0.504022,0.410917 c -0.824442,0.67215 -3.450548,1.889187 -5.087476,2.357726 -1.621242,0.46405 -4.706126,0.709609 -5.517123,0.439165 z m 6.790305,-23.111718 c 0.844858,-0.583808 1.118933,-0.56935 1.857601,0.09799 0.628012,0.567371 0.688763,0.589824 0.688763,0.254557 0,-0.202234 -0.11415,-0.588441 -0.253667,-0.858236 -0.687671,-1.329811 -2.137237,-1.355694 -3.330585,-0.05947 -0.353485,0.383959 -0.829446,1.35818 -0.829446,1.697754 0,0.06351 1.115531,-0.613091 1.867334,-1.132597 l 0,0 z"
     id="path7941"
     inkscape:connector-curvature="0" /><path
     style="fill:#ffffff;fill-opacity:1;fill-rule:nonzero;stroke:none"
     d="m 23.867288,24.088149 c 0.02665,-0.138382 0.324804,-0.190746 2.15116,-0.377802 2.018933,-0.20678 3.215275,-0.26434 5.491682,-0.264221 2.730787,1.42e-4 4.966587,0.145647 7.502297,0.488244 l 0.780239,0.105418 -2.310707,0.04144 c -1.27089,0.02279 -4.859077,0.05952 -7.97375,0.08161 -5.556998,0.03942 -5.662627,0.03802 -5.640921,-0.07469 z"
     id="path8453"
     inkscape:connector-curvature="0" /><path
     style="fill:#ffffff;fill-opacity:1;fill-rule:nonzero;stroke:none"
     d="m 22.302962,24.192396 c 0.346937,-0.06409 1.518536,-0.254563 1.565807,-0.254563 0.0094,0 0.0025,0.021 -0.03105,0.09565 -0.02367,0.05261 -0.05075,0.114529 -0.06018,0.137598 l -0.01715,0.04194 -0.241064,0.0049 c -0.132585,0.0027 -0.495954,0.0046 -0.807487,0.0042 l -0.566424,-6.98e-4 0.157549,-0.0291 0,0 z"
     id="path8455"
     inkscape:connector-curvature="0" /><path
     style="fill:#ffffff;fill-opacity:1;fill-rule:nonzero;stroke:none"
     d=""
     id="path8457"
     inkscape:connector-curvature="0" /><path
     style="fill:#ffffff;fill-opacity:1;fill-rule:nonzero;stroke:none"
     d=""
     id="path8459"
     inkscape:connector-curvature="0" /><path
     style="fill:#ffffff;fill-opacity:1;fill-rule:nonzero;stroke:none"
     d="m 23.764479,24.217947 c 0,-0.004 0.09194,-0.213732 0.109891,-0.250722 l 0.01706,-0.03516 0.183593,-0.02619 c 1.067399,-0.15227 2.241296,-0.280093 3.347657,-0.36452 0.21087,-0.01609 0.857947,-0.06046 0.881755,-0.06046 0.0017,0 0.003,0.162332 0.003,0.360738 l 0,0.360739 -0.430664,0.0027 c -0.423102,0.0026 -1.65687,0.0073 -3.287109,0.01257 -0.453858,0.0015 -0.825196,0.0016 -0.825196,3.4e-4 z"
     id="path8461"
     inkscape:connector-curvature="0" /><path
     style="fill:#ffffff;fill-opacity:1;fill-rule:nonzero;stroke:none"
     d="m 23.764479,24.21795 c 0,-0.004 0.09193,-0.213716 0.109891,-0.250725 l 0.01706,-0.03516 0.197265,-0.02811 c 1.061949,-0.151352 2.2276,-0.278133 3.333985,-0.362619 0.213914,-0.01634 0.856894,-0.06044 0.881131,-0.06044 0.0022,0 0.0036,0.140873 0.0036,0.360736 l 0,0.360735 -0.428711,0.0027 c -0.423877,0.0026 -1.676597,0.0074 -3.285156,0.01258 -0.456006,0.0015 -0.829102,0.0016 -0.829102,3.41e-4 z"
     id="path8463"
     inkscape:connector-curvature="0" /><path
     style="fill:#ffffff;fill-opacity:1;fill-rule:nonzero;stroke:none"
     d="m 23.764479,24.217818 c 0,-0.0041 0.09142,-0.212553 0.109888,-0.250593 l 0.01707,-0.03516 0.197265,-0.02812 c 1.060636,-0.151221 2.228714,-0.278267 3.333985,-0.362623 0.215878,-0.01648 0.856482,-0.06042 0.880764,-0.06042 0.0027,0 0.004,0.117124 0.004,0.360746 l 0,0.360746 -0.428711,0.0027 c -0.425826,0.0026 -1.685226,0.0075 -3.28125,0.01258 -0.458154,0.0015 -0.833008,0.0015 -0.833008,1.84e-4 z"
     id="path8465"
     inkscape:connector-curvature="0" /><path
     style="fill:#ffffff;fill-opacity:1;fill-rule:nonzero;stroke:none"
     d="m 23.764479,24.217944 c 0,-0.0051 0.09497,-0.221427 0.114355,-0.260484 l 0.0126,-0.02539 0.238281,-0.0338 c 1.055679,-0.149741 2.225701,-0.276392 3.314453,-0.358779 0.208428,-0.01577 0.835421,-0.0586 0.857923,-0.0586 0.0045,0 0.0054,0.05769 0.0054,0.36077 l 0,0.360769 -0.424804,0.0027 c -0.432833,0.0027 -1.754249,0.0078 -3.273438,0.01257 -0.4646,0.0015 -0.844727,0.0016 -0.844727,2.83e-4 z"
     id="path8467"
     inkscape:connector-curvature="0" /><path
     style="fill:#ffffff;fill-opacity:1;fill-rule:nonzero;stroke:none"
     d="m 23.764479,24.217818 c 0,-0.0044 0.09155,-0.213399 0.109751,-0.250593 l 0.0172,-0.03516 0.169921,-0.02422 c 0.885669,-0.126258 1.84897,-0.237381 2.716797,-0.313401 0.391108,-0.03426 0.440409,-0.03825 0.845703,-0.06848 0.118853,-0.0089 0.663179,-0.04507 0.677566,-0.04507 0.0054,0 0.006,0.0382 0.006,0.360786 l 0,0.360786 -0.422851,0.0026 c -0.440936,0.0028 -1.798858,0.008 -3.263672,0.01258 -0.471045,0.0015 -0.856446,0.0015 -0.856446,1.2e-4 z"
     id="path8469"
     inkscape:connector-curvature="0" /><path
     style="fill:#ffffff;fill-opacity:1;fill-rule:nonzero;stroke:none"
     d="m 23.764479,24.218027 c 0,-0.009 0.119251,-0.276085 0.126152,-0.282571 0.0026,-0.0024 0.01789,-0.0063 0.03401,-0.0086 1.113915,-0.159402 2.138855,-0.275148 3.238281,-0.365697 0.252855,-0.02082 1.095158,-0.08025 1.137508,-0.08025 0.0067,0 0.007,0.01612 0.007,0.360812 l 0,0.360812 -0.413086,0.0026 c -0.98529,0.0063 -4.129883,0.01607 -4.129883,0.01288 z"
     id="path8471"
     inkscape:connector-curvature="0" /><path
     style="fill:#ffffff;fill-opacity:1;fill-rule:nonzero;stroke:none"
     d="m 23.766441,24.21134 c 0.0045,-0.01423 0.09243,-0.213184 0.109594,-0.248021 l 0.0154,-0.03125 0.04492,-0.0067 c 0.96797,-0.143415 2.296608,-0.2921 3.324219,-0.372006 0.336311,-0.02615 1.000283,-0.07251 1.038518,-0.07251 l 0.0084,0 0,0.360852 0,0.360851 -0.40332,0.0026 c -0.446466,0.0029 -1.896741,0.0085 -3.256321,0.01257 l -0.884252,0.0027 0.0029,-0.0091 0,0 z"
     id="path8473"
     inkscape:connector-curvature="0" /><path
     style="fill:#ffffff;fill-opacity:1;fill-rule:nonzero;stroke:none"
     d=""
     id="path8475"
     inkscape:connector-curvature="0" /><path
     style="fill:#ffffff;fill-opacity:1;fill-rule:nonzero;stroke:none"
     d=""
     id="path8477"
     inkscape:connector-curvature="0" /><path
     style="fill:#ffffff;fill-opacity:1;fill-rule:nonzero;stroke:none"
     d=""
     id="path8479"
     inkscape:connector-curvature="0" /><path
     style="fill:#ffffff;fill-opacity:1;fill-rule:nonzero;stroke:none"
     d="m 23.766398,24.211475 c 0.0016,-0.0049 0.01939,-0.04678 0.03962,-0.09299 0.02022,-0.04621 0.03593,-0.08486 0.03489,-0.0859 -0.001,-0.001 0.0014,-0.0083 0.0053,-0.01604 l 0.0072,-0.01416 2.226981,9.83e-4 2.226981,9.83e-4 0,0.09913 0,0.09913 -0.383789,0.0026 c -0.437355,0.0029 -1.934554,0.0087 -3.26023,0.01263 l -0.899879,0.0027 0.0028,-0.009 z"
     id="path8481"
     inkscape:connector-curvature="0" /><path
     style="fill:#ffffff;fill-opacity:1;fill-rule:nonzero;stroke:none"
     d=""
     id="path8483"
     inkscape:connector-curvature="0" /><path
     style="fill:#ffffff;fill-opacity:1;fill-rule:nonzero;stroke:none"
     d="m 23.766183,24.212153 c 0.0014,-0.0046 0.01836,-0.0446 0.03758,-0.08896 0.01922,-0.04436 0.03514,-0.08442 0.03539,-0.08901 3.58e-4,-0.0066 8.29e-4,-0.0069 0.0022,-0.0015 0.0017,0.0065 0.111363,0.0068 2.233922,0.0068 l 2.232135,0 0,0.08156 0,0.08156 -0.368164,0.0025 c -0.432766,0.003 -1.970633,0.009 -3.262185,0.01269 l -0.913553,0.0026 0.0026,-0.0083 z"
     id="path8485"
     inkscape:connector-curvature="0" /><path
     style="fill:#ffffff;fill-opacity:1;fill-rule:nonzero;stroke:none"
     d="m 22.203933,24.213154 c 0.166215,-0.03518 1.530688,-0.259864 1.639614,-0.269988 0.03125,-0.0029 0.03114,-0.0032 0.01464,0.03552 -0.0064,0.01489 -0.01109,0.02754 -0.01052,0.02811 0.0035,0.0035 0.01151,-0.0088 0.02592,-0.03991 l 0.01644,-0.0355 0.172578,-0.02435 c 1.174365,-0.165719 2.289151,-0.286224 3.453829,-0.373349 0.18403,-0.01377 0.760103,-0.05272 0.780273,-0.05276 l 0.01074,-2.2e-5 0,0.360854 0,0.360853 -0.344726,0.0025 c -0.928368,0.0067 -4.198243,0.01647 -4.198243,0.0125 0,-0.0016 0.01072,-0.02779 0.02382,-0.05826 0.0131,-0.03047 0.02471,-0.05759 0.02581,-0.06028 0.0011,-0.0027 1.91e-4,-0.0049 -0.002,-0.0049 -0.0022,0 -0.01504,0.02617 -0.02854,0.05815 l -0.02454,0.05815 -0.06269,0.0024 c -0.03448,0.0013 -0.390527,0.0032 -0.791211,0.0042 -0.650279,0.0016 -0.725579,0.0012 -0.701171,-0.004 z m 1.618429,-0.132647 c 0.0052,-0.01148 -9.55e-4,-0.01344 -0.007,-0.0022 -0.0049,0.0092 -0.0051,0.01197 -7.64e-4,0.01197 0.0018,0 0.0053,-0.0044 0.0077,-0.0098 z m 0.01229,-0.03493 c -1.27e-4,-0.0074 -6.18e-4,-0.0072 -0.0057,0.0017 -0.0077,0.01348 -0.0076,0.02413 1.24e-4,0.0139 0.0032,-0.0042 0.0057,-0.0112 0.0056,-0.01563 l 0,0 z"
     id="path8487"
     inkscape:connector-curvature="0" /><path
     style="fill:#ffffff;fill-opacity:1;fill-rule:nonzero;stroke:none"
     d="m 22.225417,24.209205 c 0.219587,-0.04388 1.508415,-0.255764 1.618164,-0.266027 0.01815,-0.0017 0.02637,-0.0011 0.02637,0.0019 0,0.0024 -0.0037,0.01362 -0.0082,0.02497 -0.0045,0.01136 -0.0097,0.02461 -0.01162,0.02944 -0.0021,0.0054 -0.002,0.0088 4.08e-4,0.0088 0.0021,0 0.01198,-0.01758 0.02195,-0.03906 0.01,-0.02148 0.01979,-0.03906 0.02181,-0.03906 0.002,0 0.110314,-0.01499 0.240649,-0.03331 1.184468,-0.166494 2.383685,-0.292825 3.594394,-0.378648 0.173235,-0.01228 0.553889,-0.03726 0.567773,-0.03726 l 0.01035,0 0,0.360854 0,0.360854 -0.333008,0.0025 c -0.406493,0.0031 -1.96664,0.0092 -3.256327,0.01272 l -0.954569,0.0026 0.0028,-0.009 c 0.0016,-0.0049 0.0132,-0.03282 0.02586,-0.06198 0.02553,-0.05881 0.0243,-0.05534 0.0196,-0.05534 -0.0019,0 -0.01455,0.02617 -0.02817,0.05815 l -0.02476,0.05815 -0.06265,0.0024 c -0.03446,0.0013 -0.390484,0.0032 -0.791168,0.0042 l -0.728515,0.0018 0.04883,-0.0098 z m 1.595285,-0.125112 c 0.0043,-0.01113 0.0022,-0.01546 -0.0036,-0.0077 -0.0032,0.0042 -0.0057,0.009 -0.0057,0.01074 0,0.0056 0.0069,0.0034 0.0093,-0.003 z m 0.01403,-0.03777 c -4.8e-5,-0.0071 -7.84e-4,-0.0077 -0.0038,-0.0029 -0.0049,0.0076 -0.0049,0.01172 0,0.01172 0.0021,0 0.0039,-0.004 0.0038,-0.0088 z"
     id="path8489"
     inkscape:connector-curvature="0" /><path
     style="fill:#ffffff;fill-opacity:1;fill-rule:nonzero;stroke:none"
     d="m 22.225417,24.209222 c 0.224391,-0.04478 1.506904,-0.25564 1.618164,-0.266044 0.01815,-0.0017 0.02637,-0.0011 0.02637,0.0019 0,0.0024 -0.0037,0.01362 -0.0082,0.02497 -0.0045,0.01136 -0.0097,0.02461 -0.01162,0.02944 -0.0019,0.0048 -0.0021,0.0088 -4.15e-4,0.0088 0.0046,0 0.02463,-0.04294 0.02203,-0.04715 -0.0013,-0.002 3.08e-4,-0.0047 0.0035,-0.0059 0.0032,-0.0012 0.0078,-0.0071 0.01025,-0.01307 0.0041,-0.01 0.0071,-0.01123 0.03649,-0.01541 1.310992,-0.186269 2.41382,-0.306083 3.670662,-0.398793 0.178717,-0.01318 0.684567,-0.04703 0.702862,-0.04703 l 0.01198,0 0,0.360855 0,0.360855 -0.313476,0.0025 c -0.804697,0.0064 -4.229493,0.01665 -4.229493,0.01264 0,-0.0015 0.0026,-0.009 0.0059,-0.01675 0.0069,-0.01648 0.007,-0.01698 0.0023,-0.01698 -0.002,0 -0.0056,0.0059 -0.008,0.0132 l -0.0044,0.0132 -0.06138,0.0024 c -0.03376,0.0013 -0.390087,0.0033 -0.791844,0.0043 l -0.730469,0.0018 0.04883,-0.0097 z m 1.567345,-0.06133 c 0.0056,-0.01343 0.01307,-0.03144 0.01666,-0.04004 0.0053,-0.01262 0.0054,-0.0145 7.44e-4,-0.0098 -0.0046,0.0046 -0.03397,0.06777 -0.03397,0.07295 0,6.96e-4 0.0014,0.0013 0.0032,0.0013 0.0018,0 0.0078,-0.01099 0.01335,-0.02441 z m 0.02794,-0.0638 c 0.0043,-0.01113 0.0022,-0.01546 -0.0036,-0.0077 -0.0032,0.0042 -0.0057,0.009 -0.0057,0.01074 0,0.0056 0.0069,0.0034 0.0093,-0.003 z m 0.01403,-0.03777 c -4.8e-5,-0.0071 -7.84e-4,-0.0077 -0.0038,-0.0029 -0.0049,0.0076 -0.0049,0.01172 0,0.01172 0.0021,0 0.0039,-0.004 0.0038,-0.0088 z"
     id="path8491"
     inkscape:connector-curvature="0" /><path
     style="fill:#ffffff;fill-opacity:1;fill-rule:nonzero;stroke:none"
     d="m 22.180495,24.217365 c 0.004,-0.0018 0.09503,-0.01824 0.292969,-0.05298 0.167696,-0.02944 0.664088,-0.111757 0.930637,-0.154332 0.410017,-0.06549 0.465847,-0.07328 0.465847,-0.06502 0,0.0024 -0.0037,0.01362 -0.0082,0.02497 -0.01531,0.03852 -0.0154,0.0388 -0.01116,0.03618 0.0022,-0.0014 0.0121,-0.01884 0.02196,-0.03882 0.01768,-0.03584 0.01813,-0.03635 0.03403,-0.03856 0.0089,-0.0012 0.09082,-0.01278 0.182131,-0.02567 1.382627,-0.195166 2.772934,-0.33526 4.174805,-0.420674 l 0.04395,-0.0027 0,0.361412 0,0.361411 -0.301758,0.0025 c -0.779258,0.0065 -4.241211,0.01679 -4.241211,0.01262 0,-0.0015 0.0026,-0.009 0.0059,-0.01675 0.0069,-0.01648 0.007,-0.01698 0.0023,-0.01698 -0.002,0 -0.0056,0.006 -0.008,0.01324 l -0.0044,0.01324 -0.05746,0.0023 c -0.06742,0.0027 -1.528056,0.0071 -1.5223,0.0045 z m 1.605051,-0.05124 c 0.0013,-0.0034 0.0023,-0.0091 0.0022,-0.0127 -9.9e-5,-0.0047 -0.0017,-0.0037 -0.0057,0.0032 -0.0031,0.0054 -0.0056,0.01108 -0.0057,0.0127 -2.59e-4,0.0055 0.0068,0.003 0.0092,-0.0032 z m 0.01267,-0.03561 c -0.0016,-0.0016 -0.0045,-3.23e-4 -0.0065,0.0028 -0.006,0.0095 -0.0042,0.01374 0.0028,0.0067 0.0036,-0.0036 0.0053,-0.0079 0.0037,-0.0095 z m 0.0053,-0.0066 c 0,-8.12e-4 0.0027,-0.0078 0.0059,-0.01563 0.0079,-0.01899 0.004,-0.01801 -0.0059,0.0015 -0.0044,0.0086 -0.0062,0.01563 -0.004,0.01563 0.0022,0 0.004,-6.64e-4 0.004,-0.0015 z m 0.01716,-0.03986 c 0.0034,-0.0089 0.0029,-0.01415 -0.0011,-0.01169 -0.0046,0.0029 -0.0084,0.01787 -0.0044,0.01787 0.0017,0 0.0042,-0.0028 0.0055,-0.0062 l 0,0 z m 0.01409,-0.03507 c 0,-0.0033 -0.0018,-0.005 -0.0039,-0.0037 -0.0021,0.0013 -0.0039,0.0041 -0.0039,0.0061 0,0.002 0.0018,0.0037 0.0039,0.0037 0.0021,0 0.0039,-0.0027 0.0039,-0.0061 z"
     id="path8493"
     inkscape:connector-curvature="0" /><path
     style="fill:#ffffff;fill-opacity:1;fill-rule:nonzero;stroke:none"
     d="m 22.213698,24.211176 c 0.185378,-0.03826 1.506648,-0.25584 1.626365,-0.267822 0.02088,-0.0021 0.02752,-0.0015 0.03021,0.0028 0.0028,0.0044 0.0035,0.0042 0.0035,-0.001 3.1e-5,-0.0036 -0.0021,-0.0074 -0.0048,-0.0085 -0.0027,-0.0011 -9.28e-4,-0.0021 0.0039,-0.0023 0.0058,-2.06e-4 0.0088,0.002 0.0089,0.0065 1.03e-4,0.006 6.81e-4,0.0058 0.0045,-9.76e-4 0.0024,-0.0043 0.0046,-0.0081 0.0048,-0.0085 0.0015,-0.0023 0.550373,-0.07762 0.818687,-0.112342 0.913917,-0.118286 1.847813,-0.213594 2.776932,-0.283399 0.22052,-0.01657 0.782901,-0.05471 0.806682,-0.05471 l 0.01404,0 0,0.360857 0,0.360856 -0.282226,0.0025 c -0.35544,0.0032 -1.929876,0.0093 -3.25,0.01274 -0.870192,0.0023 -1.010723,0.0018 -1.010604,-0.0029 7.6e-5,-0.003 0.0027,-0.0099 0.0057,-0.01529 0.0064,-0.01121 0.0072,-0.01563 0.0027,-0.01563 -0.0017,0 -0.0053,0.006 -0.0079,0.01323 l -0.0048,0.01323 -0.05557,0.0023 c -0.03056,0.0013 -0.386919,0.0032 -0.791899,0.0042 l -0.736328,0.0018 0.03711,-0.0077 z m 1.571848,-0.04505 c 0.0013,-0.0034 0.0023,-0.0091 0.0022,-0.0127 -9.9e-5,-0.0047 -0.0017,-0.0037 -0.0057,0.0032 -0.0031,0.0054 -0.0056,0.01108 -0.0057,0.0127 -2.59e-4,0.0055 0.0068,0.003 0.0092,-0.0032 z m 0.01267,-0.03561 c -0.0016,-0.0016 -0.0045,-3.23e-4 -0.0065,0.0028 -0.006,0.0095 -0.0042,0.01374 0.0028,0.0067 0.0036,-0.0036 0.0053,-0.0079 0.0037,-0.0095 z m 0.0093,-0.01693 c 0.0069,-0.01674 0.0027,-0.0182 -0.0051,-0.0018 -0.0036,0.0075 -0.005,0.01362 -0.0031,0.01362 0.0019,0 0.0056,-0.0053 0.0083,-0.01184 z m 0.0132,-0.02949 c 0.0034,-0.0089 0.0029,-0.01415 -0.0011,-0.01169 -0.0046,0.0029 -0.0084,0.01787 -0.0044,0.01787 0.0017,0 0.0042,-0.0028 0.0055,-0.0062 l 0,0 z m 0.01334,-0.03885 c -0.0012,-0.0012 -0.0034,9.65e-4 -0.0049,0.0048 -0.0021,0.0056 -0.0017,0.006 0.0022,0.0022 0.0027,-0.0026 0.0039,-0.0058 0.0027,-0.007 z m 0.02796,-0.06217 c -1.26e-4,-0.0074 -6.17e-4,-0.0072 -0.0057,0.0017 -0.0077,0.01348 -0.0076,0.02413 1.25e-4,0.0139 0.0032,-0.0042 0.0057,-0.0112 0.0056,-0.01563 l 0,0 z m 0.01109,-0.02896 c -0.0057,-0.0022 -0.0075,0.0016 -0.0045,0.0093 0.0026,0.0068 0.0029,0.0067 0.0054,-4.18e-4 0.0015,-0.0041 0.0011,-0.0081 -9.28e-4,-0.0089 z"
     id="path8495"
     inkscape:connector-curvature="0" /><path
     style="fill:#ffffff;fill-opacity:1;fill-rule:nonzero;stroke:none"
     d="m 22.213698,24.21116 c 0.186214,-0.03857 1.504243,-0.255608 1.626365,-0.26781 0.02088,-0.0021 0.02752,-0.0015 0.03021,0.0028 0.0027,0.0043 0.0035,0.0039 0.0035,-0.0019 4.8e-5,-0.0059 0.0012,-0.0064 0.0056,-0.0027 0.0044,0.0037 0.006,0.003 0.0079,-0.003 0.0028,-0.0088 -0.02091,-0.0048 0.269742,-0.04531 1.206576,-0.167958 2.327222,-0.286123 3.539062,-0.373171 0.166396,-0.01195 0.581735,-0.03921 0.597443,-0.03921 l 0.01389,0 0,0.360857 0,0.360858 -0.270508,0.0025 c -0.344814,0.0032 -1.934961,0.0094 -3.251953,0.01277 -0.799603,0.002 -1.020508,0.0016 -1.020508,-0.0021 0,-0.0026 0.0028,-0.0101 0.0061,-0.01663 0.0034,-0.0065 0.0052,-0.01282 0.0041,-0.01396 -0.0011,-0.0011 -0.005,0.0041 -0.0086,0.01163 l -0.0065,0.0137 -0.0493,0.0024 c -0.02711,0.0013 -0.383283,0.0032 -0.791486,0.0042 l -0.742187,0.0018 0.03711,-0.0077 z m 1.574219,-0.05448 c 0,-0.0021 -7.75e-4,-0.0039 -0.0017,-0.0039 -9.47e-4,0 -0.0028,0.0018 -0.0041,0.0039 -0.0013,0.0021 -5.53e-4,0.0039 0.0017,0.0039 0.0023,0 0.0041,-0.0018 0.0041,-0.0039 z m 0.0078,-0.01953 c 0.0023,-0.0043 0.0026,-0.0078 5.94e-4,-0.0078 -0.002,0 -0.0045,0.0035 -0.0056,0.0078 -0.0011,0.0043 -0.0014,0.0078 -5.93e-4,0.0078 7.98e-4,0 0.0033,-0.0035 0.0056,-0.0078 l 0,0 z m 0.0066,-0.02026 c -0.0012,-0.0031 -0.0022,-0.0022 -0.0024,0.0024 -1.69e-4,0.0041 7.54e-4,0.0064 0.0021,0.0051 0.0013,-0.0013 0.0014,-0.0047 3.08e-4,-0.0075 l 0,0 z m 0.0201,-0.0423 c -8.67e-4,-0.0026 -0.0038,3e-4 -0.0066,0.0065 -0.0047,0.01047 -0.0046,0.01077 0.0016,0.0047 0.0036,-0.0035 0.0059,-0.0086 0.005,-0.01119 l 0,0 z m 0.01164,-0.02934 c -0.0012,-0.0012 -0.0034,9.65e-4 -0.0049,0.0048 -0.0021,0.0056 -0.0017,0.006 0.0022,0.0022 0.0027,-0.0026 0.0039,-0.0058 0.0027,-0.007 z m 0.02798,-0.06217 c -9.5e-5,-0.0064 -7.86e-4,-0.0069 -0.0034,-0.0022 -0.0018,0.0032 -0.0045,0.01025 -0.0059,0.01563 -0.0025,0.0094 -0.0024,0.0095 0.0034,0.0022 0.0033,-0.0042 0.006,-0.0112 0.0059,-0.01563 z m 0.01323,-0.02927 c -0.0034,-0.0037 -0.0099,0.0072 -0.007,0.01183 0.0023,0.0037 0.0038,0.003 0.0058,-0.0026 0.0015,-0.0042 0.0021,-0.0083 0.0012,-0.0092 z"
     id="path8497"
     inkscape:connector-curvature="0" /><path
     style="fill:#ffffff;fill-opacity:1;fill-rule:nonzero;stroke:none"
     d="m 22.436354,24.219178 -0.263671,-0.002 0.03711,-0.0069 c 0.312498,-0.05843 1.3501,-0.229895 1.589712,-0.262699 0.0525,-0.0072 0.06892,-0.0083 0.07123,-0.0046 0.0022,0.0035 0.003,0.0034 0.0031,-5.77e-4 3.5e-5,-0.003 0.0025,-0.0044 0.0056,-0.0032 0.003,0.0012 0.0064,-2.22e-4 0.0075,-0.0031 0.0025,-0.0065 0.0081,-0.0074 0.264271,-0.043 1.131024,-0.15715 2.162526,-0.26866 3.269531,-0.353452 0.246479,-0.01888 0.727953,-0.05196 0.834961,-0.05737 l 0.05176,-0.0026 0,0.361471 0,0.361472 -0.157226,0.0024 c -0.204444,0.0031 -1.781827,0.0096 -2.956055,0.01216 -0.508105,0.0011 -1.037887,0.003 -1.177292,0.0042 l -0.253464,0.0022 0.0026,-0.01279 c 0.0023,-0.01164 0.0021,-0.01212 -0.0029,-0.0053 -0.0052,0.0071 -0.01495,0.0076 -0.188547,0.01058 -0.237916,0.0041 -0.804014,0.0057 -1.138183,0.0032 z m 1.425662,-0.236328 c 0,-0.0021 -0.0017,-0.0013 -0.0038,0.002 -0.0021,0.0032 -0.0038,0.0076 -0.0038,0.0098 0,0.0021 0.0017,0.0013 0.0038,-0.002 0.0021,-0.0032 0.0038,-0.0076 0.0038,-0.0098 z m 0.0106,-0.02612 c -0.0012,-0.0031 -0.0022,-0.0022 -0.0024,0.0024 -1.7e-4,0.0041 7.53e-4,0.0064 0.0021,0.0051 0.0013,-0.0013 0.0014,-0.0047 3.08e-4,-0.0075 l 1e-6,0 z"
     id="path8499"
     inkscape:connector-curvature="0" /><path
     style="fill:#ffffff;fill-opacity:1;fill-rule:nonzero;stroke:none"
     d="m 22.395339,24.219178 c -0.185685,-0.0016 -0.218765,-0.0027 -0.199219,-0.0066 0.263595,-0.05189 1.551768,-0.263066 1.6616,-0.27239 0.01368,-0.0012 0.02724,-0.0041 0.03013,-0.0065 0.0075,-0.0063 0.449571,-0.06819 0.888383,-0.124457 1.039698,-0.133314 2.125165,-0.238586 3.164028,-0.306856 0.114941,-0.0076 0.233923,-0.01549 0.264404,-0.01764 0.03048,-0.0021 0.06608,-0.0039 0.0791,-0.0039 l 0.02368,0 0,0.360873 0,0.360873 -0.141601,0.0024 c -0.164622,0.0028 -1.660304,0.0092 -2.833008,0.01212 -0.446875,0.0011 -0.983465,0.0031 -1.192423,0.0043 l -0.379923,0.0023 0.0041,-0.01071 c 0.0037,-0.0096 0.0034,-0.01018 -0.0023,-0.0055 -0.0049,0.0041 -0.04066,0.0059 -0.161257,0.0081 -0.207599,0.0038 -0.928937,0.0059 -1.205718,0.0035 z m 1.466677,-0.236328 c 0,-0.0021 -0.0017,-0.0013 -0.0038,0.002 -0.0021,0.0032 -0.0038,0.0076 -0.0038,0.0098 0,0.0021 0.0017,0.0013 0.0038,-0.002 0.0021,-0.0032 0.0038,-0.0076 0.0038,-0.0098 z"
     id="path8501"
     inkscape:connector-curvature="0" /><path
     style="fill:#ffffff;fill-opacity:1;fill-rule:nonzero;stroke:none"
     d="m 22.389479,24.219178 c -0.119238,-0.0011 -0.210644,-0.0033 -0.203125,-0.005 0.139177,-0.03113 1.597226,-0.270763 1.689454,-0.277659 0.0043,-3.22e-4 0.01011,-0.0021 0.01293,-0.0039 0.0059,-0.0038 0.235146,-0.03693 0.514417,-0.07443 1.121963,-0.150659 2.149322,-0.256983 3.248047,-0.33615 0.264688,-0.01907 0.604165,-0.04117 0.632501,-0.04117 l 0.02375,0 0,0.360877 0,0.360877 -0.125976,0.0024 c -0.267436,0.0051 -4.213719,0.01811 -5.100586,0.01678 -0.261035,-3.92e-4 -0.572168,-0.0016 -0.691407,-0.0027 z m 1.20422,-0.0029 c -0.0091,-8.19e-4 -0.02489,-8.29e-4 -0.03516,-2.3e-5 -0.01027,8.07e-4 -0.0029,0.0015 0.01648,0.0015 0.01934,1.2e-5 0.02774,-6.49e-4 0.01867,-0.0015 l 0,2e-6 z m 0.17078,-0.0041 c 0,-0.0017 -0.007,-0.0024 -0.01563,-0.0015 -0.0086,8.2e-4 -0.01563,0.0022 -0.01563,0.003 0,8.49e-4 0.007,0.0015 0.01563,0.0015 0.0086,0 0.01563,-0.0014 0.01563,-0.003 z"
     id="path8507"
     inkscape:connector-curvature="0" /><path
     style="fill:#ffffff;fill-opacity:1;fill-rule:nonzero;stroke:none"
     d="m 22.354323,24.21923 -0.18164,-0.002 0.04297,-0.0087 c 0.162686,-0.033 1.229708,-0.209905 1.525391,-0.252903 0.05264,-0.0077 0.108887,-0.01655 0.125,-0.01978 0.06102,-0.0122 0.346903,-0.05288 0.697266,-0.0992 0.92476,-0.122262 1.85413,-0.219942 2.769531,-0.291085 0.34743,-0.027 0.899964,-0.06465 0.948792,-0.06465 l 0.02582,0 0,0.360882 0,0.360882 -0.110351,0.0024 c -0.0984,0.0022 -0.622939,0.0046 -2.594727,0.01225 -0.79064,0.0031 -3.024778,0.0044 -3.248047,0.0019 l 0,0 z"
     id="path8509"
     inkscape:connector-curvature="0" /></svg>