<?xml version="1.0" encoding="UTF-8" standalone="no"?>
<!-- Created with Inkscape (http://www.inkscape.org/) -->

<svg
   xmlns:dc="http://purl.org/dc/elements/1.1/"
   xmlns:cc="http://creativecommons.org/ns#"
   xmlns:rdf="http://www.w3.org/1999/02/22-rdf-syntax-ns#"
   xmlns:svg="http://www.w3.org/2000/svg"
   xmlns="http://www.w3.org/2000/svg"
   xmlns:sodipodi="http://sodipodi.sourceforge.net/DTD/sodipodi-0.dtd"
   xmlns:inkscape="http://www.inkscape.org/namespaces/inkscape"
   width="210mm"
   height="297mm"
   id="svg2"
   version="1.1"
   inkscape:version="0.48.5 r10040"
   sodipodi:docname="phpcomrapadura_branca.svg">
  <defs
     id="defs4" />
  <sodipodi:namedview
     id="base"
     pagecolor="#ffffff"
     bordercolor="#666666"
     borderopacity="1.0"
     inkscape:pageopacity="0.0"
     inkscape:pageshadow="2"
     inkscape:zoom="0.088388348"
     inkscape:cx="2592.3288"
     inkscape:cy="-986.96114"
     inkscape:document-units="px"
     inkscape:current-layer="layer1"
     showgrid="false"
     inkscape:window-width="1366"
     inkscape:window-height="702"
     inkscape:window-x="0"
     inkscape:window-y="27"
     inkscape:window-maximized="1" />
  <metadata
     id="metadata7">
    <rdf:RDF>
      <cc:Work
         rdf:about="">
        <dc:format>image/svg+xml</dc:format>
        <dc:type
           rdf:resource="http://purl.org/dc/dcmitype/StillImage" />
        <dc:title></dc:title>
      </cc:Work>
    </rdf:RDF>
  </metadata>
  <g
     inkscape:label="Camada 1"
     inkscape:groupmode="layer"
     id="layer1">
    <g
       style="fill:#ffffff"
       id="g6632"
       transform="matrix(3.6895428,0,0,3.6895428,-1.2374488,212.25971)">
      <g
         style="fill:#ffffff"
         id="g6634">
        <g
           style="fill:#ffffff"
           id="g6636">
          <path
             id="path6638"
             d="m 34.1,50.5 c 5.6,-0.9 4.5,-6.3 0.1,-8.3 -6,-2.7 -10.6,6.7 -7.6,11.3 3.8,5.8 12,4 17,1 6.8,-4 11.3,-10.9 11.1,-18.9 C 54.4,23.5 42.7,13 30.7,15.8 16.6,19 17.9,39 31.8,41.4 33.4,41.7 34.1,39.3 32.5,39 23.1,37.4 19.1,24.8 28,19.5 c 4.7,-2.8 10.1,-1.9 14.7,0.5 5.8,3 8.9,9.3 9.5,15.6 0.6,6.1 -2.8,11.3 -7.3,15 -3.2,2.7 -6.9,4.2 -11.1,4.2 -5.4,-0.1 -8,-8.3 -2.5,-10.4 2.4,-1 6.3,3.1 2.2,3.8 -1.6,0.1 -0.9,2.5 0.6,2.3 l 0,0 z"
             inkscape:connector-curvature="0"
             style="fill:#ffffff" />
        </g>
      </g>
      <g
         style="fill:#ffffff"
         id="g6640">
        <g
           style="fill:#ffffff"
           id="g6642">
          <path
             id="path6644"
             d="m 26.5,50.3 c -2.4,1.2 -3,-4 -5.7,-2.4 -2.9,1.7 -4.1,3.2 -6.5,-0.5 C 13.3,45.9 12.6,44.3 12,42.6 9.8,36.5 9.5,30.3 14,25.2 18.6,20 26,17 32.9,17.7 c 1.6,0.2 1.6,-2.3 0,-2.5 -7.8,-0.9 -15.2,2.8 -20.6,8.2 -5.2,5.2 -4.9,12.1 -3,18.7 1.1,3.9 3.7,10.6 8.4,11 0.5,0 1.4,-0.3 1.8,-0.7 0.7,-0.9 1.5,-1.5 2.6,-1.8 0.4,0.5 0.5,1.2 1,1.6 1.4,1.4 3.2,1 4.8,0.2 1.3,-0.7 0,-2.9 -1.4,-2.1 l 0,0 z"
             inkscape:connector-curvature="0"
             style="fill:#ffffff" />
        </g>
      </g>
      <g
         style="fill:#ffffff"
         id="g6646">
        <path
           id="path6648"
           d="m 37.6,32.5 c 0,0 0.1,-0.4 0.3,-0.9 0.1,-0.3 0.3,-0.6 0.6,-0.8 0.3,-0.3 0.6,-0.6 1,-0.7 C 39.7,30 40,30 40.2,30 c 0.3,0 0.5,0.1 0.7,0.2 0.2,0.1 0.3,0.3 0.5,0.4 0.1,0.1 0.2,0.3 0.3,0.5 0.1,0.3 0.1,0.5 0.2,0.7 0,0.2 0,0.3 0,0.3 0,0 -0.1,-0.1 -0.2,-0.2 -0.1,-0.1 -0.3,-0.3 -0.5,-0.5 -0.1,-0.1 -0.2,-0.2 -0.3,-0.3 -0.1,-0.1 -0.2,-0.2 -0.3,-0.2 -0.1,-0.1 -0.2,0 -0.3,0 -0.1,0 -0.2,0 -0.4,0.1 -0.3,0.1 -0.5,0.3 -0.8,0.5 -0.3,0.2 -0.5,0.4 -0.7,0.5 -0.5,0.2 -0.8,0.5 -0.8,0.5 z"
           inkscape:connector-curvature="0"
           style="fill:#ffffff" />
      </g>
      <g
         style="fill:#ffffff"
         id="g6650">
        <path
           id="path6652"
           d="m 46.6,44.7 c 0,0 0.3,-0.1 0.7,0 0.4,0 1,0.2 1.5,0.5 0.2,0.2 0.5,0.3 0.7,0.6 0.2,0.2 0.3,0.5 0.4,0.7 0.1,0.2 0.1,0.5 0,0.6 0,0.1 -0.1,0.2 -0.1,0.2 0,0 0,-0.1 -0.1,-0.2 -0.1,-0.1 -0.2,-0.2 -0.3,-0.3 -0.3,-0.2 -0.7,-0.5 -1.1,-0.7 -0.4,-0.3 -0.9,-0.6 -1.2,-0.8 -0.3,-0.4 -0.5,-0.6 -0.5,-0.6 z"
           inkscape:connector-curvature="0"
           style="fill:#ffffff" />
      </g>
      <g
         style="fill:#ffffff"
         id="g6654">
        <path
           id="path6656"
           d="m 49.3,39.2 c 0,0 0.3,-0.2 0.7,-0.2 0.4,-0.1 1,-0.1 1.6,0.1 0.3,0.1 0.6,0.2 0.8,0.3 0.2,0.1 0.5,0.3 0.6,0.6 0.1,0.2 0.2,0.4 0.2,0.6 0,0.1 0,0.2 0,0.2 0,0 -0.1,0 -0.2,-0.1 -0.1,-0.1 -0.2,-0.1 -0.4,-0.2 -0.3,-0.1 -0.8,-0.2 -1.3,-0.4 -0.5,-0.1 -1,-0.3 -1.4,-0.4 -0.4,-0.3 -0.6,-0.5 -0.6,-0.5 z"
           inkscape:connector-curvature="0"
           style="fill:#ffffff" />
      </g>
      <g
         style="fill:#ffffff"
         id="g6658">
        <path
           id="path6660"
           d="m 41.9,49.6 c 0,0 0.3,-0.1 0.7,0 0.4,0 1,0.2 1.5,0.5 0.2,0.2 0.5,0.3 0.7,0.6 0.2,0.2 0.4,0.5 0.4,0.7 0.1,0.2 0.1,0.5 0,0.6 0,0.1 -0.1,0.2 -0.1,0.2 0,0 0,-0.1 -0.1,-0.2 C 44.9,51.9 44.8,51.8 44.7,51.7 44.4,51.5 44,51.2 43.6,51 43.2,50.7 42.7,50.4 42.4,50.2 42.2,49.9 41.9,49.6 41.9,49.6 z"
           inkscape:connector-curvature="0"
           style="fill:#ffffff" />
      </g>
      <g
         style="fill:#ffffff"
         id="g6662">
        <path
           id="path6664"
           d="M 6.4,29.7 C 2.3,30.8 9.2,35 6.7,36.5"
           stroke-miterlimit="10"
           inkscape:connector-curvature="0"
           style="fill:#ffffff;stroke:#ffffff;stroke-miterlimit:10;stroke-opacity:1" />
        <path
           id="path6666"
           d="M 6,35.7 C 5.2,33.6 7.6,31.6 6,29.6"
           stroke-miterlimit="10"
           inkscape:connector-curvature="0"
           style="fill:#ffffff;stroke:#ffffff;stroke-miterlimit:10;stroke-opacity:1" />
        <path
           id="path6668"
           d="M 6.2,29.8 C 3.5,28.8 5.4,34.1 4.9,35"
           stroke-miterlimit="10"
           inkscape:connector-curvature="0"
           style="fill:#ffffff;stroke:#ffffff;stroke-miterlimit:10;stroke-opacity:1" />
        <path
           id="path6670"
           d="m 57.7,29 c -4.1,1.1 2.8,5.3 0.3,6.8"
           stroke-miterlimit="10"
           inkscape:connector-curvature="0"
           style="fill:#ffffff;stroke:#ffffff;stroke-miterlimit:10;stroke-opacity:1" />
        <path
           id="path6672"
           d="m 57.3,35 c -0.8,-2.1 1.6,-4.1 0,-6.1"
           stroke-miterlimit="10"
           inkscape:connector-curvature="0"
           style="fill:#ffffff;stroke:#ffffff;stroke-miterlimit:10;stroke-opacity:1" />
        <path
           id="path6674"
           d="m 57.5,29.1 c -2.7,-1 -0.8,4.3 -1.3,5.2"
           stroke-miterlimit="10"
           inkscape:connector-curvature="0"
           style="fill:#ffffff;stroke:#ffffff;stroke-miterlimit:10;stroke-opacity:1" />
        <path
           id="path6676"
           d="m 10.4,24.2 c 0,0 29.9,0.2 41.2,-0.5 0,0 6.3,0.8 0,3.4 0,0 -34.3,1.5 -41.2,0.7 -6.9,-0.9 -1.2,-3.6 0,-3.6 z"
           inkscape:connector-curvature="0"
           style="fill:#ffffff" />
        <polygon
           id="polygon6678"
           points="30.6,27.2 30.7,26.2 30,25.6 31,25.4 31.4,24.6 31.8,25.4 32.8,25.6 32.1,26.2 32.2,27.2 31.4,26.7 "
           style="fill:#ffffff" />
        <polygon
           id="polygon6680"
           points="36.5,27.2 36.7,26.2 36,25.6 36.9,25.4 37.4,24.6 37.8,25.4 38.7,25.6 38,26.2 38.2,27.2 37.4,26.7 "
           style="fill:#ffffff" />
        <polygon
           id="polygon6682"
           points="24.6,27.2 24.8,26.2 24.1,25.6 25,25.4 25.4,24.6 25.9,25.4 26.8,25.6 26.1,26.2 26.3,27.2 25.4,26.7 "
           style="fill:#ffffff" />
        <polygon
           id="polygon6684"
           points="19,27.2 19.1,26.2 18.5,25.6 19.4,25.4 19.8,24.6 20.2,25.4 21.2,25.6 20.5,26.2 20.7,27.2 19.8,26.7 "
           style="fill:#ffffff" />
        <polygon
           id="polygon6686"
           points="42.1,26.8 42.3,25.9 41.6,25.2 42.6,25.1 43,24.2 43.4,25.1 44.3,25.2 43.7,25.9 43.8,26.8 43,26.4 "
           style="fill:#ffffff" />
        <path
           id="path6688"
           d="M 5.7,30.3 C 31.9,15.1 57.8,29.7 57.8,29.7 57.8,14.4 45.6,2 30.4,2 16.8,1.9 5.7,14.7 5.7,30.5"
           inkscape:connector-curvature="0"
           style="fill:#ffffff" />
      </g>
      <g
         style="fill:#ffffff"
         id="g6690">
        <path
           id="path6692"
           d="m 18.4,17.7 0,0 -0.4,0.3 -0.3,0.2 -0.1,0 -0.2,0.1 -0.1,0 -0.1,0 -0.1,0 -0.1,-0.1 -0.1,0 -0.3,-0.1 -0.1,0 -0.3,-0.1 -0.1,0 -0.1,-0.2 -0.1,0 0,0 -0.1,0 -0.2,0.1 -0.1,0 0,0.1 0,0.1 0.2,0.3 0.1,0.1 0.2,0.3 0.1,0.1 0.1,0.1 0,0.1 0,0.1 0,0.1 0,0 0,0 -0.1,0 -0.2,0.1 -0.2,0.2 -0.1,0 -0.2,0.1 -0.1,0 0,0 0,0 0,-0.1 0,-0.1 -0.3,-0.2 0,-0.1 -0.1,-0.2 0,-0.1 -0.2,-0.2 -0.1,-0.1 -0.2,-0.2 0,-0.1 -0.2,-0.3 0,-0.1 -0.2,-0.2 0,-0.1 -0.1,-0.3 0,-0.1 -0.3,-0.2 0,-0.1 -0.2,-0.3 0,-0.1 -0.1,-0.2 0,-0.1 0,0 0,-0.1 0,-0.1 0,0 0,0 0.1,-0.1 0.2,-0.1 0.6,-0.3 0.3,-0.2 0.1,0 0.3,-0.2 0.2,-0.1 0.1,0 0.1,0 0.1,0 0.1,0 0.1,0 0.1,0 0.1,0 0.1,0 0.1,0 0.1,0 0.1,0 0.1,0 0.1,0.1 0.1,0 0.1,0.1 0.1,0 0.1,0.1 0.1,0.1 0.1,0.1 0.1,0.1 0.1,0.1 0,0.1 0,0.1 0,0.1 0,0.1 0,0.1 0,0.1 0,0.1 0,0.1 0,0.1 0,0.1 0,0.1 0,0.1 0,0.1 -0.1,0.1 0,0.1 0,0.1 -0.3,-0.3 0,0 0,0 0.3,0.1 0.1,0 0.3,0.1 0.1,0 0.3,0.1 0.1,0 0.3,0.1 0.1,0.3 0,0 0,0 z m -2.6,-0.9 0,0 0.1,-0.1 0,-0.1 0,-0.1 0,-0.1 0,-0.1 0,-0.1 -0.1,-0.1 0,-0.1 0,0 -0.1,-0.1 -0.1,0 -0.1,0 -0.1,0 -0.1,0 -0.1,0 -0.2,0.2 -0.1,0 -0.2,0.2 -0.1,0 0,0 0,0 0,0.1 0.1,0.1 0.1,0.1 0.1,0.1 0.1,0.1 0.2,0.3 0,0 0,0 0,0 0.1,0 0.3,-0.1 0.1,0 0.1,-0.2 z"
           inkscape:connector-curvature="0"
           style="fill:#ffffff" />
        <path
           id="path6694"
           d="m 22.6,15.7 0,0 0,0.1 0,0 -0.1,0 -0.1,0 -0.1,0 -0.1,0 -0.2,0.1 -0.3,0.2 -0.1,0 0,0 0,0 -0.3,-0.4 -0.1,0 -0.1,0 -0.1,0 -0.3,0.3 -0.1,0 -0.4,0.2 -0.3,0.1 -0.1,0 -0.1,0 -0.2,0.1 -0.1,0 0,0 0,0.1 0,0.4 0,0.1 0,0.1 -0.1,0.1 -0.1,0 -0.2,0.2 -0.1,0 -0.3,0.2 -0.1,0 -0.1,0 -0.1,0 0,-0.1 0,0 0,-0.1 0,-0.2 0,-0.1 0,-0.3 0,-0.1 0,-0.3 0,-0.1 0,-0.3 0,-0.1 0,-0.3 0,-0.1 0,-0.5 0,-0.4 0,-0.1 0,-0.3 0,-0.1 0,-0.3 0,-0.1 0,-0.3 0,-0.1 0,-0.1 0.1,0 0.2,-0.1 0.4,-0.2 0.2,-0.1 0.1,0 0.1,0 0.1,0.1 0.2,0.2 0.1,0.1 0.2,0.2 0.1,0.1 0.2,0.2 0.1,0.1 0.2,0.2 0.1,0.1 0.2,0.2 0.1,0.1 0.2,0.2 0.1,0.1 0.2,0.2 0.1,0.1 0.3,0.3 0.2,0.2 0.1,0.1 0.3,0.3 0.1,-0.2 z m -2.3,-0.7 0,0 -0.3,-0.4 -0.1,-0.1 -0.2,-0.3 -0.1,-0.1 -0.1,0 -0.1,0 0,0 0,0.1 0,0.4 0,0.1 0,0.4 0,0.1 0,0.1 0.1,0 0.1,0 0.3,-0.1 0.2,-0.1 0.1,0 0.1,-0.1 0,0 z"
           inkscape:connector-curvature="0"
           style="fill:#ffffff" />
        <path
           id="path6696"
           d="m 26,12.4 0,0 0,0.2 0,0.1 0,0.1 0,0.1 0,0.1 0,0.1 0,0.1 0,0.1 -0.1,0.1 0,0.1 -0.1,0.1 -0.1,0.1 -0.1,0.1 -0.1,0.1 -0.1,0.1 -0.1,0.1 0.1,-0.1 -0.1,0 -0.1,0.1 -0.1,0 -0.1,0 -0.1,0 -0.1,0 -0.5,0.1 -0.1,0 -0.1,0 -0.1,0 -0.1,0 0,0 0,0.1 0.1,0.4 0,0.1 0,0.2 0,0.1 0,0.1 0,0.1 0,0 0,0 -0.1,0 0.1,0.3 -0.2,0 -0.1,0 -0.2,0.1 -0.1,0 -0.1,0 -0.1,0 0,0 0,-0.1 0,-0.1 0,-0.1 -0.1,-0.6 0,-0.3 0,-0.1 -0.1,-0.3 0,-0.1 -0.2,-0.7 0,-0.1 -0.1,-0.3 0,-0.1 -0.1,-0.3 0,-0.1 0,-0.3 0,-0.1 -0.1,-0.2 0,-0.1 0,0 0,-0.1 0,0 0,0 0.1,0 0.2,0 0.1,0 0.1,0 0.4,-0.1 0.4,-0.1 0.4,-0.1 0.4,-0.1 0.2,-0.1 0.1,0 0,0 0.1,0 0.1,0 0.1,0 0.1,0 0.1,0 0.1,0 0.1,0 0.1,0.1 0.1,0 0,0 0.1,0.1 0.1,0.1 0,0 0.1,0.1 0,0 0,0.1 0,0.1 0,0.1 0,0 0,0.1 0,0 0,0.1 -0.1,0.4 0,0 z m -1.5,0.9 0,0 0.2,-0.1 0,0 0.1,-0.1 0,0 0,-0.1 0,0 0,-0.1 0,0 v -0.1 l 0,0 0,-0.1 0,-0.1 0,0 0,-0.1 0,0 -0.1,-0.1 -0.1,0 -0.1,0 -0.2,0 -0.1,0 -0.1,0 -0.1,0 -0.2,0 -0.1,0 0,0 -0.1,0 0,0 0,0 0,0.1 0,0.1 0.1,0.2 0,0.1 0.1,0.3 0,0.1 0,0 0.1,0 0.3,0 0.3,0 z"
           inkscape:connector-curvature="0"
           style="fill:#ffffff" />
        <path
           id="path6698"
           d="m 30.9,14.3 0,0 0,0.1 -0.1,0 -0.1,0 -0.1,0 -0.1,0 -0.1,0 -0.2,0 -0.3,0.1 -0.1,0 0,0 0,-0.1 -0.3,-0.4 0,-0.1 -0.1,0 -0.1,0 -0.3,0 -0.1,0 -0.4,0 -0.3,0 -0.1,0 -0.1,0.1 -0.3,0 -0.1,0 0,0 0,0.1 -0.1,0.4 0,0.1 -0.1,0.1 -0.1,0 -0.1,0 -0.3,0 -0.1,0 -0.3,0.1 -0.1,0 -0.1,0 -0.1,-0.1 0,-0.1 0,0 0,-0.1 0.1,-0.2 0,-0.1 0.1,-0.3 0,-0.1 0.1,-0.3 0,-0.1 0.1,-0.3 0,-0.1 0.1,-0.3 0,-0.1 0.2,-0.5 0.1,-0.4 0,-0.1 0.1,-0.3 0,-0.1 0.1,-0.3 0,-0.1 0.1,-0.2 0,-0.1 0.1,0 0.1,0 0.3,0 0.4,0 0.3,0 0.1,0 0.1,0 0,0.1 0.1,0.2 0,0.1 0.2,0.2 0,0.1 0.2,0.3 0,0.1 0.1,0.3 0,0.1 0.2,0.3 0,0.1 0.2,0.3 0,0.1 0.1,0.3 0,0.1 0.2,0.3 0.2,0.2 0,0.1 0.2,0.3 0.5,0.2 z m -2,-1.4 0,0 -0.2,-0.4 0,-0.1 -0.2,-0.4 0,-0.1 -0.1,0 -0.1,0 -0.1,0 0,0.1 -0.1,0.4 0,0.1 -0.1,0.4 0,0.1 0,0.1 0.1,0 0.1,0 0.4,0 0.3,0 0.1,0 -0.1,-0.2 0,0 z"
           inkscape:connector-curvature="0"
           style="fill:#ffffff" />
        <path
           id="path6700"
           d="m 35.3,12.7 0,0 0,0.2 0,0.1 0,0.1 0,0.1 0,0.1 0,0.1 0,0.1 0,0.1 -0.3,0.1 0,0.1 -0.1,0.1 -0.1,0.1 -0.1,0 -0.1,0.1 -0.1,0.1 -0.1,0.1 -0.1,0 -0.1,0.1 -0.1,0 -0.1,0 -0.1,0 -0.1,0 -0.1,0 -0.3,0 h -0.1 l -0.1,0 -0.1,0 -0.2,0 -0.1,0 -0.1,0 -0.2,0 -0.1,0 -0.1,0 -0.1,0 -0.4,0 -0.1,0 -0.2,0 0,0 0,0 0,-0.1 0,-0.1 0,0 0,-0.2 0,-0.1 0,-0.1 0,-0.1 0,-0.1 0,-0.1 0,-0.3 0,-0.1 0,-0.3 0,-0.1 0,-0.1 0,-0.1 0,-0.1 0,-0.1 0,-0.1 v -0.1 l 0,-0.1 v 0 l 0,-0.3 0,-0.1 0,-0.3 0,-0.1 0,-0.3 0,-0.2 0,-0.1 0,-0.1 0,-0.1 0,0 0.1,0 0.1,0 0.1,0 0.1,0 0.5,0 0.1,0 0.3,0 0,0 0.1,0 0.2,0 h 0.1 l 0.1,0 0.1,0 0.2,0 0.1,0 0.1,0 0.1,0 0.1,0 0.2,0.1 0.1,0 0.1,0 0.1,0.1 0.2,0.1 0.1,0.1 0.1,0.1 0.1,0.1 0.1,0.1 0,0.1 0,0.1 0.1,0.1 0,0.1 0,0.1 0,0.1 0,0.1 0,0.1 0,0.1 0,0.1 0,0.1 0,0.1 0,0.1 v 0.3 l 0.1,0 z m -1.3,0.4 0,0 0.1,-0.2 0,-0.1 0,-0.1 0,-0.1 0,-0.1 0,-0.2 v -0.1 l 0,-0.1 0,-0.1 0,0 0,-0.1 -0.1,-0.1 0,0 0,-0.1 -0.1,-0.1 -0.1,-0.1 -0.1,-0.1 -0.1,0 -0.1,0 -0.1,0 -0.1,0 -0.1,0 -0.1,0 -0.1,0 -0.1,0 -0.1,0 -0.1,0 0,0 0,0.1 0,0 0,0.1 0,0.2 0,0.1 0,0.1 0,0.1 v 0.1 l 0,0.1 0,0.1 0,0.3 0,0.1 0,0.1 0,0.1 0,0.1 0,0.1 0,0.1 0,0.1 0,0.1 0,0 0.1,0 0.5,0 0.1,0 0.1,0 0.1,0 0.1,0 0.1,0 0.1,0 0.1,-0.1 0.1,-0.1 -0.1,-0.2 z"
           inkscape:connector-curvature="0"
           style="fill:#ffffff" />
        <path
           id="path6702"
           d="m 39.7,13.6 0,0.2 0,0.1 0,0.1 0,0.1 -0.1,0.1 0,0.1 0,0.1 0,0.1 -0.1,0.1 0,0.1 -0.1,0.1 -0.1,0.1 -0.1,0.1 -0.2,0 0,0 -0.1,0 -0.1,0.1 -0.1,0 -0.1,0 -0.1,0 -0.1,0 -0.1,0 -0.1,0 -0.1,0 -0.1,0 -0.1,0 -0.2,0 -0.3,-0.1 -0.1,0 -0.1,0 -0.3,0 -0.1,0 0,0 -0.1,0 0,0 -0.1,-0.1 -0.1,-0.1 -0.1,-0.1 -0.1,-0.1 -0.1,-0.2 0,-0.1 -0.1,-0.1 0,-0.1 -0.1,-0.1 0,-0.1 0,-0.1 0,-0.1 0,-0.1 0,-0.1 0,-0.1 0,-0.1 0,-0.1 0,-0.1 0,-0.2 0,-0.1 0.1,-0.3 0,-0.1 0.1,-0.3 0,-0.1 0.1,-0.3 0.1,-0.5 0,-0.2 0,-0.1 0,-0.1 0,-0.1 0,0 0.1,0 0.2,0 0.2,0.1 0.1,0 0.2,0 0.1,0 0.1,0 0.1,0 0,0.1 0,0.1 0,0.1 0,0.1 -0.1,0.2 0,0.1 -0.1,0.3 0,0.1 -0.1,0.3 0,0.1 -0.1,0.3 0,0.1 -0.1,0.3 0,0.1 0,0.1 0,0.1 0,0.1 0,0.1 0,0.1 0,0.1 0.1,0.1 0.1,0.1 0.1,0.1 0.1,0 0.1,0 0.1,0 0.1,0 0.1,0 0.1,0 0.1,0 0.1,-0.1 0.1,-0.1 0.1,-0.1 0.1,-0.1 0,-0.1 0,-0.1 0.1,-0.2 0,-0.1 0.1,-0.3 0,-0.1 0.1,-0.3 0,-0.1 0.1,-0.3 0,-0.1 0.1,-0.3 0,-0.1 0,-0.2 0,-0.1 0,-0.1 0.1,0 0.1,0 0.1,0 0.3,0.1 0.1,0 0.2,0 0.1,0 0.1,0 0.1,0 0,0 0,0.1 0,0.2 0,0.1 0,0.1 0,0.1 -0.1,0.7 0,0.1 -0.1,0.3 0,0.1 -0.1,0.3 -0.1,0.3 z"
           inkscape:connector-curvature="0"
           style="fill:#ffffff" />
        <path
           id="path6704"
           d="m 43.4,17 0,0 -0.4,-0.2 -0.3,-0.1 -0.1,0 -0.2,-0.1 -0.1,0 0,0 0,-0.1 -0.1,-0.3 0,-0.1 -0.2,-0.3 0,-0.1 0,-0.3 0,-0.1 -0.1,-0.3 0,-0.1 0,0 -0.1,0 -0.2,-0.1 -0.1,0 -0.1,0 0,0.1 -0.1,0.3 0,0.1 -0.1,0.3 0,0.1 0,0.1 0,0.1 0,0.1 0,0.1 0,0 -0.1,0 -0.1,0 -0.2,-0.1 -0.2,-0.1 -0.1,0 -0.5,-0.2 -0.1,0 0,0 0,-0.1 0,-0.1 0,-0.1 0.1,-0.1 0,-0.1 0.1,-0.3 0,-0.1 0.1,-0.3 0,-0.1 0.1,-0.3 0,-0.1 0.1,-0.3 0,-0.1 0.1,-0.3 0,-0.1 0.1,-0.3 0,-0.1 0.1,-0.3 0,-0.1 0.1,-0.3 0,-0.1 0.1,-0.2 0,-0.1 0,0 0,-0.1 0,0 0.1,0 0,0 0.1,0 0.2,0.1 0.6,0.3 0.4,0.1 0.1,0 0.3,0.2 0.2,0.1 0.1,0 0.1,0 0.1,0.1 0.1,0.1 0.1,0.1 0.1,0.1 0.1,0.1 0.1,0.1 0.1,0.1 0,0.1 0,0.1 0,0.1 0,0.1 0,0.1 0,0.1 0,0.1 0,0.1 0,0.1 0,0.1 0,0.1 0,0.1 0,0.1 0,0.1 0,0.1 0.2,0.2 0,0 -0.1,0.1 0,0.1 -0.1,0 -0.1,0.1 -0.1,0 -0.1,0 -0.1,0.1 -0.1,0 -0.1,0 -0.1,0 -0.1,0 -0.1,0 h 0 l 0,0 0.1,0.3 0,0.1 0.1,0.3 0,0.1 0.1,0.3 0,0.1 0.1,0.3 0,0.1 0.1,0.2 0,0 z m -0.8,-2.6 0.1,0 h 0.1 l 0.1,0 0.1,0 0.1,-0.1 0.1,-0.1 0,-0.1 0,-0.1 0,-0.1 0,-0.1 0,-0.1 0,-0.1 0,-0.1 -0.2,0 -0.1,-0.1 -0.1,0 -0.3,-0.1 -0.1,0 -0.3,-0.1 -0.1,0 0,0 0,0 0,0.1 0,0.1 0,0.1 0,0.1 0,0.1 -0.1,0.3 0,0.1 0,0 0,0 0.1,0 0.3,0.1 0.1,0 0.2,0.2 z"
           inkscape:connector-curvature="0"
           style="fill:#ffffff" />
        <path
           id="path6706"
           d="m 47.5,19.2 0,0 -0.1,0.1 -0.1,0 -0.1,0 -0.1,0 -0.1,-0.1 -0.1,0 -0.2,-0.1 -0.3,-0.2 -0.1,-0.1 0,-0.1 0,-0.1 0.1,-0.5 0,-0.1 0,0 -0.1,0 -0.3,-0.2 -0.1,0 -0.4,-0.2 -0.3,-0.2 -0.1,0 -0.1,0 -0.2,-0.1 -0.1,0 -0.1,0 -0.1,0 -0.3,0.3 -0.1,0.1 -0.1,0 -0.1,0 -0.1,0 0.2,-0.4 -0.1,0 -0.3,-0.2 -0.1,0 0,-0.1 0,-0.1 0,-0.1 0,0 0.1,-0.1 0.2,-0.1 0.1,-0.1 0.3,-0.2 0.1,-0.1 0.3,-0.2 0.1,-0.1 0.3,-0.2 0.1,-0.1 0.3,-0.2 0.1,-0.1 0.4,-0.3 0.3,-0.2 -0.2,0.2 0.2,-0.2 0.1,-0.1 0.2,-0.2 0.1,-0.1 0.2,-0.1 0.1,0 0.1,0 0.1,0 0.2,0.1 0.4,0.2 0.2,0.1 0.1,0.1 0,0.1 0,0.1 0,0.2 0,0.1 0,0.3 0,0.1 0,0.3 0,0.1 -0.1,0.3 0,0.1 0,0.3 0,0.1 0,0.3 0,0.1 0,0.3 0,0.1 0,0.4 0,0.3 0,0.1 0,0.4 -0.4,0.3 z m -0.8,-2.3 0,0 0.1,-0.5 0,-0.1 0.1,-0.3 0,-0.1 0,-0.1 -0.1,-0.1 -0.1,0 -0.1,0 -0.3,0.3 -0.1,0.1 -0.2,0.2 -0.1,0.1 0,0.1 0,0.1 0.1,0 0.3,0.2 0.2,0.1 0.1,0 0.1,0 0,0 z"
           inkscape:connector-curvature="0"
           style="fill:#ffffff" />
      </g>
      <g
         style="fill:#ffffff"
         id="g6708">
        <path
           id="path6710"
           d="m 77.4,18.4 0,0.3 0,0.3 0,0.4 -0.1,0.6 -0.1,0.4 -0.2,0.5 -0.1,0.3 -0.2,0.4 -0.3,0.4 -0.3,0.4 -0.3,0.3 -0.3,0.3 -0.3,0.3 -0.3,0.2 -0.3,0.2 -0.5,0.2 -0.3,0.2 -0.4,0.2 -0.4,0.1 -0.5,0.1 -0.3,0.1 -0.3,0 -0.4,0 -0.6,0 h -2 l -0.4,0 -0.4,0 -0.4,0 -0.3,0 -0.1,0.2 0,0.3 -0.1,1.6 v 0.4 l 0,0.7 0,0.3 0,0.5 0,0.3 -0.1,0.1 -0.1,0 -0.3,0 -0.7,0 -0.9,0 h -0.4 l -0.7,0 -0.4,0 -0.5,0 -0.3,-0.1 -0.2,0.1 0,-0.3 0,-0.3 0,-0.4 v -2.5 l 0.1,-1.2 v -0.4 l -0.1,-1.2 v -0.4 l 0,-2.8 v -0.4 l 0.1,-1.3 v -0.4 l -0.1,-1.2 v -0.4 l 0.1,-1.2 v -0.3 l 0,-0.7 0,-0.3 0,-0.2 0,-0.3 0.1,-0.1 0.1,-0.1 0.3,0 0.7,0 0.5,0 h 0.3 l 1.6,0 h 1.6 l 1.6,0.1 H 71 l 0.9,0 0.3,0 h 0.2 l 0.3,0.1 0.5,0.1 0.4,0.1 0.4,0.1 0.3,0.2 0.3,0.2 0.3,0.2 0.4,0.4 0.3,0.2 0.1,0.1 0.4,0.4 0.2,0.3 0.1,0.1 0.2,0.3 0.1,0.1 0.1,0.3 0.1,0.3 0.1,0.3 0,0.2 0.1,0.3 0,0.2 0.1,0.3 0.1,0.7 v 0.2 z m -7,2.3 0.4,0 0.4,-0.1 0.2,-0.1 0.3,-0.2 0.1,-0.1 0.2,-0.2 0.1,-0.1 0.2,-0.3 0.1,-0.2 0.1,-0.4 0,-0.2 V 18.2 L 72.4,17.9 72.3,17.7 72.2,17.4 72.1,17.3 72,17 l -0.2,-0.1 -0.3,-0.2 -0.6,-0.2 -0.4,0 H 70 l -0.7,0 -1,-0.1 H 68 l -0.2,0 -0.3,0 -0.1,0.1 -0.1,0.2 0,0.3 v 0.5 l 0.1,0.9 0,0.4 0,1.3 0,0.3 0.1,0.2 0.3,0.1 1.2,0.1 1.4,-0.1 z"
           inkscape:connector-curvature="0"
           style="fill:#ffffff" />
        <path
           id="path6712"
           d="m 95.2,27.1 0,0.4 0,0.6 0,0.3 0,0.3 -0.1,0.3 -0.1,0.2 -0.3,0 -0.4,0 -1.3,-0.1 h -0.4 l -1.2,0.1 H 91 l -0.3,-0.1 -0.1,-0.1 0,-0.3 -0.1,-1.5 0,-0.4 0,-1.5 v -0.4 l 0,-1.5 v -0.3 l -0.1,-0.2 -0.3,-0.1 h -0.6 l -0.9,0.1 -0.4,0 -1.9,0 -1.3,-0.1 -0.3,0 -0.2,0.1 -0.1,0.2 0,0.3 0,1.5 v 0.4 l 0,1.5 0,0.4 0.1,1 v 0.5 l -0.1,0.3 -0.2,0.2 -0.2,0.1 -0.3,0 -0.3,0 -1,-0.1 -0.4,0 -1.1,0.1 -0.4,0 h -0.2 l -0.3,0 -0.2,-0.1 0,-0.2 0,-0.3 0,-0.2 v -0.4 l 0,-0.7 v -2 l 0,-1.2 v -0.4 l 0,-1.2 V 22.2 L 79.7,21 v -0.4 l 0,-1.2 v -1.6 l 0,-0.4 0.1,-1.2 0,-0.4 0,-1.2 0,-0.4 -0.1,-0.8 V 13 l 0.1,-0.3 0.2,-0.2 0.3,-0.1 0.3,0 H 81 l 1,0 h 0.4 l 0.9,-0.1 h 0.4 l 0.3,0 0.3,0 0.2,0.2 0.1,0.3 0,0.2 v 0.3 l -0.1,1 0,0.4 0,1.5 v 1.9 l 0,0.3 0.1,0.2 0.1,0.1 0.2,0 0.3,0 h 0.3 l 0.9,-0.1 0.3,0 1.5,0 1.4,0.1 H 90 l 0.2,0 0.3,-0.1 0.1,-0.2 0,-0.3 0.1,-1.5 v -0.4 l 0,-1.5 v -0.4 l 0,-1.5 0.1,-0.4 0.2,-0.2 0.3,0 h 0.4 l 1.3,0.1 h 0.4 l 1,-0.1 0.4,0 H 95 l 0.3,0 0.2,0.2 0.1,0.3 V 13 l -0.1,0.9 0,0.4 0.1,1.2 v 0.4 l 0,1.2 v 0.4 l 0.1,1.2 v 0.4 l -0.1,1.2 v 0.4 l 0,1.2 v 0.4 l 0,1.2 v 0.4 l 0,1.2 v 2 z"
           inkscape:connector-curvature="0"
           style="fill:#ffffff" />
        <path
           id="path6714"
           d="m 113.4,18.4 0,0.3 0,0.3 0,0.4 -0.1,0.6 -0.1,0.4 -0.2,0.5 -0.1,0.3 -0.2,0.4 -0.2,0.3 -0.3,0.4 -0.3,0.3 -0.3,0.3 -0.3,0.3 -0.3,0.2 -0.3,0.2 -0.5,0.2 -0.3,0.2 -0.4,0.2 -0.3,0.1 -0.5,0.1 -0.3,0.1 -0.3,0 -0.4,0 -0.6,0 h -2 l -0.4,0 -0.4,0 -0.4,0 -0.3,0 -0.1,0.2 0,0.3 -0.1,1.6 V 27 l 0,0.7 0,0.3 0,0.5 0,0.3 -0.1,0.1 -0.1,0 -0.3,0 -0.7,0 -0.9,0 h -0.4 l -0.7,0 -0.4,0 -0.5,0 -0.3,-0.1 -0.4,0.2 0,-0.3 0,-0.3 0,-0.4 v -2.5 l 0.1,-1.2 v -0.4 l -0.1,-1.2 v -0.4 l 0,-2.8 v -0.4 l 0.1,-1.3 v -0.4 l -0.1,-1.2 v -0.4 l 0.1,-1.2 v -0.3 l 0,-0.7 0,-0.3 0,-0.2 0,-0.3 0.1,-0.1 0.1,-0.1 0.3,0 0.7,0 0.5,0 h 0.3 l 1.6,0 h 1.6 l 1.6,0.1 h 1.5 l 0.9,0 0.3,0 h 0.2 l 0.3,0.1 0.5,0.1 0.4,0.1 0.4,0.1 0.3,0.2 0.3,0.2 0.3,0.2 0.4,0.4 0.3,0.2 0.1,0.1 0.4,0.4 0.2,0.3 0.1,0.1 0.2,0.3 0.1,0.1 0.1,0.3 0.1,0.3 0.1,0.3 0,0.2 0.1,0.3 0,0.2 0.1,0.3 0.1,0.7 v 0.2 z m -6.9,2.3 0.4,0 0.4,-0.1 0.2,-0.1 0.3,-0.2 0.1,-0.1 0.2,-0.2 0.1,-0.1 0.2,-0.3 0.1,-0.2 0.1,-0.4 0,-0.2 v -0.6 l -0.1,-0.3 -0.1,-0.2 -0.1,-0.3 -0.1,-0.1 -0.2,-0.3 -0.2,-0.1 -0.3,-0.2 -0.6,-0.2 -0.4,0 H 106 l -0.7,0 -1,-0.1 H 104 l -0.2,0 -0.3,0 -0.1,0.1 -0.1,0.2 0,0.3 v 0.5 l 0.1,0.9 0,0.4 0,1.3 0,0.3 0.1,0.2 0.3,0.1 1.2,0.1 1.5,-0.1 z"
           inkscape:connector-curvature="0"
           style="fill:#ffffff" />
      </g>
      <g
         style="fill:#ffffff"
         id="g6716">
        <path
           id="path6718"
           d="m 77.5,47.4 -0.3,0.1 h -1.5 l -1.2,0 h -0.3 l -1,0 H 73 l -0.2,-0.1 -0.2,-0.2 -0.7,-1 -0.1,-0.2 -0.7,-0.9 -0.2,-0.3 -0.6,-1 -0.2,-0.3 -0.7,-0.9 -0.1,-0.2 -0.1,-0.1 -0.3,0 -0.7,0 -0.3,0 -0.2,0.1 -0.1,0.3 0,1.2 0,0.3 0.1,1.2 0,0.3 0,0.5 v 0.3 l 0,0.3 0,0.3 -0.1,0.1 -0.2,0.1 h -0.3 l -1,-0.1 -1,0.1 h -0.3 l -1,-0.1 -0.3,0 -0.1,-0.1 0,-0.2 0,-0.3 0,-0.3 0,-0.5 0,-0.3 0.1,-1.1 v -0.3 l -0.1,-1.1 0,-0.3 0,-1.1 v -0.3 l 0.1,-1.1 v -0.3 l -0.1,-1.1 v -0.3 l 0.1,-1.1 v -0.3 l 0,-1.1 v -0.3 l 0,-1.1 v -0.3 l 0,-0.7 0,-0.3 0,-0.1 0.1,-0.3 0.1,-0.2 0.3,-0.1 0.2,0 0.3,0 1,0 2.5,0.1 1.4,-0.1 h 0.3 l 1.4,0.1 h 0.8 l 0.4,0 0.3,0.1 0.4,0.1 0.3,0.1 0.3,0.1 0.3,0.1 0.3,0.1 0.3,0.2 0.4,0.3 0.2,0.2 0.2,0.2 0.2,0.3 0.3,0.4 0.2,0.3 0.3,0.4 0.1,0.3 0.1,0.3 0.1,0.3 0.1,0.3 0,0.3 0,0.5 v 0.3 l 0,0.3 0,0.4 -0.1,0.4 -0.1,0.3 -0.1,0.3 -0.1,0.3 -0.2,0.3 -0.1,0 -0.2,0.3 -0.2,0.2 -0.3,0.3 -0.3,0.2 -0.4,0.2 -0.3,0.1 -0.3,0.1 -0.3,0.1 -0.2,0.1 0.1,0.2 0.8,1.1 0.2,0.3 0.8,1 0.2,0.3 0.8,1.1 0.2,0.3 0.7,0.8 0.2,0.2 0.1,0.2 -0.1,0.1 z m -6.4,-8.2 0.5,-0.1 0.3,-0.1 0.3,-0.1 0.2,-0.3 0.1,-0.3 0.1,-0.3 0,-0.3 0,-0.4 0,-0.4 -0.1,-0.3 -0.1,-0.3 -0.3,-0.3 -0.2,-0.2 -0.3,-0.1 -0.5,-0.1 -0.3,0 -1.1,0 h -0.3 l -1.1,0.1 -0.3,0 -0.1,0.1 -0.1,0.1 0,0.2 0,0.5 0,0.3 0,0.4 0,0.4 0,1.2 0,0.2 0,0.1 0.1,0.1 0.3,0 1.1,0.1 h 0.3 l 1.5,-0.2 z"
           inkscape:connector-curvature="0"
           style="fill:#ffffff" />
        <path
           id="path6720"
           d="m 95.6,46.8 0.1,0.3 -0.1,0.2 -0.2,0.1 -0.3,0 h -0.3 l -0.5,0 -0.3,0 H 93 L 91.7,47.5 91.4,47.4 91.3,47.2 91.2,47 90.5,45.2 90.4,45 l -0.2,0 -0.3,0 -1.3,-0.1 h -0.3 l -1.6,0 -1.3,0 h -0.3 l -0.3,0 h -1 l -0.3,0 -0.1,0.1 -0.1,0.3 -0.5,1.4 -0.1,0.3 -0.2,0.3 -0.3,0.1 -0.3,0 -1.2,-0.1 h -0.3 l -1.3,0.1 -0.3,0 -0.3,-0.1 -0.2,-0.2 0,-0.3 0,-0.2 0.1,-0.3 0.3,-0.7 0.1,-0.3 0.5,-1.2 0.1,-0.3 0.5,-1.2 0.1,-0.3 0.5,-1.1 0.1,-0.3 0.6,-1.2 0.1,-0.3 0.8,-1.7 0.6,-1.3 0.1,-0.3 0.5,-1 0.1,-0.3 0.4,-1 0.1,-0.3 0.4,-0.9 0.1,-0.2 0.2,-0.1 0.3,-0.1 1,0 h 1.6 l 1,0 0.4,0.1 0.2,0.2 0.1,0.3 0.3,0.8 0.1,0.3 0.5,1 0.1,0.3 0.5,1 0.1,0.3 0.4,1.1 0.1,0.3 0.5,1 0.1,0.3 0.5,1 0.1,0.3 0.4,1.1 0.1,0.3 0.7,1.3 0.5,1 0.1,0.3 0.6,1.3 0.7,1 z m -7.1,-5.9 -0.1,-0.3 -0.4,-1.4 -0.1,-0.3 -0.4,-1.2 -0.1,-0.3 -0.2,-0.1 -0.3,-0.1 -0.2,0.1 -0.2,0.2 -0.6,1.4 -0.1,0.3 -0.5,1.4 -0.1,0.3 0.1,0.3 0.2,0.1 0.3,0 H 87 l 1,0.1 0.3,-0.1 0.2,-0.2 0,-0.2 z"
           inkscape:connector-curvature="0"
           style="fill:#ffffff" />
        <path
           id="path6722"
           d="m 111.5,37.6 0,0.3 0,0.3 0,0.4 -0.1,0.5 -0.1,0.3 -0.2,0.4 -0.1,0.3 -0.2,0.4 -0.2,0.3 -0.3,0.4 -0.2,0.3 -0.3,0.3 -0.3,0.2 -0.3,0.2 -0.3,0.2 -0.5,0.2 -0.3,0.1 -0.4,0.1 -0.3,0.1 -0.5,0.1 -0.3,0.1 -0.3,0 -0.3,0 -0.5,0 h -1.8 l -0.4,0 -0.4,0 -0.4,0 -0.3,0 -0.1,0.1 0,0.3 -0.1,1.4 v 0.3 l 0,0.6 0,0.3 0,0.5 0,0.2 -0.1,0.1 -0.1,0 -0.2,0 -0.7,0 -0.8,0 h -0.3 l -0.7,0 -0.3,0 -0.5,0 -0.3,-0.1 0,0.4 0,-0.3 0,-0.3 0,-0.3 V 44 l 0.1,-1.1 V 42.6 L 98,41.5 v -0.3 l 0,-2.6 v -0.3 l 0.1,-1.1 V 36.9 L 98,35.8 v -0.3 l 0.1,-1.1 v -0.3 l 0,-0.6 0,-0.3 0,-0.2 0,-0.2 0.1,-0.1 0.1,-0.1 0.2,0 0.6,0 0.5,0 h 0.3 l 1.4,0 h 1.4 l 1.4,0.1 h 1.4 l 0.8,0 0.3,0 h 0.2 l 0.3,0.1 0.5,0.1 0.3,0.1 0.3,0.1 0.3,0.1 0.3,0.2 0.3,0.2 0.4,0.3 0.3,0.2 0.1,0.1 0.4,0.4 0.2,0.3 0.1,0.1 0.1,0.3 0.1,0.1 0.1,0.3 0.1,0.3 0.1,0.3 0,0.1 0.1,0.3 0,0.2 0.1,0.3 0.1,0.6 v -0.2 z m -6.4,2.1 0.4,0 0.4,-0.1 0.2,-0.1 0.3,-0.2 0.1,-0.1 0.2,-0.2 0.1,-0.1 0.1,-0.3 0.1,-0.1 0.1,-0.3 0,-0.1 v -0.5 l -0.1,-0.3 0,-0.3 -0.1,-0.3 -0.1,-0.1 -0.2,-0.3 -0.2,-0.1 -0.3,-0.2 -0.5,-0.1 -0.3,0 h -0.5 l -0.6,0 -0.9,-0.1 H 103 l -0.2,0 -0.2,0 -0.1,0.1 -0.1,0.1 0,0.3 v 0.5 l 0.1,0.8 0,0.3 0,1.2 0,0.3 0.1,0.1 0.2,0.1 1.1,0.1 1.2,0 z"
           inkscape:connector-curvature="0"
           style="fill:#ffffff" />
        <path
           id="path6724"
           d="m 128,46.8 0.1,0.3 -0.1,0.2 -0.2,0.1 -0.3,0 h -0.3 l -0.5,0 -0.3,0 h -1 l -1.3,0.1 -0.3,-0.1 -0.1,-0.2 -0.1,-0.2 -0.7,-1.8 -0.1,-0.2 -0.2,0 -0.3,0 -1.3,-0.1 h -0.3 l -1.6,0 -1.3,0 h -0.3 l -0.3,0 h -1 l -0.3,0 -0.2,0.1 -0.1,0.3 -0.5,1.4 -0.1,0.3 -0.2,0.3 -0.3,0.1 -0.3,0 -1.2,-0.1 h -0.3 l -1.3,0.1 -0.3,0 -0.3,-0.1 -0.2,-0.2 0,-0.3 0,-0.2 0.1,-0.3 0.3,-0.7 0.1,-0.3 0.5,-1.2 0.1,-0.3 0.5,-1.2 0.1,-0.3 0.5,-1.1 0.1,-0.3 0.6,-1.2 0.1,-0.3 0.8,-1.7 0.6,-1.3 0.1,-0.3 0.5,-1 0.1,-0.3 0.4,-1 0.1,-0.3 0.4,-0.9 0.1,-0.2 0.2,-0.1 0.3,-0.1 1,0 h 1.6 l 1,0 0.4,0.1 0.2,0.2 0.1,0.3 0.3,0.8 0.1,0.3 0.5,1 0.1,0.3 0.5,1 0.1,0.3 0.4,1.1 0.1,0.3 0.5,1 0.1,0.3 0.5,1 0.1,0.3 0.4,1.1 0.1,0.3 0.7,1.3 0.5,1 0.1,0.3 0.6,1.3 0.8,1 z m -7,-5.9 -0.1,-0.3 -0.5,-1.4 -0.1,-0.3 -0.4,-1.2 -0.1,-0.3 -0.2,-0.1 -0.3,-0.1 -0.2,0.1 -0.2,0.2 -0.6,1.4 -0.1,0.3 -0.5,1.4 -0.1,0.3 0.1,0.3 0.2,0.1 0.3,0 h 1.3 l 1,0.1 0.3,-0.1 0.2,-0.2 0,-0.2 z"
           inkscape:connector-curvature="0"
           style="fill:#ffffff" />
        <path
           id="path6726"
           d="m 144.9,40.2 0,0.4 0,0.5 -0.1,0.3 -0.1,0.5 -0.1,0.3 -0.1,0.3 -0.1,0.3 -0.1,0.4 -0.1,0.3 -0.2,0.5 -0.2,0.3 -0.3,0.3 -0.2,0.2 -0.4,0.3 -0.5,0.5 -0.3,0.2 -0.4,0.3 -0.3,0.2 -0.4,0.2 -0.3,0.1 -0.5,0.2 -0.3,0.1 -0.3,0.1 -0.3,0.1 -1.3,0.2 -0.3,0 -0.5,0 h -0.3 l -0.7,0 -0.5,0 h -0.3 l -0.7,0 -0.5,0 -0.4,0 -0.3,0 H 132 l -0.3,0 -0.9,-0.1 -0.2,-0.1 -0.1,-0.1 0,-0.2 0,-0.3 0,-0.2 0,-0.6 v -0.3 l 0,-0.5 v -0.3 l 0,-0.3 V 44 l 0,-1.1 v -0.3 l 0,-1.1 0,-0.3 0,-0.5 0,-0.3 0,-0.4 v -0.3 l 0,-0.5 0,-0.4 v -0.2 l 0,-0.4 0.1,-1.1 v -0.3 l 0,-1.1 v -0.3 l -0.1,-1.1 v -0.8 l 0,-0.3 0.1,-0.3 0,-0.2 0.1,-0.1 0.2,-0.1 0.4,0 0.3,0 0.3,0 1.9,0 h 0.3 l 1,0.1 0.2,0 h 0.4 l 0.9,0 0.3,0 h 0.3 l 0.5,0 0.7,0 0.3,0 0.5,0.1 0.3,0.1 0.3,0.1 0.8,0.3 0.3,0.1 0.3,0.2 0.3,0.2 0.7,0.5 0.3,0.2 0.3,0.2 0.5,0.4 0.2,0.2 0.2,0.2 0.1,0.3 0.2,0.5 0.1,0.3 0.1,0.3 0.1,0.3 0.1,0.3 0.1,0.3 0.1,0.5 0.1,0.3 0.1,0.4 0,0.3 0,0.5 0,0.3 0.1,0.2 z m -4.8,1.8 0.1,-0.3 0.1,-0.4 0.1,-0.3 0.1,-0.5 0,-0.3 0,-0.5 V 39 l 0,-0.3 -0.1,-0.5 -0.1,-0.3 0,-0.1 -0.2,-0.3 -0.3,-0.4 -0.1,-0.1 -0.2,-0.2 -0.2,-0.2 -0.3,-0.2 -0.5,-0.3 -0.3,-0.1 -0.3,-0.1 -0.3,-0.1 -0.5,0 -0.4,0 h -0.5 l -0.5,0 -0.3,0 -0.5,0.1 -0.2,0.1 -0.1,0.1 -0.1,0.3 0,0.2 0,0.3 0,0.6 0,0.3 0,0.5 0,0.3 0,0.3 v 0.3 l 0,0.5 v 1 l 0,0.4 0,0.3 0,0.5 v 0.3 l 0,0.5 0,0.3 0.1,0.5 0.1,0.2 0.1,0.1 0.3,0 2,-0.1 0.5,0 0.3,-0.1 0.4,-0.1 0.3,-0.1 0.3,-0.1 0.3,-0.2 0.4,-0.3 0.2,-0.3 0.3,-0.5 z"
           inkscape:connector-curvature="0"
           style="fill:#ffffff" />
        <path
           id="path6728"
           d="m 161.2,40 0,0.7 0,0.3 0,0.5 0,0.3 -0.1,0.5 -0.1,0.3 -0.1,0.5 -0.1,0.3 -0.2,0.4 -0.1,0.3 -0.2,0.4 -0.1,0.3 -0.3,0.4 -0.2,0.3 -0.3,0.3 -0.3,0.2 -0.4,0.3 -0.3,0.2 -0.4,0.3 -0.3,0.1 -0.4,0.2 -0.3,0.1 -0.5,0.2 -0.3,0.1 -0.5,0.1 -0.3,0.1 -0.7,0 h -1 l -0.5,0 -0.3,0 -1.2,-0.1 -0.3,-0.1 -0.2,0 -0.3,-0.1 -0.2,-0.1 -0.3,-0.1 -0.4,-0.2 -0.3,-0.2 -0.3,-0.2 -0.5,-0.5 -0.2,-0.2 -0.3,-0.4 -0.2,-0.3 -0.3,-0.5 -0.2,-0.3 -0.2,-0.3 -0.1,-0.3 -0.1,-0.3 -0.1,-0.3 -0.1,-0.3 -0.1,-0.5 -0.1,-0.4 0,-0.4 0,-0.7 0,-0.3 0.1,-1.3 V 39 l 0,-1.3 v -0.3 l 0.1,-1.3 v -2 l 0,-0.7 V 33 l 0,-0.4 0.1,-0.3 0.1,-0.2 0.3,-0.1 0.7,0 0.8,0.1 h 0.3 l 0.7,0 0.3,0 0.5,0 0.3,0.1 0.2,0.2 0.1,0.3 0,0.3 v 0.3 l 0,0.8 v 0.3 l 0.1,1.3 V 36 l 0,1.3 v 0.3 l -0.1,1.3 v 0.3 l 0,1.3 0,0.3 0,0.5 0.1,0.3 0.1,0.5 0.1,0.3 0.2,0.5 0.2,0.3 0.3,0.4 0.3,0.2 0.5,0.2 0.3,0.1 0.5,0 h 0.3 l 0.5,-0.1 0.1,0 0.4,-0.2 0.3,-0.2 0.3,-0.3 0.2,-0.3 0.2,-0.4 0.1,-0.3 0.1,-0.3 0.1,-0.3 0.1,-0.6 0,-0.3 -0.1,-1.3 v -0.3 l 0.1,-1.3 v -0.3 l 0,-1.3 V 36 l 0,-1.3 0,-0.3 -0.1,-0.9 V 33 l 0.1,-0.3 0.2,-0.2 0.3,-0.1 h 0.4 l 1.1,0.1 h 0.3 l 0.8,-0.1 h 0.3 l 0.3,0 0.3,0.1 0.2,0.1 0,0.3 0,0.6 v 0.3 l 0,0.5 v 0.3 l 0.1,1.3 v 0.3 l 0,1.3 v 0.3 l -0.1,1.3 0.2,0.9 z"
           inkscape:connector-curvature="0"
           style="fill:#ffffff" />
        <path
           id="path6730"
           d="m 178.1,47.4 -0.3,0.1 h -1.5 l -1.2,0 h -0.3 l -1,0 h -0.3 l -0.2,-0.1 -0.2,-0.2 -0.7,-1 -0.2,-0.3 -0.7,-0.9 -0.2,-0.3 -0.6,-1 -0.2,-0.3 -0.7,-0.9 -0.1,-0.2 -0.1,-0.1 -0.3,0 -0.7,0 -0.3,0 -0.2,0.1 -0.1,0.3 0,1.2 0,0.3 0.1,1.2 0,0.3 0,0.5 v 0.3 l 0,0.3 0,0.3 -0.1,0.1 -0.2,0.1 h -0.3 l -1,-0.1 -1,0.1 h -0.3 l -1,-0.1 -0.3,0 -0.1,-0.1 0,-0.2 0,-0.3 0,-0.3 0,-0.5 0,-0.3 0.1,-1.1 V 44 l -0.1,-1.1 0,-0.3 0,-1.1 v -0.3 l 0.1,-1.1 v -0.3 l -0.1,-1.1 v -0.3 l 0.1,-1.1 V 37 l 0,-1.1 v -0.3 l 0,-1.1 v -0.3 l 0,-0.7 0,-0.3 0,-0.1 0.1,-0.3 0.1,-0.2 0.3,-0.1 0.2,0 0.3,0 1,0 2.5,0.1 1.4,-0.1 h 0.3 l 1.4,0.1 h 0.8 l 0.4,0 0.3,0.1 0.4,0.1 0.3,0.1 0.3,0.1 0.3,0.1 0.3,0.1 0.3,0.2 0.4,0.3 0.2,0.2 0.2,0.2 0.2,0.3 0.3,0.4 0.2,0.3 0.3,0.4 0.1,0.3 0.1,0.3 0.1,0.3 0.1,0.3 0,0.3 0,0.5 v 0.3 l 0,0.3 0,0.4 -0.1,0.4 -0.1,0.3 -0.1,0.3 -0.1,0.3 -0.2,0.3 -0.2,0.3 -0.2,0.3 -0.2,0.2 -0.3,0.3 -0.2,0.2 -0.4,0.2 -0.3,0.1 -0.3,0.1 -0.3,0.1 -0.2,0.1 0.1,0.2 0.8,1.1 0.2,0.3 0.8,1 0.2,0.3 0.8,1.1 0.2,0.3 0.7,0.8 0.2,0.2 0.1,0.2 0.1,-0.1 z m -6.4,-8.2 0.5,-0.1 0.3,-0.1 0.3,-0.1 0.2,-0.3 0.1,-0.3 0.1,-0.3 0,-0.3 0,-0.4 0,-0.4 -0.1,-0.3 -0.1,-0.3 -0.2,-0.3 -0.2,-0.2 -0.3,-0.1 -0.5,-0.1 -0.3,0 -1.1,0 h -0.3 l -1.1,0.1 -0.3,0 -0.1,0.1 -0.1,0.1 0,0.2 0,0.5 0,0.3 0,0.4 0,0.4 0,1.2 0,0.2 0,0.1 0.1,0.1 0.3,0 1.1,0.1 h 0.3 l 1.4,-0.2 z"
           inkscape:connector-curvature="0"
           style="fill:#ffffff" />
        <path
           id="path6732"
           d="m 196.2,46.8 0.1,0.3 -0.1,0.2 -0.2,0.1 -0.3,0 h -0.3 l -0.5,0 -0.3,0 h -1 l -1.3,0.1 -0.3,-0.1 -0.1,-0.2 -0.1,-0.2 -0.7,-1.8 -0.1,-0.2 -0.2,0 -0.3,0 -1.3,-0.1 h -0.3 l -1.6,0 -1.3,0 h -0.3 l -0.3,0 h -1 l -0.3,0 -0.1,0.1 -0.1,0.3 -0.5,1.4 -0.1,0.3 -0.2,0.3 -0.3,0.1 -0.3,0 -1.2,-0.1 H 181 l -1.3,0.1 -0.3,0 -0.3,-0.1 -0.2,-0.2 0,-0.3 0,-0.2 0.1,-0.3 0.3,-0.7 0.1,-0.3 0.5,-1.2 0.1,-0.3 0.5,-1.2 0.1,-0.3 0.5,-1.1 0.1,-0.3 0.6,-1.2 0.1,-0.3 0.8,-1.7 0.6,-1.3 0.1,-0.3 0.5,-1 0.1,-0.3 0.4,-1 0.1,-0.3 0.4,-0.9 0.1,-0.2 0.2,-0.1 0.3,-0.1 1,0 h 1.6 l 1,0 0.4,0.1 0.2,0.2 0.1,0.3 0.3,0.8 0.1,0.3 0.5,1 0.1,0.3 0.5,1 0.1,0.3 0.4,1.1 0.1,0.3 0.5,1 0.1,0.3 0.5,1 0.1,0.3 0.4,1.1 0.1,0.3 0.7,1.3 0.5,1 0.1,0.3 0.6,1.3 0.7,1 z m -7.1,-5.9 -0.1,-0.3 -0.5,-1.4 -0.1,-0.3 -0.4,-1.2 -0.1,-0.3 -0.2,-0.1 -0.3,-0.1 -0.2,0.1 -0.2,0.2 -0.6,1.4 -0.1,0.3 -0.5,1.4 -0.1,0.3 0.1,0.3 0.2,0.1 0.3,0 h 1.3 l 1,0.1 0.3,-0.1 0.2,-0.2 0,-0.2 z"
           inkscape:connector-curvature="0"
           style="fill:#ffffff" />
      </g>
      <g
         style="fill:#ffffff"
         id="g6734">
        <path
           id="path6736"
           d="m 122.5,28.2 0,0 -0.3,0.3 -0.1,0.1 -0.2,0.2 -0.1,0.1 -0.2,0.1 -0.1,0.1 -0.3,0.1 -0.2,0.1 -0.2,0.1 -0.2,0 -0.3,0.1 -0.4,0 -0.2,0 -0.3,0 h -0.6 l -0.2,0 -0.2,0 -0.2,0 -0.2,0 -0.2,-0.1 -0.5,-0.1 -0.2,-0.1 -0.1,-0.2 -0.2,-0.1 -0.1,-0.1 -0.1,-0.1 -0.2,-0.1 -0.3,-0.2 -0.1,-0.1 -0.1,-0.1 -0.1,-0.2 -0.1,-0.2 -0.1,-0.2 -0.1,-0.2 -0.1,-0.2 -0.2,-0.5 -0.1,-0.2 -0.1,-0.3 0,-0.2 0,-0.3 0,-0.2 0,-0.2 v -0.2 l 0,-0.4 0,-0.2 0,-0.2 0,-0.2 0,-0.2 0.1,-0.2 0.1,-0.2 0.1,-0.2 0.1,-0.2 0.1,-0.2 0.1,-0.2 0.1,-0.2 0.1,-0.2 0.1,-0.1 0.1,-0.2 0.1,-0.1 0.1,-0.1 0.1,-0.1 0.1,-0.1 0.4,-0.2 0.1,-0.1 0.2,-0.1 0.3,-0.2 0.2,-0.1 0.2,-0.1 0.4,-0.1 0.2,0 0.2,0 0.3,0 0.2,0 0.2,0 0.2,0 0.5,0.3 0.2,0 0.3,0 0.4,0.1 0.2,0.1 0.2,0.1 0.2,0.1 0.3,0.2 0.3,0.2 0.1,0.1 0.1,0.1 0.1,0.1 0,0.1 0,0.1 -0.1,0.1 -0.1,0.1 -0.1,0.1 -0.1,0.1 -0.1,0.1 -0.1,0.1 -0.2,0.2 -0.1,0.1 -0.1,0.1 -0.1,0.1 -0.1,0 -0.1,0 -0.1,0 -0.1,-0.1 -0.2,-0.2 -0.1,-0.1 -0.2,-0.1 -0.2,-0.1 -0.2,-0.1 -0.2,0 -0.3,0 h -0.2 l -0.2,0 -0.2,0 -0.2,0.1 -0.2,0.1 -0.1,0.1 -0.2,0.1 -0.2,0.1 -0.1,0.1 -0.1,0.1 -0.1,0.2 -0.1,0.1 -0.1,0.2 -0.1,0.2 -0.1,0.2 0,0.2 0,0.2 0,0.3 v 0.2 l 0,0.3 0,0.2 0.1,0.3 0.1,0.2 0.1,0.2 0.1,0.2 0.2,0.2 0.1,0.1 0.2,0.2 0.1,0.1 0.2,0.1 0.2,0.1 0.2,0.1 0.2,0 0.3,0 h 0.3 l 0.2,0 0.1,0 0.2,-0.1 0.3,-0.1 0.2,-0.1 0.2,-0.1 0.1,-0.1 0.2,-0.1 0.1,-0.1 0.1,-0.1 0.1,0 0.1,0 0.1,0.1 0.1,0.1 0,0.1 0.1,0.1 0.2,0.2 0.1,0.1 0.3,0.3 0.1,0.1 0.1,0.1 -0.2,0.3 0,0 z"
           inkscape:connector-curvature="0"
           style="fill:#ffffff" />
        <path
           id="path6738"
           d="m 131.6,25.1 0,0.2 0,0.3 0,0.2 -0.1,0.3 0,0.3 0,0.2 0,0.2 0,0.2 -0.1,0.2 -0.1,0.2 -0.3,0.5 -0.1,0.1 -0.1,0.1 -0.1,0.1 -0.2,0.2 -0.1,0.1 -0.1,0.1 -0.1,0.1 -0.2,0.1 -0.1,0.1 -0.2,0.1 -0.2,0.1 -0.2,0.1 -0.2,0 -0.4,0.1 -0.2,0.1 -0.2,0 -0.2,0 -0.2,0 -0.2,0 H 127 l -0.4,0 -0.4,0 -0.2,0 -0.2,0 -0.6,-0.2 -0.2,-0.1 -0.2,-0.1 -0.4,-0.2 -0.2,-0.1 -0.2,-0.1 -0.1,-0.1 -0.1,-0.1 -0.1,-0.1 -0.1,-0.1 -0.3,-0.3 -0.1,-0.1 -0.1,-0.1 -0.1,-0.1 -0.1,-0.2 -0.2,-0.5 -0.1,-0.2 0,-0.2 0,-0.2 0,-0.2 0,-0.2 0,-0.2 0,-0.2 v -0.2 l 0,-0.2 0,-0.2 0,-0.2 0,-0.2 0,-0.2 0.1,-0.2 0.1,-0.2 0.1,-0.2 0.1,-0.3 0.1,-0.2 0,-0.1 0.1,-0.2 0.2,-0.2 0.1,-0.2 0.1,-0.1 0.1,-0.1 0.2,-0.2 0.1,-0.1 0.1,-0.1 0.3,-0.2 0.1,-0.1 0.2,-0.1 0.2,-0.1 0.2,-0.1 0.2,-0.1 0.2,-0.1 0.2,0 0.4,-0.1 0.2,0 0.6,-0.1 0.4,0 0.3,0 0.3,0 0.2,0 0.2,0 0.2,0 0.2,0 0.2,0 0.2,0 0.2,0.1 0.2,0.1 0.2,0.1 0.4,0.2 0.1,0.1 0.1,0.1 0.2,0.2 0.1,0.1 0.1,0.1 0.1,0.1 0.2,0.2 0.1,0.1 0.1,0.1 0.1,0.1 0.1,0.2 0.1,0.1 0.1,0.2 0.1,0.2 0.1,0.3 0.1,0.3 0,0.2 0,0.2 -0.3,0.8 z m -2.7,1.4 0.1,-0.2 0.1,-0.2 0.1,-0.2 0.1,-0.3 0,-0.2 0,-0.3 v -0.2 l 0,-0.2 0,-0.2 -0.1,-0.3 0,-0.2 -0.2,0 -0.1,-0.1 -0.2,-0.2 -0.1,-0.1 -0.2,-0.2 -0.1,-0.1 -0.3,-0.2 -0.2,-0.1 -0.2,-0.1 -0.2,0 -0.4,0 -0.2,0 -0.2,0 -0.2,0 -0.3,0.1 -0.2,0.1 -0.3,0.1 -0.2,0.1 -0.2,0.2 -0.1,0.1 -0.1,0.2 -0.1,0.1 0,0.1 -0.1,0.2 -0.1,0.2 0,0.1 0,0.2 0,0.2 0,0.2 0,0.2 v 0.2 l 0,0.2 0,0.2 0,0.1 0,0.2 0,0.1 0.1,0.2 0,0.1 0.1,0.2 0.1,0.1 0.1,0.2 0.1,0.1 0.1,0.1 0.2,0.2 0.2,0.1 0.2,0.1 0.2,0.1 0.2,0.1 0.2,0 0.3,0 0.2,0 0.3,0 0.2,0 0.2,-0.1 0.2,-0.1 0.2,-0.2 0.1,-0.1 0.2,-0.2 0.1,-0.1 0.4,-0.6 z"
           inkscape:connector-curvature="0"
           style="fill:#ffffff" />
        <path
           id="path6740"
           d="m 141.8,28.2 0,0.2 0,0.3 0,0.2 0,0.1 0,0.1 -0.1,0.1 -0.1,0.1 -0.1,0 -0.2,0 h -0.2 l -0.5,0 -0.2,0 h -0.3 l -0.2,0 -0.4,-0.1 -0.1,0 0,-0.1 0,-0.1 0,-0.2 0,-0.2 0,-0.4 v -1.1 l 0,-0.7 v -0.2 l 0,-0.7 v -0.9 l 0,-0.1 -0.1,0 h -0.1 l -0.1,0.1 -0.1,0.2 -0.5,0.5 -0.7,0.8 -0.5,0.6 -0.1,0.1 -0.1,0 H 137 l -0.1,0 -0.1,0 -0.1,-0.1 -0.6,-0.7 -0.4,-0.6 -0.1,-0.1 -0.6,-0.7 -0.1,-0.1 -0.1,0 0,0.1 0,0.7 v 0.2 l 0,0.7 v 0.2 l 0,0.7 v 0.2 l 0,0.7 v 0.2 l 0,0.3 0,0.2 0,0.2 0,0.1 0,0.1 -0.1,0 -0.3,0 -0.2,0 -0.4,0 -0.2,0 -0.5,0 H 133 l -0.1,0 -0.1,-0.1 0,-0.1 0,-0.1 v -0.3 l 0,-0.3 v -1.7 l 0,-0.6 v -0.2 l 0,-0.6 0,-0.2 0,-0.6 v -0.2 l 0,-0.6 0,-0.2 0,-0.6 0,-0.2 0,-0.6 V 22 l 0,-0.4 v -0.2 l 0,-0.1 0,-0.1 0.1,-0.1 0.1,0 0.1,0 0.2,0 0.2,0.1 h 0.2 l 0.3,0 0.2,0 0.2,0 0.4,0 h 0.1 l 0.1,0.1 0.1,0.1 0.4,0.4 0.1,0.1 0.3,0.5 0.1,0.1 0.4,0.4 0.1,0.2 0.3,0.4 0.1,0.1 0.1,0.1 h 0.1 l 0.1,-0.1 0.1,-0.1 0.3,-0.5 0.1,-0.2 0.4,-0.4 0.1,-0.1 0.4,-0.4 0.1,-0.1 0.3,-0.4 0.1,-0.1 0.1,-0.1 0.1,-0.1 0.1,0 0.6,0 0.5,0 h 0.2 l 0.3,0 0.2,0 0.1,0 0.1,0 0.1,0.1 0,0.1 0,0.1 0,0.5 0,0.2 0,0.6 v 0.2 l 0,0.6 v 0.2 l 0,0.6 v 0.2 l 0,0.6 v 0.2 l 0,0.6 v 0.2 l 0,0.6 v 0.2 l 0,0.6 v 0.2 l 0.3,0.5 z"
           inkscape:connector-curvature="0"
           style="fill:#ffffff" />
      </g>
    </g>
  </g>
</svg>
